<svg width="70" height="46" viewBox="0 0 70 46" fill="none" xmlns="http://www.w3.org/2000/svg">
<path d="M56.767 21.3811C57.4162 20.4161 57.7889 19.2439 57.7708 17.9846C57.7243 14.7506 55.1184 12.1652 51.9506 12.2101C51.8858 12.2108 51.8213 12.2133 51.7561 12.2162C50.3732 12.2833 48.98 12.873 48.0083 13.889C47.1108 14.8278 46.6354 16.1606 45.6883 17.0217C44.7843 17.8442 43.4633 17.9196 42.2524 17.9526C40.3885 18.003 38.5244 18.054 36.6604 18.105C32.6786 18.213 28.6641 18.3192 24.7412 17.6102C24.4838 17.5637 24.217 17.509 24.0067 17.3505C23.8307 17.2177 23.7103 17.0234 23.5943 16.8337C22.2443 14.6306 20.7214 12.7516 17.9393 12.6969C17.8742 12.6953 17.8095 12.695 17.7446 12.6963C14.5768 12.7411 12.0471 15.3995 12.0937 18.633C12.1117 19.8929 12.5185 21.0541 13.1951 21.9998C13.7534 22.7802 13.7688 23.8235 13.2327 24.6194C12.5835 25.5839 12.2108 26.7561 12.2288 28.0159C12.2758 31.2501 14.8813 33.8348 18.0491 33.7899C19.4156 33.7704 20.7479 33.2447 21.7703 32.3188C22.2783 31.8594 22.7052 31.3076 23.0256 30.6962C23.3341 30.1072 23.3767 29.2694 23.8766 28.8368C24.4582 28.3324 25.5832 28.1264 26.3085 27.9619C28.0815 27.559 29.915 27.5428 31.7237 27.5348C35.4852 27.5172 39.2466 27.5001 43.008 27.483C43.6986 27.4798 44.3994 27.4782 45.0644 27.6696C46.5508 28.0991 46.5281 29.1717 47.1911 30.3529C47.5292 30.9549 47.972 31.494 48.493 31.9392C49.5418 32.8354 50.8886 33.3232 52.255 33.3042C55.4229 33.2589 57.9531 30.6011 57.906 27.3669C57.888 26.1071 57.4813 24.9459 56.8046 24.0001C56.2463 23.2198 56.2314 22.1771 56.767 21.3811Z" fill="white"/>
</svg>
