<svg width="439" height="441" viewBox="0 0 439 441" fill="none" xmlns="http://www.w3.org/2000/svg">
<path opacity="0.08" d="M219.5 441C340.727 441 439 419.286 439 392.5C439 365.714 340.727 344 219.5 344C98.2735 344 0 365.714 0 392.5C0 419.286 98.2735 441 219.5 441Z" fill="black"/>
<g opacity="0.2">
<g opacity="0.2">
<g opacity="0.2">
<g opacity="0.2">
<path opacity="0.2" d="M373 386.03C373 395.942 298.877 403.98 207.442 403.98C116.007 403.98 41.8843 395.942 41.8843 386.03C41.8843 376.116 116.007 368.079 207.442 368.079C298.877 368.079 373 376.116 373 386.03Z" fill="#390176"/>
</g>
</g>
</g>
</g>
<path d="M131.706 300.137C84.3204 290.758 83.4155 202.393 71.5959 197.393C60.6277 192.753 24.2654 256.865 54.3759 293.721C41.3223 292.953 34.7414 295.147 34.6318 300.302C34.5327 304.905 39.6771 318.949 70.6087 336.938C57.4835 336.096 51.9614 338.803 54.0469 345.055C56.4918 352.393 88.8326 379.387 143.033 364.689" fill="#F8AC4C"/>
<g opacity="0.302">
<g opacity="0.302">
<g opacity="0.302">
<g opacity="0.302">
<path opacity="0.302" d="M127.32 367.928C82.6126 374.14 56.248 351.651 54.0437 345.055C51.9598 338.803 57.4804 336.098 70.6056 336.935C39.6801 318.949 34.5342 304.904 34.6332 300.302C34.7399 295.145 41.3192 292.95 54.3743 293.718C24.2638 256.865 60.6262 192.755 71.5988 197.39C75.2077 198.92 51.1966 258.647 84.2015 293.718C75.3234 293.744 70.531 296.309 69.8226 301.419C68.6588 309.821 73.2654 317.819 94.1185 330.979C90.3711 332.388 88.1866 335.13 87.5635 339.204C86.3875 346.91 111.375 349.713 128.22 337.99C131.681 335.58 122.553 367.212 127.32 367.928Z" fill="#390176"/>
</g>
</g>
</g>
</g>
<path d="M112.126 371.645C97.7867 371.645 86.3646 368.754 78.1812 365.608C62.2987 359.504 53.0368 350.405 51.5332 345.893C50.4395 342.613 51.4418 340.328 52.4746 338.987C54.4382 336.437 58.1872 335.219 61.8158 334.66C33.218 316.172 31.9262 302.885 31.9825 300.246C32.0237 298.328 32.8326 296.586 34.3209 295.212C37.6814 292.111 44.3537 291.247 49.1416 291.051C31.1584 263.528 43.1152 223.479 57.8033 203.875C63.458 196.329 68.5841 193.241 72.6286 194.955C77.4759 197.005 79.8157 205.374 84.235 222.597C91.2805 250.053 101.926 291.543 132.221 297.539C133.656 297.823 134.588 299.216 134.304 300.652C134.021 302.087 132.626 303.02 131.192 302.736C97.6237 296.091 86.4789 252.656 79.1028 223.915C76.341 213.151 73.2105 200.954 70.5629 199.832C70.0983 199.633 67.1064 200.295 62.0428 207.053C50.7959 222.064 33.7664 264.307 56.4262 292.044L60.2407 296.713L54.2204 296.364C49.3655 296.084 40.6489 296.579 37.9145 299.106C37.3676 299.61 37.2868 300.022 37.2792 300.358C37.1772 305.186 44.2897 318.567 71.94 334.647L81.6605 340.3L70.4395 339.581C65.9274 339.297 58.4249 339.941 56.67 342.221C56.4948 342.45 56.1276 342.925 56.5588 344.217C58.4279 349.82 89.323 376.509 142.34 362.132C143.754 361.749 145.207 362.584 145.589 363.996C145.972 365.407 145.137 366.863 143.726 367.246C132.021 370.42 121.455 371.643 112.126 371.645Z" fill="#390176"/>
<path d="M133.193 246.459C124.031 240.687 102.468 245.186 100.534 269.969C97.6423 307.025 117.525 325.527 129.876 340.59C114.452 343.518 106.659 351.95 106.499 365.884C106.356 378.261 113.758 384.338 128.702 384.114C139.387 384.114 146.958 384.114 151.413 384.114H324.76C339.706 384.338 347.108 378.261 346.964 365.884C346.804 351.95 339.011 343.518 323.587 340.59C335.938 325.527 355.821 307.025 352.93 269.969C350.995 245.186 329.431 240.687 320.269 246.459H133.193Z" fill="#F8AC4C"/>
<g opacity="0.302">
<g opacity="0.302">
<g opacity="0.302">
<g opacity="0.302">
<path opacity="0.302" d="M133.193 246.459C124.031 240.687 102.468 245.186 100.534 269.969C97.6423 307.025 117.525 325.527 129.876 340.59C114.452 343.518 106.659 351.95 106.499 365.884C106.356 378.261 113.758 384.338 128.702 384.114C139.387 384.114 146.958 384.114 151.413 384.114H324.76C339.706 384.338 347.108 378.261 346.964 365.884C346.804 351.95 339.011 343.518 323.587 340.59C335.938 325.527 355.821 307.025 352.93 269.969C350.995 245.186 329.431 240.687 320.269 246.459H133.193Z" fill="#390176"/>
</g>
</g>
</g>
</g>
<path d="M133.193 246.462H156.192L144.796 250.852C135.638 245.263 114.069 249.62 112.134 273.613C109.241 309.486 129.127 327.393 141.478 341.975C121.851 340.988 110.192 349.134 106.502 366.412C102.88 383.375 138.77 384.114 140.226 384.114C136.262 384.114 132.42 384.114 128.703 384.114C112.78 384.289 105.378 378.211 106.499 365.882C107.965 349.767 115.757 341.336 129.876 340.591C117.525 325.526 97.6378 307.023 100.532 269.97C102.465 245.184 124.034 240.687 133.193 246.462Z" fill="#F8AC4C"/>
<path d="M320.267 246.462H297.268L308.665 250.852C317.824 245.263 339.393 249.62 341.326 273.613C344.22 309.486 324.333 327.393 311.983 341.975C331.61 340.988 343.268 349.134 346.959 366.412C350.582 383.375 314.692 384.114 313.234 384.114C317.199 384.114 321.039 384.114 324.758 384.114C340.682 384.289 348.082 378.211 346.962 365.882C345.497 349.767 337.705 341.336 323.585 340.591C335.936 325.526 355.822 307.023 352.928 269.97C350.995 245.184 329.425 240.687 320.267 246.462Z" fill="#F8AC4C"/>
<path d="M128.57 386.764C127.169 386.764 116.003 386.539 109.131 379.69C105.562 376.133 103.784 371.477 103.849 365.853C104.046 348.813 118.065 341.705 125.245 339.182C124.738 338.585 124.223 337.979 123.696 337.362C111.68 323.266 95.2228 303.964 97.8932 269.763C99.1515 253.637 108.022 246.869 113.198 244.269C120.35 240.678 128.954 240.657 134.604 244.218C135.843 244.998 136.215 246.633 135.435 247.871C134.655 249.11 133.017 249.48 131.782 248.7C128.449 246.601 121.958 245.801 115.576 249.003C108.362 252.626 103.958 260.145 103.175 270.175C100.675 302.194 115.674 319.787 127.726 333.924C129.201 335.653 130.593 337.286 131.925 338.91L134.754 342.36L130.369 343.192C129.516 343.358 109.359 347.472 109.148 365.914C109.099 370.105 110.312 373.379 112.854 375.921C118.446 381.512 128.529 381.461 128.666 381.466H324.76C324.903 381.457 335.015 381.516 340.607 375.921C343.151 373.379 344.364 370.105 344.315 365.914C344.102 347.472 323.945 343.358 323.087 343.19L318.726 342.346L321.538 338.91C322.869 337.286 324.261 335.653 325.735 333.924C337.787 319.787 352.788 302.194 350.288 270.175C349.505 260.145 345.101 252.626 337.886 249.003C331.505 245.799 325.014 246.602 321.681 248.7C320.446 249.48 318.808 249.11 318.028 247.871C317.248 246.633 317.62 244.998 318.858 244.218C324.508 240.657 333.112 240.678 340.263 244.269C345.439 246.867 354.311 253.636 355.569 269.763C358.24 303.964 341.783 323.266 329.767 337.36C329.24 337.979 328.723 338.585 328.218 339.182C335.397 341.705 349.417 348.813 349.613 365.853C349.677 371.477 347.901 376.133 344.332 379.69C337.131 386.866 325.217 386.772 324.72 386.763H128.701C128.682 386.763 128.636 386.764 128.57 386.764Z" fill="#390176"/>
<path d="M306.332 175.475C306.317 175.306 306.294 175.145 306.277 174.977C306.347 175.574 306.416 176.173 306.492 176.77C306.439 176.341 306.386 175.905 306.332 175.475Z" fill="#F9A528"/>
<path d="M245.039 309.926H247.869C247.278 313.159 246.765 316.414 246.34 319.654C245.739 316.603 245.314 313.348 245.039 309.926Z" fill="#F9A528"/>
<path d="M308.523 182.672C310.272 198.571 321.477 214.115 320.553 242.268C319.847 263.71 309.19 298.731 288.581 347.332C304.969 352.515 310.974 362.496 306.596 377.278C303.496 387.744 290.948 389.153 282.381 389.04C268.433 388.859 255.559 390.548 246.454 378.965C233.571 362.577 244.608 328.239 247.872 309.926L308.523 182.672Z" fill="#F8AC4C"/>
<path d="M207.013 378.968C197.906 390.55 185.033 388.862 171.086 389.04C162.518 389.153 149.968 387.742 146.868 377.278C141.908 360.518 154.742 351.982 161.305 348.816C162.719 348.137 163.913 347.642 164.888 347.332C144.275 298.73 133.618 263.708 132.916 242.27C131.988 214.118 143.194 198.57 144.941 182.669L159.293 212.775L205.595 309.93C208.859 328.24 219.893 362.578 207.013 378.968Z" fill="#F8AC4C"/>
<g opacity="0.302">
<g opacity="0.302">
<g opacity="0.302">
<g opacity="0.302">
<path opacity="0.302" d="M161.305 348.816C162.719 348.137 163.913 347.642 164.888 347.332C144.275 298.73 133.618 263.708 132.916 242.27C131.988 214.118 143.194 198.57 144.941 182.669L150.101 209.297C143.89 216.463 141.716 235.104 149.798 261.533C158.28 289.271 171.358 301.09 180.265 317.916C183.911 324.804 186.999 333.596 189.53 344.293C181.896 344.549 172.488 346.057 161.305 348.816Z" fill="#390176"/>
</g>
</g>
</g>
</g>
<path d="M306.277 174.977C306.347 175.574 306.416 176.173 306.492 176.77C306.439 176.341 306.386 175.905 306.332 175.475C306.317 175.306 306.294 175.145 306.277 174.977Z" fill="#390176"/>
<path d="M306.752 178.641C306.761 178.711 306.769 178.772 306.784 178.833H306.776C306.761 178.772 306.752 178.703 306.752 178.641Z" fill="#390176"/>
<path d="M279.778 252.528H174.522C173.311 251.919 171.841 251.084 170.199 249.998C155.126 240.032 125.828 209.059 153.438 141.784H300.863C331.472 216.378 292.128 246.336 279.778 252.528Z" fill="#F8AC4C"/>
<g opacity="0.302">
<g opacity="0.302">
<g opacity="0.302">
<g opacity="0.302">
<path opacity="0.302" d="M159.411 240.721C145.285 225.324 131.663 194.848 153.438 141.784H175.656C167.139 159.22 141.684 182.576 159.411 240.721Z" fill="#390176"/>
</g>
</g>
</g>
</g>
<g opacity="0.302">
<g opacity="0.302">
<g opacity="0.302">
<g opacity="0.302">
<path opacity="0.302" d="M295.039 240.721C309.165 225.324 322.787 194.848 301.012 141.784H278.796C287.311 159.22 312.768 182.576 295.039 240.721Z" fill="#390176"/>
</g>
</g>
</g>
</g>
<path d="M275.342 263.219C264.517 285.085 252.396 314.286 245.979 336.35C242.185 349.407 242.599 364.526 241.74 365.96C238.882 369.506 234.096 371.267 227.381 371.241H226.729C220.012 371.267 215.226 369.506 212.37 365.96C211.511 364.526 211.925 349.407 208.13 336.35C201.712 314.286 189.591 285.085 178.766 263.219C161.54 228.413 168.217 208.718 178.766 199.579C182.748 196.129 190.65 196.274 198.944 197.768C217.511 201.115 236.562 201.132 255.126 197.776C263.436 196.274 271.354 196.124 275.342 199.579C285.884 208.718 292.57 228.413 275.342 263.219Z" fill="#FDDDA0"/>
<path d="M206.05 309.843C208.291 316.926 210.537 323.994 212.298 331.268C214.072 338.529 215.399 345.975 215.715 353.624C215.876 357.443 215.8 361.317 215.239 365.209C214.991 367.154 214.548 369.099 214.016 371.029C213.43 372.952 212.721 374.861 211.768 376.689C211.556 377.156 211.259 377.589 211.007 378.038C210.741 378.483 210.493 378.937 210.177 379.355L209.269 380.628C208.948 381.029 208.61 381.41 208.279 381.8L207.275 382.959L206.156 384.031C205.772 384.377 205.426 384.762 205.008 385.075L203.775 386.028L203.155 386.504L202.495 386.921L201.165 387.742C200.725 388.024 200.242 388.217 199.78 388.457C199.313 388.677 198.853 388.929 198.374 389.119C196.461 389.882 194.5 390.525 192.534 390.9C188.597 391.723 184.699 391.924 180.927 391.985L169.747 392.059C167.805 392.044 165.849 391.953 163.88 391.742C161.908 391.509 159.926 391.167 157.946 390.636C155.969 390.073 153.998 389.319 152.102 388.274C150.221 387.182 148.454 385.756 146.995 384.004C145.526 382.246 144.554 380.125 143.875 378.026C143.33 376.06 142.883 374.037 142.731 371.934C142.585 369.838 142.664 367.695 143.052 365.58C143.445 363.468 144.167 361.411 145.132 359.504C147.072 355.673 149.988 352.534 153.208 350.062C154.823 348.817 156.532 347.736 158.299 346.784C159.183 346.304 160.085 345.864 161.003 345.451C161.463 345.244 161.928 345.047 162.403 344.858C162.894 344.662 163.317 344.499 163.925 344.298L161.956 348.571C156.822 336.289 152.051 323.949 147.542 311.457C143.087 298.957 138.919 286.336 135.446 273.45C133.719 267.004 132.229 260.472 131.132 253.803C130.606 250.459 130.154 247.091 130.008 243.624L129.939 242.329L129.929 241.054L129.906 238.503L129.977 235.951C129.994 235.099 130.032 234.249 130.099 233.399C130.506 226.601 131.671 219.843 133.432 213.317C135.172 206.782 137.532 200.501 139.547 194.327L139.553 194.309C140.007 192.918 141.503 192.158 142.892 192.612C144.268 193.061 145.025 194.53 144.603 195.908C142.632 202.326 140.458 208.477 138.904 214.746C137.289 220.993 136.267 227.333 135.95 233.73C135.894 234.528 135.868 235.328 135.861 236.129L135.818 238.53L135.864 240.934L135.886 242.136L135.963 243.313C136.124 246.448 136.583 249.637 137.116 252.811C138.219 259.171 139.762 265.516 141.477 271.824C144.929 284.444 149.108 296.921 153.559 309.296C158.01 321.664 162.763 333.985 167.811 346.088L169.137 349.268L165.842 350.361C165.569 350.452 165.126 350.615 164.757 350.764C164.37 350.917 163.982 351.081 163.596 351.255C162.824 351.601 162.058 351.972 161.313 352.379C159.815 353.179 158.386 354.094 157.058 355.104C154.401 357.12 152.159 359.565 150.728 362.357C150.014 363.751 149.484 365.222 149.191 366.755C148.902 368.289 148.833 369.872 148.932 371.471C149.036 373.075 149.385 374.689 149.814 376.294C150.288 377.706 150.856 379.021 151.775 380.125C152.692 381.224 153.822 382.173 155.143 382.957C156.496 383.707 157.993 384.302 159.579 384.767C161.179 385.204 162.854 385.507 164.562 385.719C166.279 385.913 168.028 386.005 169.792 386.03L180.853 386.06C184.487 386.044 188.032 385.874 191.367 385.21C193.049 384.913 194.625 384.397 196.162 383.813C196.548 383.667 196.901 383.468 197.273 383.3C197.635 383.114 198.025 382.976 198.365 382.755L199.407 382.124L199.927 381.809L200.411 381.438L201.386 380.704C201.72 380.47 201.992 380.154 202.3 379.886L203.202 379.048L204.023 378.111C204.294 377.798 204.579 377.49 204.841 377.172L205.555 376.188C205.808 375.871 206.005 375.51 206.216 375.161C206.419 374.803 206.663 374.477 206.833 374.097C207.613 372.644 208.217 371.072 208.73 369.457C209.196 367.818 209.604 366.146 209.842 364.415C210.378 360.971 210.494 357.402 210.38 353.816C210.144 346.636 209.086 339.394 208.002 332.117L206.344 321.143C205.836 317.461 205.321 313.758 205.135 310.006C205.123 309.747 205.322 309.527 205.58 309.515C205.798 309.503 205.988 309.645 206.05 309.843Z" fill="#390176"/>
<path d="M153.846 141.951C152.923 147.138 151.421 152.037 150.362 157.051C150.076 158.295 149.766 159.532 149.434 160.76C149.113 161.991 148.933 163.255 148.648 164.492L147.841 168.208C147.715 168.829 147.545 169.44 147.427 170.062L147.117 171.931C146.919 173.178 146.677 174.417 146.458 175.661L146.113 177.523C145.987 178.141 145.947 178.771 145.861 179.394L145.385 183.141L145.142 185.015C145.056 185.639 145.058 186.268 145.011 186.895L144.813 190.659C144.788 191.286 144.736 191.914 144.733 192.542L144.782 194.42L144.884 198.18C144.889 198.807 144.976 199.427 145.05 200.047L145.271 201.909C145.745 206.893 146.977 211.747 148.517 216.451L149.826 219.925C150.021 220.515 150.3 221.066 150.557 221.628L151.334 223.31L152.105 224.994L152.991 226.619C153.599 227.69 154.125 228.813 154.812 229.838C155.478 230.875 156.093 231.949 156.798 232.961L158.946 235.981L161.278 238.868C162.083 239.81 162.892 240.751 163.737 241.662C167.09 245.344 170.714 248.804 174.72 252.134L174.725 252.137C174.917 252.297 174.943 252.581 174.783 252.773C174.669 252.912 174.489 252.964 174.324 252.923C171.718 252.26 169.264 251.131 166.925 249.82C165.771 249.14 164.634 248.421 163.531 247.652C162.441 246.869 161.374 246.046 160.354 245.169C159.33 244.294 158.349 243.37 157.405 242.41L154.682 239.417C153.843 238.364 153.001 237.308 152.173 236.239C151.371 235.153 150.661 234.003 149.902 232.885C147.046 228.302 144.733 223.373 143.134 218.23C142.893 217.601 142.735 216.947 142.566 216.297L142.055 214.347C141.719 213.047 141.345 211.756 141.147 210.43L140.419 206.48C140.276 205.824 140.229 205.158 140.156 204.494L139.947 202.503L139.74 200.512C139.67 199.848 139.589 199.185 139.59 198.518L139.431 194.53L139.348 192.534C139.342 191.868 139.383 191.206 139.399 190.543L139.517 186.559C139.546 185.897 139.528 185.228 139.597 184.57L139.789 182.593L140.186 178.635C140.267 177.978 140.299 177.311 140.419 176.662L140.773 174.711C141.018 173.411 141.242 172.109 141.51 170.814L141.898 168.87C142.051 168.229 142.226 167.594 142.404 166.959L143.481 163.155C143.656 162.519 143.853 161.892 144.043 161.261C144.241 160.634 144.404 159.997 144.65 159.386C145.097 158.149 145.567 156.921 146.059 155.702C147.87 150.773 150.348 146.115 153.029 141.616C153.154 141.404 153.429 141.334 153.64 141.461C153.803 141.558 153.883 141.744 153.851 141.921L153.846 141.951Z" fill="#390176"/>
<path d="M314.654 196.612C316.721 202.716 318.968 208.951 320.568 215.43C321.366 218.668 322.022 221.953 322.521 225.268C323.002 228.584 323.3 231.928 323.463 235.278C323.5 236.952 323.579 238.627 323.537 240.302C323.52 241.142 323.54 241.97 323.491 242.821L323.354 245.371C323.066 248.738 322.658 252.068 322.068 255.332C320.944 261.886 319.405 268.29 317.693 274.633C314.233 287.306 310.111 299.726 305.72 312.033C301.267 324.328 296.569 336.477 291.511 348.571L289.542 344.298C290.149 344.499 290.573 344.662 291.063 344.857C291.54 345.046 292.003 345.244 292.463 345.451C293.382 345.864 294.285 346.302 295.167 346.784C296.936 347.734 298.642 348.819 300.26 350.059C303.482 352.531 306.396 355.671 308.337 359.502C309.302 361.409 310.024 363.466 310.417 365.579C310.806 367.693 310.885 369.838 310.739 371.936C310.585 374.036 310.139 376.059 309.595 378.028C308.915 380.127 307.944 382.247 306.474 384.005C305.014 385.757 303.247 387.185 301.366 388.275C299.469 389.322 297.498 390.076 295.521 390.638C293.54 391.17 291.558 391.512 289.587 391.744C287.618 391.956 285.662 392.047 283.719 392.061L272.539 391.989C268.768 391.927 264.869 391.726 260.931 390.903C258.965 390.528 257.004 389.885 255.091 389.122C254.613 388.932 254.153 388.68 253.685 388.46C253.223 388.22 252.74 388.027 252.3 387.745L250.97 386.923L250.311 386.507L249.691 386.031L248.457 385.076C248.038 384.765 247.694 384.379 247.31 384.033L246.19 382.96L245.186 381.801C244.856 381.411 244.517 381.03 244.194 380.63L243.288 379.356C242.971 378.939 242.723 378.485 242.458 378.04C242.205 377.589 241.908 377.156 241.698 376.69C240.744 374.861 240.034 372.952 239.449 371.029C238.918 369.101 238.474 367.156 238.224 365.21C237.664 361.317 237.589 357.443 237.749 353.624C238.063 345.975 239.39 338.527 241.16 331.267C242.927 323.993 245.168 316.925 247.416 309.843C247.492 309.596 247.756 309.459 248.003 309.535C248.211 309.6 248.341 309.798 248.332 310.006C248.149 313.758 247.636 317.462 247.128 321.144L245.473 332.118C244.385 339.396 243.328 346.636 243.088 353.817C242.974 357.401 243.09 360.971 243.626 364.415C243.864 366.146 244.274 367.818 244.738 369.456C245.253 371.072 245.856 372.643 246.635 374.096C246.807 374.475 247.049 374.803 247.252 375.159C247.465 375.508 247.662 375.869 247.913 376.186L248.627 377.17C248.889 377.487 249.174 377.796 249.445 378.108L250.267 379.047L251.168 379.883C251.476 380.153 251.749 380.468 252.082 380.701L253.057 381.435L253.542 381.806L254.061 382.121L255.103 382.752C255.443 382.972 255.833 383.111 256.194 383.297C256.567 383.465 256.92 383.664 257.306 383.81C258.841 384.392 260.418 384.91 262.101 385.207C265.434 385.87 268.979 386.041 272.614 386.056L283.675 386.027C285.439 386.004 287.188 385.909 288.903 385.718C290.612 385.504 292.287 385.201 293.888 384.764C295.472 384.301 296.971 383.704 298.322 382.956C299.641 382.171 300.773 381.221 301.689 380.124C302.607 379.019 303.175 377.706 303.649 376.293C304.079 374.687 304.428 373.074 304.531 371.471C304.63 369.872 304.562 368.289 304.272 366.755C303.98 365.224 303.45 363.752 302.735 362.357C301.305 359.566 299.064 357.123 296.406 355.107C295.082 354.093 293.65 353.18 292.153 352.379C291.408 351.974 290.641 351.602 289.871 351.256C289.485 351.081 289.097 350.918 288.71 350.764C288.341 350.615 287.898 350.452 287.624 350.362L284.329 349.268L285.655 346.088C290.628 334.17 295.307 322.04 299.704 309.865C304.102 297.686 308.228 285.405 311.67 272.985C313.377 266.779 314.969 260.539 316.101 254.275C316.701 251.145 317.113 248.014 317.413 244.904L317.564 242.585C317.617 241.813 317.605 241.011 317.629 240.227C317.687 238.649 317.628 237.072 317.611 235.495C317.489 232.345 317.244 229.201 316.823 226.075C316.384 222.951 315.8 219.845 315.073 216.76C313.659 210.572 311.61 204.503 309.616 198.253C309.171 196.859 309.942 195.369 311.335 194.924C312.713 194.485 314.185 195.232 314.648 196.595L314.654 196.612Z" fill="#390176"/>
<path d="M279.579 252.132C287.731 245.787 294.405 238.312 299.531 229.862C302.06 225.626 304.229 221.164 305.861 216.475C306.059 215.887 306.294 215.31 306.464 214.712L306.971 212.919C307.136 212.319 307.325 211.727 307.468 211.122L307.876 209.298L308.285 207.475L308.585 205.627C308.775 204.393 308.973 203.162 309.063 201.913L309.24 200.046C309.308 199.424 309.355 198.801 309.368 198.175L309.514 194.421L309.442 190.659C309.442 190.033 309.409 189.405 309.354 188.779L309.22 186.899L309.087 185.021C309.036 184.395 308.938 183.77 308.873 183.146L308.431 179.397C308.006 176.911 307.707 174.409 307.176 171.934C306.313 166.952 305.017 162.044 303.817 157.09C303.556 155.84 303.19 154.615 302.893 153.369L302.031 149.609C301.443 147.097 300.84 144.579 300.458 141.951L300.455 141.931C300.418 141.686 300.589 141.458 300.835 141.421C301.012 141.395 301.18 141.477 301.274 141.616C302.752 143.81 304.062 146.095 305.29 148.422C306.396 150.797 307.559 153.166 308.464 155.631C309.352 158.103 310.257 160.576 310.918 163.129L311.983 166.937L312.841 170.803L313.261 172.741C313.392 173.389 313.478 174.047 313.589 174.699L314.206 178.621L314.613 182.58C314.675 183.24 314.753 183.9 314.791 184.562L314.879 186.553C315.158 191.856 315.022 197.202 314.387 202.504C314.271 203.833 314.043 205.152 313.822 206.47L313.517 208.451L313.111 210.418L312.702 212.385C312.558 213.038 312.366 213.683 312.2 214.332C311.86 215.63 311.517 216.927 311.086 218.202C309.483 223.329 307.285 228.311 304.389 232.875C301.507 237.444 297.906 241.554 293.82 245.035C291.781 246.781 289.572 248.321 287.267 249.672C284.967 251.025 282.526 252.156 279.975 252.921C279.738 252.993 279.489 252.857 279.417 252.621C279.362 252.438 279.429 252.249 279.571 252.138L279.579 252.132Z" fill="#390176"/>
<path d="M315.551 128.989H322.153C319.753 141.532 312.951 152.575 301.751 162.12C296.506 166.597 289.963 170.637 281.844 173.524H172.854C164.404 170.517 157.67 166.273 152.318 161.57C141.479 152.078 134.888 141.218 132.543 128.989H138.981C116.075 81.9251 128.855 51.9988 143.332 35.2511C143.332 35.2511 143.333 35.2481 143.338 35.2435C151.98 25.2442 161.219 19.9399 163.821 18.4821C169.105 15.5222 175.312 12.9203 182.007 10.6947C211.256 1.00622 243.282 1.00622 272.526 10.6947C279.234 12.9203 285.439 15.5222 290.717 18.4821C293.479 20.0252 303.704 25.8932 312.763 37.1051C326.557 54.1696 337.65 83.6129 315.551 128.989Z" fill="#F8AC4C"/>
<g opacity="0.4">
<g opacity="0.4">
<g opacity="0.4">
<g opacity="0.4">
<path opacity="0.4" d="M327.968 85.4272C325.815 47.4425 295.77 30.1312 290.717 27.3099C285.439 24.3561 279.234 21.7482 272.525 19.5225C243.282 9.83403 211.256 9.83403 182.006 19.5225C175.311 21.7482 169.105 24.3561 163.821 27.3099C158.775 30.1312 128.723 47.4486 126.57 85.4409C124.113 41.276 158.404 21.509 163.821 18.4821C169.105 15.5222 175.311 12.9203 182.006 10.6947C211.256 1.00622 243.282 1.00622 272.525 10.6947C279.234 12.9203 285.439 15.5222 290.717 18.4821C296.14 21.509 330.425 41.2699 327.968 85.4272Z" fill="white"/>
</g>
</g>
</g>
</g>
<path d="M309.564 142.899C309.117 142.899 308.663 142.784 308.245 142.545C306.978 141.815 306.542 140.196 307.272 138.927C323.788 110.255 329.091 84.5726 323.032 62.5952C316.267 38.0555 297.277 25.1878 289.427 20.7945C284.464 18.0174 278.499 15.4658 271.697 13.2128C243.049 3.71772 211.494 3.71772 182.843 13.2128C176.043 15.4658 170.077 18.0174 165.114 20.7945C157.263 25.1878 138.273 38.0555 131.508 62.5952C125.449 84.5726 130.752 110.255 147.268 138.927C147.999 140.196 147.564 141.815 146.296 142.545C145.027 143.275 143.408 142.841 142.678 141.572C125.428 111.626 119.951 84.5802 126.401 61.1876C133.697 34.7209 154.096 20.8889 162.528 16.1711C167.782 13.231 174.056 10.5423 181.178 8.18265C210.902 -1.66733 243.641 -1.66733 273.364 8.18265C280.484 10.5423 286.758 13.231 292.014 16.1711C300.446 20.8889 320.843 34.7209 328.14 61.1876C334.588 84.5802 329.112 111.626 311.863 141.572C311.373 142.423 310.481 142.899 309.564 142.899Z" fill="#390176"/>
<path d="M135.143 128.491C135.245 128.975 135.401 129.618 135.562 130.194C135.722 130.785 135.899 131.378 136.086 131.97C136.464 133.152 136.871 134.333 137.331 135.495C138.231 137.827 139.29 140.105 140.466 142.317C142.815 146.744 145.702 150.878 149.035 154.6C150.688 156.473 152.491 158.21 154.4 159.814C156.307 161.429 158.397 162.791 160.428 164.226C164.549 167.041 168.796 169.601 173.152 172.692L173.163 172.698C173.574 172.991 173.672 173.561 173.379 173.974C173.188 174.245 172.871 174.38 172.561 174.356C167.097 173.92 161.928 171.827 157.313 168.933C155.041 167.42 152.898 165.717 150.886 163.88C148.876 162.044 146.887 160.181 145.091 158.137C141.462 154.086 138.333 149.598 135.791 144.807C134.517 142.413 133.372 139.951 132.394 137.416C131.894 136.152 131.449 134.865 131.033 133.562C130.826 132.91 130.633 132.254 130.45 131.586C130.263 130.904 130.106 130.281 129.94 129.489C129.643 128.055 130.561 126.654 131.993 126.355C133.427 126.058 134.828 126.977 135.127 128.409L135.143 128.491Z" fill="#390176"/>
<path d="M324.757 129.489C324.592 130.281 324.434 130.904 324.247 131.586C324.065 132.253 323.87 132.91 323.665 133.562C323.247 134.864 322.802 136.152 322.304 137.416C321.325 139.951 320.181 142.413 318.906 144.807C316.363 149.598 313.236 154.086 309.607 158.137C307.811 160.181 305.82 162.044 303.811 163.88C301.798 165.717 299.657 167.42 297.384 168.933C292.77 171.827 287.601 173.92 282.137 174.356C281.632 174.395 281.192 174.021 281.153 173.516C281.125 173.184 281.28 172.88 281.533 172.7L281.544 172.692C285.902 169.601 290.149 167.041 294.269 164.226C296.299 162.791 298.391 161.429 300.296 159.814C302.205 158.21 304.01 156.473 305.663 154.599C308.995 150.878 311.882 146.744 314.231 142.317C315.407 140.105 316.467 137.827 317.367 135.495C317.827 134.333 318.232 133.152 318.612 131.97C318.799 131.378 318.974 130.785 319.136 130.194C319.296 129.618 319.453 128.975 319.555 128.491L319.573 128.404C319.873 126.972 321.278 126.055 322.71 126.357C324.141 126.658 325.059 128.057 324.757 129.489Z" fill="#390176"/>
<g opacity="0.302">
<g opacity="0.302">
<g opacity="0.302">
<g opacity="0.302">
<path opacity="0.302" d="M151.815 83.1102C152.643 93.8773 154.093 103.825 155.365 112.944C158.198 133.26 160.153 149.486 152.318 161.57C141.479 152.078 134.888 141.218 132.543 128.989H138.981C116.075 81.9251 128.855 51.9989 143.332 35.2511C143.332 35.2511 143.333 35.2481 143.338 35.2435C150.67 29.4426 149.073 47.4151 151.815 83.1102Z" fill="#390176"/>
</g>
</g>
</g>
</g>
<path d="M163.332 18.1378C159.199 21.0382 149.074 31.8921 151.816 67.5811C152.643 78.3543 154.093 88.3017 155.365 97.4205C159.358 126.015 161.59 146.498 137.272 158.757C96.2409 179.451 122.062 142.405 109.611 125.738C97.9897 110.176 87.4938 100.818 92.1355 85.8111C93.4669 81.5198 96.0292 76.7715 100.154 71.2829C110.353 57.7129 115.77 49.7671 125.055 38.6283C137.69 23.4832 153.015 7.48953 163.418 15.6943C164.213 16.3234 164.159 17.5482 163.332 18.1378Z" fill="#F8AC4C"/>
<g opacity="0.4">
<g opacity="0.4">
<g opacity="0.4">
<g opacity="0.4">
<path opacity="0.4" d="M163.332 18.1378C161.437 19.4692 158.279 22.4763 155.683 28.7875C145.682 27.1651 132.842 40.7991 121.988 53.8131C112.703 64.9518 107.286 72.8976 97.0888 86.4676C94.5722 89.8175 92.6376 92.8901 91.2071 95.7509C90.7837 92.6524 91.0289 89.394 92.1349 85.8111C93.4663 81.5198 96.0285 76.7715 100.154 71.2829C110.353 57.7129 115.77 49.7671 125.054 38.6283C137.689 23.4832 153.014 7.48953 163.417 15.6943C164.212 16.3234 164.159 17.5482 163.332 18.1378Z" fill="white"/>
</g>
</g>
</g>
</g>
<g opacity="0.302">
<g opacity="0.302">
<g opacity="0.302">
<g opacity="0.302">
<path opacity="0.302" d="M137.272 158.757C96.2409 179.451 122.062 142.405 109.611 125.738C97.9897 110.175 87.4938 100.818 92.1355 85.811C92.9901 108.712 114.896 108.85 121.049 123.479C125.492 134.048 142.531 126.916 148.684 119.102C152.081 114.771 154.352 103.48 155.365 97.4205C159.358 126.015 161.59 146.498 137.272 158.757Z" fill="#390176"/>
</g>
</g>
</g>
</g>
<path d="M163.332 18.1379C163.119 18.2902 162.887 18.4623 162.642 18.6619C162.881 17.6215 163.146 16.6358 163.424 15.702C164.213 16.3312 164.159 17.5483 163.332 18.1379Z" fill="#F8AC4C"/>
<path fill-rule="evenodd" clip-rule="evenodd" d="M119.36 167.536C117.24 167.536 115.514 167.054 114.093 166.108C109.376 162.972 109.848 156.242 110.397 148.448C110.916 141.066 111.504 132.697 107.49 127.321C105.639 124.842 103.824 122.53 102.067 120.294C89.5849 104.405 80.5666 92.9252 98.0349 69.688C101.036 65.6969 103.569 62.2632 106.019 58.9438C111.832 51.0666 116.423 44.8452 123.021 36.9345C132.242 25.878 151.425 2.87085 165.056 13.612V13.6135C166.094 14.4316 166.668 15.6609 166.631 16.9862C166.595 18.3054 165.931 19.5439 164.852 20.3025C161.734 22.4946 151.766 32.369 154.455 67.3756C155.211 77.2134 156.469 86.192 157.686 94.8751C161.822 124.387 165.09 147.697 138.466 161.123C129.884 165.45 123.772 167.536 119.36 167.536ZM157.048 16.1468C148.507 16.1468 136.822 28.6581 127.09 40.327C120.593 48.1174 116.042 54.2839 110.283 62.0896C107.825 65.4196 105.285 68.8608 102.27 72.8718C87.248 92.8536 93.9904 101.438 106.232 117.022C108.008 119.282 109.847 121.622 111.734 124.151C116.927 131.105 116.265 140.516 115.681 148.82C115.285 154.449 114.877 160.268 117.026 161.698C118.401 162.611 122.706 163.138 136.082 156.393C159.316 144.675 156.58 125.156 152.438 95.6094C151.268 87.2538 149.94 77.7846 149.172 67.7808C146.579 34.0325 155.398 21.3902 160.529 16.9664C159.444 16.4073 158.277 16.1468 157.048 16.1468Z" fill="#390176"/>
<g opacity="0.302">
<g opacity="0.302">
<g opacity="0.302">
<g opacity="0.302">
<path opacity="0.302" d="M315.551 128.989H322.154C319.753 141.532 312.951 152.575 301.751 162.12C289.473 144.611 298.93 118.115 301.651 82.7523C304.393 47.0648 304.512 29.8342 312.764 37.1051C326.558 54.1697 337.651 83.613 315.551 128.989Z" fill="#390176"/>
</g>
</g>
</g>
</g>
<path d="M290.046 15.6929C289.249 16.3221 289.302 17.5514 290.134 18.1364C294.265 21.0399 304.39 31.8937 301.649 67.5782C298.228 112.113 284.115 142.583 316.188 158.757C357.224 179.45 331.4 142.408 343.85 125.737C358.791 105.727 371.88 95.9796 353.31 71.28C343.112 57.713 337.693 49.7642 328.407 38.6315C315.774 23.4834 300.45 7.49273 290.046 15.6929Z" fill="#F8AC4C"/>
<path d="M254.199 141.784C246.82 144.064 244.544 162.58 227.425 162.58H227.329C210.21 162.58 207.934 144.064 200.555 141.784" fill="#390176"/>
<path d="M248.372 138.112C242.597 140.537 240.815 160.219 227.415 160.219H227.341C213.94 160.219 212.159 140.537 206.384 138.112" fill="#FC7E81"/>
<path d="M248.372 138.112C242.597 140.537 240.815 160.219 227.415 160.219H227.341C213.94 160.219 212.159 140.537 206.384 138.112" fill="#FC7E81"/>
<path d="M227.426 165.229H227.33C215.111 165.229 209.52 156.811 205.439 150.665C203.462 147.688 201.596 144.877 199.774 144.314C198.375 143.883 197.592 142.399 198.025 141.001C198.456 139.604 199.94 138.821 201.337 139.252C204.964 140.373 207.339 143.948 209.852 147.735C213.834 153.731 217.952 159.931 227.33 159.931H227.426C236.803 159.931 240.921 153.731 244.903 147.734C247.418 143.948 249.791 140.373 253.418 139.252C254.817 138.821 256.301 139.604 256.732 141.001C257.163 142.399 256.38 143.883 254.981 144.314C253.159 144.877 251.293 147.688 249.316 150.665C245.235 156.811 239.646 165.229 227.426 165.229Z" fill="#390176"/>
<g opacity="0.302">
<g opacity="0.302">
<g opacity="0.302">
<g opacity="0.302">
<path opacity="0.302" d="M259.388 153.193C247.739 161.285 229.514 157.611 227.157 148.479C224.785 157.611 206.562 161.285 194.912 153.193C186.536 147.373 185.794 139.738 186.178 135.453C187.436 138.824 189.78 142.359 193.953 145.438C199.271 149.353 205.906 149.889 211.872 148.406C211.886 148.406 211.892 148.406 211.899 148.399C219.362 146.989 225.984 142.041 227.316 136.612C228.647 142.075 235.342 147.054 242.858 148.425C248.806 149.882 255.402 149.333 260.692 145.438C264.552 142.591 266.844 139.352 268.169 136.214C268.394 140.598 267.294 147.703 259.388 153.193Z" fill="#390176"/>
</g>
</g>
</g>
</g>
<g opacity="0.302">
<g opacity="0.302">
<g opacity="0.302">
<g opacity="0.302">
<path opacity="0.302" d="M316.189 158.757C357.221 179.451 331.401 142.405 343.85 125.738C355.473 110.175 365.969 100.818 361.328 85.811C360.473 108.712 338.566 108.85 332.414 123.479C327.971 134.048 310.932 126.916 304.779 119.102C301.382 114.771 299.111 103.48 298.098 97.4205C294.104 126.015 291.872 146.498 316.189 158.757Z" fill="#390176"/>
</g>
</g>
</g>
</g>
<g opacity="0.4">
<g opacity="0.4">
<g opacity="0.4">
<g opacity="0.4">
<path opacity="0.4" d="M290.131 18.1378C292.026 19.4692 295.184 22.4763 297.779 28.7875C307.78 27.1651 320.621 40.7991 331.474 53.8131C340.759 64.9518 346.176 72.8976 356.374 86.4676C358.89 89.8175 360.825 92.8901 362.255 95.7509C362.679 92.6524 362.433 89.394 361.328 85.8111C359.996 81.5198 357.434 76.7715 353.309 71.2829C343.11 57.7129 337.693 49.7671 328.408 38.6283C315.773 23.4832 300.448 7.48953 290.045 15.6943C289.25 16.3234 289.303 17.5482 290.131 18.1378Z" fill="white"/>
</g>
</g>
</g>
</g>
<path fill-rule="evenodd" clip-rule="evenodd" d="M334.101 167.536C329.689 167.536 323.579 165.45 314.995 161.122C288.373 147.697 291.64 124.387 295.776 94.8749C296.993 86.1918 298.252 77.2132 299.007 67.3754C301.696 32.3688 291.729 22.4945 288.61 20.3024C287.532 19.5452 286.866 18.3052 286.831 16.986C286.795 15.6607 287.369 14.4298 288.406 13.6118C302.036 2.87218 321.221 25.8793 330.442 36.9343C337.039 44.8451 341.631 51.0664 347.444 58.9437C349.893 62.263 352.427 65.6967 355.428 69.6879C372.896 92.925 363.878 104.405 351.395 120.294C349.639 122.53 347.823 124.842 345.972 127.321C341.958 132.697 342.546 141.066 343.066 148.45C343.614 156.242 344.086 162.972 339.37 166.108C337.949 167.054 336.221 167.536 334.101 167.536ZM292.934 16.9662C298.064 21.39 306.883 34.0323 304.29 67.7806C303.521 77.7845 302.194 87.2551 301.023 95.6107C296.882 125.156 294.146 144.675 317.381 156.392C330.759 163.138 335.062 162.611 336.436 161.698C338.586 160.268 338.176 154.449 337.78 148.821C337.198 140.516 336.535 131.105 341.728 124.151C343.617 121.622 345.454 119.282 347.231 117.021C359.472 101.438 366.215 92.8534 351.193 72.8716C348.178 68.8607 345.637 65.4194 343.18 62.0894C337.42 54.2837 332.87 48.1172 326.373 40.3268C315.237 26.9762 301.542 12.5241 292.934 16.9662ZM291.688 17.7721L291.686 17.7736L291.688 17.7721ZM290.045 15.6927H290.053H290.045Z" fill="#390176"/>
<path d="M164.14 344.96C164.823 344.685 165.36 344.508 165.968 344.325C166.561 344.161 167.15 343.993 167.744 343.873C168.928 343.6 170.119 343.416 171.314 343.27C173.698 342.966 176.097 342.931 178.478 342.956C180.86 342.997 183.232 343.166 185.587 343.442C186.765 343.58 187.936 343.766 189.105 343.961C190.27 344.17 191.431 344.423 192.586 344.695C192.779 344.743 192.899 344.936 192.852 345.13C192.819 345.276 192.7 345.379 192.563 345.402L192.552 345.405C191.382 345.605 190.221 345.76 189.065 345.913C187.91 346.101 186.759 346.217 185.613 346.4C183.321 346.715 181.048 347.06 178.795 347.422L172.101 348.598L168.803 349.177L167.172 349.456C166.649 349.544 166.056 349.642 165.627 349.7L165.404 349.729C164.043 349.913 162.792 348.959 162.608 347.597C162.452 346.447 163.112 345.376 164.14 344.96Z" fill="#390176"/>
<g opacity="0.302">
<g opacity="0.302">
<g opacity="0.302">
<g opacity="0.302">
<path opacity="0.302" d="M292.407 348.816C290.993 348.137 289.799 347.642 288.824 347.332C309.436 298.73 320.094 263.708 320.796 242.27C321.448 222.48 316.695 210.721 312.856 198.888C311.234 193.887 306.713 214.088 307.681 217.701C310.244 227.268 309.781 242.349 303.914 261.533C295.434 289.271 282.354 301.089 273.447 317.916C269.8 324.803 266.712 333.596 264.182 344.293C271.816 344.549 281.224 346.057 292.407 348.816Z" fill="#390176"/>
</g>
</g>
</g>
</g>
<path d="M288.085 349.7C287.656 349.642 287.063 349.544 286.542 349.456L284.909 349.177L281.611 348.598L274.917 347.422C272.664 347.06 270.392 346.715 268.099 346.4C266.953 346.217 265.802 346.101 264.647 345.913C263.491 345.76 262.33 345.605 261.16 345.405L261.151 345.402C260.953 345.369 260.822 345.183 260.855 344.986C260.88 344.839 260.991 344.727 261.128 344.695C262.281 344.423 263.442 344.17 264.609 343.961C265.776 343.766 266.947 343.58 268.125 343.442C270.48 343.166 272.852 342.997 275.234 342.956C277.615 342.931 280.014 342.966 282.399 343.27C283.593 343.416 284.784 343.6 285.968 343.873C286.562 343.993 287.151 344.161 287.744 344.325C288.352 344.508 288.89 344.685 289.572 344.96C290.846 345.474 291.461 346.923 290.946 348.196C290.512 349.272 289.409 349.878 288.311 349.73L288.085 349.7Z" fill="#390176"/>
<g opacity="0.302">
<g opacity="0.302">
<g opacity="0.302">
<g opacity="0.302">
<path opacity="0.302" d="M206.548 314.79C218.006 325.158 235.456 325.16 246.917 314.792L246.918 314.79C235.411 350.677 236.836 373.625 251.2 383.637H203.652C208.566 381.399 211.718 374.711 213.109 363.576C214.498 352.44 212.311 336.178 206.548 314.79Z" fill="#390176"/>
</g>
</g>
</g>
</g>
<g opacity="0.302">
<g opacity="0.302">
<g opacity="0.302">
<g opacity="0.302">
<path opacity="0.302" d="M148.213 380.395C145.614 373.316 147.188 369.16 152.935 367.928C173.967 363.423 192.568 385.213 213.106 361.449C211.976 378.211 203.503 387.293 187.689 388.699C163.969 390.807 152.704 389.724 148.213 380.395Z" fill="#390176"/>
</g>
</g>
</g>
</g>
<g opacity="0.302">
<g opacity="0.302">
<g opacity="0.302">
<g opacity="0.302">
<path opacity="0.302" d="M305.25 380.395C307.85 373.316 306.277 369.16 300.529 367.928C279.498 363.423 260.896 385.213 240.357 361.449C241.489 378.211 249.962 387.293 265.774 388.699C289.496 390.807 300.761 389.724 305.25 380.395Z" fill="#390176"/>
</g>
</g>
</g>
</g>
<path d="M286.92 181.998C285.967 182.707 278.045 180.728 272.125 174.543C266.209 168.358 267.866 162.647 268.561 159.288C268.629 158.961 268.689 158.653 268.731 158.355C269.49 153.754 268.229 152.17 268.521 151.637L273.044 151.046C276.971 151.678 280.161 153.664 282.612 157.005C283.63 158.384 284.471 160.076 284.978 162.139C285.962 166.143 284.48 170.147 284.861 173.291C285.473 178.341 287.511 181.558 286.92 181.998Z" fill="#3BC130"/>
<g opacity="0.302">
<g opacity="0.302">
<g opacity="0.302">
<g opacity="0.302">
<path opacity="0.302" d="M268.732 158.355C269.49 153.754 268.229 152.17 268.521 151.637L273.044 151.046C276.971 151.678 280.161 153.664 282.612 157.005C279.005 157.885 273.465 158.242 268.732 158.355Z" fill="#390176"/>
</g>
</g>
</g>
</g>
<path fill-rule="evenodd" clip-rule="evenodd" d="M286.181 184.047C282.454 184.047 275.404 180.792 270.715 175.894C264.41 169.31 265.785 162.905 266.524 159.465L266.646 158.889C267.324 155.611 266.934 153.978 266.701 153.003C266.544 152.343 266.347 151.522 266.814 150.686C267.338 149.742 268.529 149.402 269.473 149.927C270.2 150.331 270.567 151.129 270.461 151.906C270.473 151.964 270.489 152.027 270.505 152.095C270.774 153.216 271.33 155.55 270.476 159.683L270.348 160.286C269.639 163.586 268.671 168.104 273.539 173.19C277.268 177.086 281.837 179.138 284.443 179.867C283.915 178.318 283.238 176.166 282.918 173.526C282.733 171.987 282.911 170.413 283.1 168.747C283.331 166.707 283.57 164.597 283.081 162.605C281.084 154.476 273.067 153.033 272.727 152.977C271.665 152.797 270.943 151.793 271.119 150.73C271.294 149.667 272.296 148.946 273.355 149.115C273.798 149.187 284.254 150.986 286.879 161.672C287.536 164.344 287.243 166.917 286.986 169.189C286.824 170.619 286.67 171.972 286.801 173.055C287.115 175.643 287.827 177.693 288.348 179.191C288.942 180.902 289.504 182.516 288.086 183.568C287.648 183.894 286.993 184.047 286.181 184.047ZM285.077 181.805H285.085H285.077Z" fill="#390176"/>
<path d="M278.564 143.773C283.671 139.969 286.525 136.47 285.763 128.523C285.298 123.672 284.31 118.793 282.937 114.161C282.264 111.891 282.207 109.06 280.299 111.743C276.617 116.916 271.722 121.244 268.829 127.037C265.944 132.793 266.433 142.024 272.757 145.098C273.348 145.426 272.764 146.957 274.157 146.475C275.974 145.592 277.442 144.69 278.564 143.773Z" fill="#3BC130"/>
<g opacity="0.4">
<g opacity="0.4">
<g opacity="0.4">
<g opacity="0.4">
<path opacity="0.4" d="M285.762 128.521C285.298 123.671 284.311 118.792 282.937 114.162C282.262 111.888 282.208 109.062 280.297 111.742C276.615 116.919 271.722 121.246 268.832 127.034C267.663 129.358 267.047 132.252 267.146 135.073C267.394 134.261 267.708 133.478 268.069 132.755C270.958 126.961 275.853 122.635 279.533 117.462C281.445 114.778 281.5 117.608 282.175 119.878C283.547 124.512 284.536 129.391 285.001 134.241C285.059 134.852 285.098 135.439 285.107 136.001C285.811 133.987 286.056 131.582 285.762 128.521Z" fill="white"/>
</g>
</g>
</g>
</g>
<g opacity="0.302">
<g opacity="0.302">
<g opacity="0.302">
<g opacity="0.302">
<path opacity="0.302" d="M285.762 128.521C285.738 128.258 285.709 127.999 285.685 127.734C284.457 130.369 282.722 132.736 279.96 134.794C277.536 137.151 275.072 137.14 274.485 136.813C271.405 135.312 269.007 131.269 268.411 127.964C266.011 133.737 266.759 142.186 272.758 145.1C273.344 145.427 272.762 146.958 274.156 146.474C275.972 145.59 277.44 144.69 278.562 143.77C283.671 139.971 286.526 136.472 285.762 128.521Z" fill="#390176"/>
</g>
</g>
</g>
</g>
<path fill-rule="evenodd" clip-rule="evenodd" d="M273.687 148.526C273.239 148.526 272.826 148.416 272.448 148.198C271.661 147.746 271.373 147.012 271.245 146.511C268.823 145.124 267.031 142.865 266.038 139.937C264.602 135.699 265.01 130.292 267.08 126.16C268.999 122.32 271.719 119.124 274.348 116.033C275.908 114.202 277.379 112.471 278.705 110.61C279.134 110.007 280.283 108.404 282.009 108.741C283.732 109.082 284.143 110.838 284.504 112.389C284.596 112.787 284.693 113.206 284.81 113.606C286.27 118.527 287.245 123.484 287.708 128.337C288.535 136.956 285.423 141.095 279.766 145.315C277.926 146.809 275.131 148.177 275.011 148.235L274.794 148.323C274.406 148.459 274.036 148.526 273.687 148.526ZM280.917 114.196C279.76 115.71 278.526 117.157 277.328 118.568C274.735 121.615 272.285 124.492 270.579 127.911C268.977 131.106 268.641 135.434 269.741 138.681C270.491 140.888 271.792 142.455 273.612 143.339L273.707 143.389C274.054 143.583 274.307 143.831 274.493 144.092C275.352 143.618 276.499 142.935 277.325 142.259L277.396 142.204C282.272 138.572 284.478 135.626 283.816 128.71C283.374 124.107 282.448 119.398 281.061 114.717C281.01 114.545 280.962 114.371 280.917 114.196ZM274.156 146.476H274.164H274.156Z" fill="#390176"/>
<path d="M278.159 125.741C277.525 128.872 277.001 132.046 276.637 135.2C276.45 136.775 276.326 138.351 276.274 139.898C276.224 141.427 276.256 143.01 276.553 144.235C276.808 145.287 276.16 146.348 275.107 146.603C274.055 146.858 272.995 146.21 272.74 145.158C272.717 145.065 272.702 144.97 272.693 144.879L272.691 144.861C272.519 142.896 272.766 141.237 273.033 139.572C273.316 137.92 273.666 136.312 274.078 134.727C274.891 131.554 275.845 128.46 276.914 125.388C277.033 125.051 277.402 124.873 277.74 124.99C278.049 125.097 278.226 125.417 278.162 125.731L278.159 125.741Z" fill="#390176"/>
<path d="M292.688 142.621C279.327 144.789 263.071 145.45 243.922 144.603C218.345 143.471 169.987 144.97 162.646 153.195L168.326 162.989C179.221 158.006 191.428 154.61 204.944 152.805C225.22 150.097 258.204 152.244 269.355 151.554C282.026 150.768 291.187 149.429 293.913 147.574" fill="#3BC130"/>
<g opacity="0.302">
<g opacity="0.302">
<g opacity="0.302">
<g opacity="0.302">
<path opacity="0.302" d="M293.911 147.574C291.189 149.428 282.026 150.767 269.353 151.554C258.201 152.243 225.219 150.096 204.944 152.805C191.428 154.612 179.221 158.006 168.325 162.99L162.643 153.196C163.333 152.42 164.388 151.705 165.758 151.045C167.883 154.642 172.218 156.278 176.19 154.982C182.847 152.81 193.839 149.748 206.279 148.401C226.593 146.195 259.535 148.802 270.698 148.346C281.312 147.906 289.477 147.06 293.471 145.799L293.911 147.574Z" fill="#390176"/>
</g>
</g>
</g>
</g>
<path d="M167.525 165.505L160.243 152.95L161.186 151.893C170.389 141.584 228.859 141.98 244.009 142.649C272.179 143.893 292.176 140.723 292.376 140.69C293.442 140.519 294.447 141.241 294.618 142.308C294.792 143.374 294.068 144.378 293.002 144.552C292.799 144.585 272.43 147.822 243.837 146.556C216.514 145.348 174.304 147.219 165.141 153.602L169.144 160.503C173.804 158.547 187.81 153.12 204.685 150.866C218.038 149.084 236.44 149.376 251.227 149.612C258.845 149.734 265.421 149.838 269.233 149.601C287.837 148.45 291.982 146.521 292.811 145.958C293.702 145.35 294.919 145.58 295.529 146.473C296.137 147.367 295.905 148.582 295.012 149.19C292.082 151.186 283.49 152.638 269.475 153.506C265.511 153.751 258.863 153.644 251.164 153.523C236.508 153.288 218.266 152.999 205.203 154.743C185.474 157.378 169.301 164.695 169.14 164.768L167.525 165.505Z" fill="#390176"/>
<path d="M335.24 152.977C334.857 152.409 334.603 151.867 334.472 151.334C334.129 149.921 334.618 148.596 335.758 147.222C336.906 145.834 337.88 144.215 338.026 142.294C338.887 140.842 339.473 141.468 339.537 142.637C339.615 144.06 341.155 146.21 342.084 147.95C342.383 148.508 342.617 149.026 342.715 149.466C343.976 154.956 338.964 153.108 335.24 152.977Z" fill="#E80F1F"/>
<path d="M285.046 128.616C285.046 128.621 285.042 128.63 285.042 128.635C285.042 128.625 285.042 128.621 285.046 128.61V128.616Z" fill="#F6CECA"/>
<path d="M326.321 154.068C331.459 151.158 334.805 146.602 337.024 141.185C337.033 140.461 337.239 139.762 337.341 139.063C338.002 134.604 338.436 130.15 334.643 126.645C319.662 120.856 307.176 125.622 295.961 135.773C295.364 136.315 294.797 136.888 294.22 137.445C291.682 142.568 293.153 147.31 295.583 151.966C305.361 159.49 315.668 160.091 326.321 154.068Z" fill="#E80F1F"/>
<g opacity="0.4">
<g opacity="0.4">
<g opacity="0.4">
<g opacity="0.4">
<path opacity="0.4" d="M337.738 133.19C337.258 132.237 336.583 131.327 335.66 130.477C320.679 124.689 308.192 129.455 296.976 139.605C296.38 140.148 295.814 140.72 295.236 141.276C293.99 143.79 293.712 146.215 294.039 148.581C292.679 145.003 292.293 141.336 294.219 137.444C294.796 136.886 295.363 136.315 295.96 135.773C307.175 125.622 319.662 120.856 334.642 126.645C336.749 128.585 337.552 130.825 337.738 133.19Z" fill="white"/>
</g>
</g>
</g>
</g>
<g opacity="0.302">
<g opacity="0.302">
<g opacity="0.302">
<g opacity="0.302">
<path opacity="0.302" d="M337.342 139.063C337.238 139.761 337.034 140.46 337.024 141.184C334.804 146.602 331.46 151.158 326.322 154.066C315.668 160.09 305.362 159.49 295.584 151.964C293.515 148.005 292.141 143.976 293.345 139.707C293.785 140.886 294.332 142.059 294.938 143.223C304.716 150.747 315.023 151.349 325.676 145.325C330.814 142.416 334.158 137.86 336.379 132.443C336.388 131.719 336.594 131.02 336.696 130.32C336.736 130.062 336.774 129.803 336.809 129.544C338.197 132.458 337.831 135.757 337.342 139.063Z" fill="#390176"/>
</g>
</g>
</g>
</g>
<path fill-rule="evenodd" clip-rule="evenodd" d="M312.149 160.123C306.049 160.123 300.113 157.919 294.391 153.515L294.048 153.253L293.849 152.871C291.451 148.275 289.411 142.746 292.465 136.577L292.616 136.274L293.361 135.549C293.783 135.137 294.205 134.724 294.642 134.327C307.792 122.426 321.103 119.316 335.348 124.821L335.695 124.955L335.969 125.208C340.719 129.597 339.884 135.233 339.275 139.349C339.237 139.614 339.185 139.883 339.132 140.152C339.055 140.542 338.982 140.909 338.979 141.211L338.973 141.583L338.833 141.927C336.21 148.326 332.433 152.855 327.285 155.77H327.283C322.151 158.673 317.096 160.123 312.149 160.123ZM297.119 150.677C306.139 157.456 315.381 158.006 325.359 152.366C329.634 149.946 332.817 146.144 335.087 140.749C335.125 140.256 335.214 139.805 335.294 139.398C335.334 139.191 335.375 138.985 335.405 138.78C336.033 134.539 336.294 131.061 333.574 128.331C320.813 123.535 309.268 126.367 297.271 137.223C296.872 137.585 296.485 137.966 296.097 138.345L295.832 138.604C294.199 142.125 294.578 145.673 297.119 150.677ZM326.322 154.068H326.328H326.322Z" fill="#390176"/>
<path d="M329.454 163.784C331.966 163.759 335.651 163.729 338.165 163.738C339.24 163.743 339.781 161.837 340.157 160.556C340.489 159.441 339.166 158.845 338.383 158.175C336.696 156.723 334.579 155.716 333.605 153.53C333.567 153.222 333.528 152.919 333.488 152.612C332.623 151.262 332.012 151.691 331.425 152.293C331.215 152.513 331.005 152.753 330.79 152.939C330.751 152.968 330.717 152.992 330.682 153.021C325.212 157.695 318.797 159.764 311.683 159.896C311.384 159.876 311.087 159.852 310.789 159.822C306.208 159.416 301.895 158.164 297.921 155.721C297.065 155.197 296.478 154.117 295.25 154.258C296.468 156.146 298.509 156.955 300.14 158.498C310.324 168.134 324.741 163.833 329.454 163.784Z" fill="#E80F1F"/>
<path d="M329.807 123.193C326.043 122.312 322.244 122.082 317.761 122.733C318.303 122.014 318.792 121.305 319.232 120.595C320.489 118.582 321.344 116.581 321.985 114.49C324.195 114.979 326.444 115.296 328.497 116.362C329.856 117.07 330.932 118.048 331.773 119.285V119.29C331.89 119.467 332.007 119.648 332.115 119.834C332.164 120.234 332.222 120.635 332.262 121.04C332.531 123.759 332.472 123.808 329.807 123.193Z" fill="#E80F1F"/>
<g opacity="0.4">
<g opacity="0.4">
<g opacity="0.4">
<g opacity="0.4">
<path opacity="0.4" d="M331.772 119.285C326.942 117.546 322.337 118.993 319.232 120.595C320.489 118.582 321.343 116.581 321.985 114.49C324.195 114.979 326.443 115.296 328.497 116.362C329.856 117.07 330.931 118.048 331.772 119.285Z" fill="white"/>
</g>
</g>
</g>
</g>
<path d="M319.887 115.74C319.766 116.001 319.644 116.26 319.52 116.519C319.334 116.915 319.144 117.316 318.938 117.707C317.316 120.752 315.55 123.372 311.698 124.282C306.579 125.49 302.189 128.444 297.96 131.528C296.317 133.312 294.225 134.677 292.964 136.828C292.938 136.824 292.913 136.817 292.889 136.813C292.411 136.725 291.966 136.623 292.475 135.963C293.834 134.188 292.039 131.132 293.955 129.836C296.135 127.528 298.56 124.673 301.28 123.065C306.203 120.141 314.05 116.729 318.416 112.974C318.792 112.651 319.604 114.479 319.887 115.74Z" fill="#E80F1F"/>
<g opacity="0.4">
<g opacity="0.4">
<g opacity="0.4">
<g opacity="0.4">
<path opacity="0.4" d="M319.887 115.74C319.766 116.001 319.644 116.26 319.52 116.519C316.606 118.865 310.408 119.989 304.853 123.514C298.567 127.51 294.415 134.109 292.889 136.813C292.411 136.725 291.966 136.623 292.475 135.963C293.834 134.188 292.039 131.132 293.955 129.836C296.135 127.528 298.56 124.673 301.28 123.065C306.203 120.141 314.05 116.729 318.416 112.974C318.792 112.651 319.604 114.479 319.887 115.74Z" fill="white"/>
</g>
</g>
</g>
</g>
<path d="M293.051 146.936C292.197 146.936 291.437 146.374 291.185 145.557L291.166 145.502C290.159 142.8 287.438 133.382 294.677 125.654C298.869 121.177 304.303 118.4 309.098 115.951C313.062 113.925 316.807 112.011 318.938 109.563L320.511 107.757L321.966 109.659C322.431 110.267 326.247 115.888 317.251 126.073C316.537 126.884 315.303 126.961 314.491 126.245C313.682 125.531 313.605 124.294 314.321 123.485C317.899 119.433 318.979 116.49 319.194 114.603C316.819 116.399 313.908 117.885 310.878 119.433C306.148 121.851 301.258 124.35 297.532 128.328C291.985 134.249 293.795 141.356 294.831 144.137C294.901 144.328 294.957 144.477 294.989 144.698C295.145 145.766 294.404 146.759 293.336 146.914C293.24 146.928 293.146 146.936 293.051 146.936Z" fill="#390176"/>
<path d="M331.312 127.473C330.741 127.473 330.175 127.225 329.789 126.745C329.111 125.904 329.244 124.673 330.085 123.995C330.574 123.589 332.971 121.365 331.066 118.409C329.445 115.899 323.458 116.379 321.488 116.744C320.427 116.939 319.406 116.242 319.208 115.181C319.01 114.12 319.708 113.099 320.768 112.899C321.81 112.704 331.029 111.138 334.352 116.289C337.471 121.124 334.53 125.437 332.539 127.041C332.178 127.332 331.744 127.473 331.312 127.473Z" fill="#390176"/>
<path d="M318.041 166.475C312.843 166.475 306.984 165.659 301.682 162.337C291.989 156.263 291.954 148.549 291.957 148.223C291.967 147.15 292.84 146.286 293.911 146.286C293.919 146.286 293.925 146.286 293.931 146.286C295.005 146.297 295.869 147.172 295.867 148.244C295.872 148.518 296.05 154.193 303.758 159.022C310.892 163.491 319.354 162.695 325.534 162.114C326.483 162.024 327.364 161.942 328.162 161.886C329.792 161.771 331.474 161.825 333.101 161.875C338.606 162.047 339.971 161.72 340.061 160.208C340.11 159.369 338.451 158.126 336.987 157.028C334.493 155.158 331.39 152.831 330.775 148.948C330.606 147.881 331.334 146.879 332.4 146.71C333.472 146.539 334.469 147.269 334.638 148.337C335.005 150.654 337.205 152.304 339.333 153.899C341.696 155.669 344.137 157.501 343.965 160.438C343.632 166.117 337.726 165.933 332.977 165.784C331.449 165.737 329.87 165.686 328.435 165.788C327.665 165.842 326.815 165.921 325.901 166.008C323.627 166.221 320.937 166.475 318.041 166.475Z" fill="#390176"/>
<path d="M337.884 156.914C337.721 156.914 337.556 156.909 337.386 156.901C336.307 156.851 335.472 155.937 335.523 154.857C335.573 153.778 336.476 152.95 337.567 152.994C339 153.066 340.126 152.653 340.719 151.841C341.147 151.254 341.193 150.596 341.046 150.203C341.004 150.083 340.934 149.911 340.848 149.697C340.233 148.165 338.953 144.977 338.642 141.872C338.391 139.345 336.371 137.325 336.351 137.305C335.585 136.548 335.571 135.312 336.324 134.543C337.076 133.774 338.306 133.754 339.08 134.502C339.205 134.624 342.139 137.509 342.535 141.482C342.791 144.035 343.973 146.981 344.477 148.24C344.581 148.497 344.663 148.703 344.716 148.846C345.345 150.547 345.024 152.58 343.875 154.15C343.106 155.203 341.325 156.914 337.884 156.914Z" fill="#390176"/>
<g opacity="0.302">
<g opacity="0.302">
<g opacity="0.302">
<g opacity="0.302">
<path opacity="0.302" d="M340.867 145.839C339.38 147.603 337.317 149.384 335.083 150.052C332.976 153.714 330.144 156.79 326.322 158.956C315.667 164.98 305.362 164.378 295.584 156.854C293.652 153.157 292.327 149.408 293.139 145.452C293.55 147.662 294.464 149.824 295.584 151.964C305.362 159.489 315.667 160.09 326.322 154.066C331.46 151.158 334.804 146.602 337.023 141.183C337.034 140.46 337.238 139.761 337.342 139.063C337.439 138.388 337.537 137.718 337.61 137.047C337.977 139.258 337.689 141.604 337.342 143.951C337.278 144.392 337.17 144.836 337.102 145.281C337.596 144.372 337.943 143.385 338.026 142.294C338.886 140.842 339.473 141.468 339.537 142.637C339.614 144.059 339.937 144.098 340.867 145.839Z" fill="#390176"/>
</g>
</g>
</g>
</g>
<path d="M269.086 122.344C271.994 131.472 269.195 139.17 260.69 145.437C248.632 154.322 229.771 145.811 227.326 135.791C224.872 145.811 206.013 154.322 193.952 145.437C185.454 139.17 182.655 131.472 185.557 122.344H269.086Z" fill="#F8AC4C"/>
<g opacity="0.302">
<g opacity="0.302">
<g opacity="0.302">
<g opacity="0.302">
<path opacity="0.302" d="M260.692 145.438C248.633 154.319 229.772 145.81 227.329 135.791C224.872 145.81 206.011 154.319 193.952 145.438C182.41 136.923 184.887 124.896 185.457 122.698C186.436 126.718 188.794 131.221 193.952 135.029C206.011 143.909 224.872 124.259 227.329 114.24C229.772 124.259 248.633 143.909 260.692 135.029C265.844 131.227 268.202 126.731 269.188 122.717C269.771 124.963 272.208 136.948 260.692 145.438Z" fill="#390176"/>
</g>
</g>
</g>
</g>
<path d="M186.397 122.614C186.866 124.492 187.111 126.241 187.37 127.9C187.585 129.566 187.887 131.172 188.315 132.73C188.749 134.284 189.258 135.823 190.039 137.249C190.808 138.679 191.826 139.989 193.007 141.157C195.43 143.551 198.178 145.264 201.37 145.997C204.532 146.768 207.961 146.637 211.234 145.836L211.867 145.756C211.563 145.755 211.205 145.816 210.872 145.954C210.539 146.092 210.243 146.303 210.03 146.523L211.258 145.828C214.286 145.059 217.207 143.718 219.67 141.881C220.898 140.962 222.005 139.916 222.893 138.772C223.781 137.629 224.439 136.388 224.756 135.157L227.384 124.964L229.902 135.163C230.385 137.118 231.762 139.055 233.497 140.667C234.382 141.467 235.354 142.196 236.382 142.859C237.428 143.5 238.52 144.076 239.653 144.568C244.194 146.5 249.384 147.132 253.957 145.817C255.097 145.49 256.201 145.063 257.231 144.497C258.262 143.933 259.215 143.273 260.183 142.472C262.081 140.908 263.678 139.058 264.846 136.977C265.445 135.941 265.894 134.837 266.262 133.704C266.647 132.57 266.746 131.359 266.839 130.173C266.927 128.983 267.02 127.795 267.182 126.567C267.357 125.341 267.617 124.052 268.242 122.615L268.317 122.442C268.54 121.924 269.142 121.688 269.659 121.911C269.756 121.954 269.847 122.013 269.924 122.079C271.299 123.278 271.947 124.719 272.317 126.224C272.663 127.729 272.687 129.294 272.455 130.823C272.21 132.352 271.8 133.85 271.313 135.317C270.828 136.784 270.239 138.231 269.465 139.572C267.951 142.276 265.891 144.634 263.564 146.552C262.423 147.499 261.119 148.416 259.742 149.161C258.367 149.914 256.901 150.485 255.408 150.911C252.416 151.758 249.301 151.987 246.286 151.685C243.265 151.393 240.337 150.608 237.566 149.438C236.186 148.84 234.85 148.137 233.56 147.342C232.282 146.523 231.057 145.606 229.91 144.565C227.664 142.458 225.622 139.82 224.755 136.417L229.901 136.423C229.355 138.562 228.313 140.425 227.079 142.018C225.839 143.615 224.394 144.961 222.846 146.121C219.743 148.43 216.233 150.028 212.541 150.969L213.768 150.276C213.546 150.497 213.241 150.71 212.9 150.849C212.559 150.992 212.192 151.055 211.878 151.055L212.512 150.977C208.525 151.953 204.26 152.147 200.128 151.148C198.066 150.662 196.059 149.857 194.216 148.77C192.341 147.659 190.772 146.379 189.277 144.922C187.807 143.447 186.473 141.806 185.343 140.009C184.206 138.214 183.318 136.242 182.794 134.179C182.276 132.116 182.083 129.979 182.32 127.9C182.588 125.819 183.243 123.811 184.714 122.079C185.053 121.68 185.653 121.631 186.053 121.971C186.211 122.103 186.313 122.279 186.36 122.464L186.397 122.614Z" fill="#390176"/>
<path d="M227.269 129.429C218.423 129.429 203.481 111.205 209.315 102.181C210.941 99.6674 215.084 98.4396 219.861 97.7998C224.776 97.1402 229.765 97.1402 234.677 97.7998C239.456 98.4396 243.6 99.6674 245.225 102.181C251.06 111.205 236.117 129.429 227.269 129.429Z" fill="#390176"/>
<g opacity="0.502">
<g opacity="0.502">
<g opacity="0.502">
<g opacity="0.502">
<path opacity="0.502" d="M227.27 107.292C221.56 107.292 211.916 104.149 215.682 102.592C216.731 102.16 219.405 101.948 222.49 101.837C225.66 101.724 228.88 101.724 232.052 101.837C235.135 101.948 237.81 102.16 238.858 102.592C242.624 104.149 232.981 107.292 227.27 107.292Z" fill="white"/>
</g>
</g>
</g>
</g>
<path d="M227.327 138.44C225.869 138.44 224.684 137.262 224.677 135.803L224.623 123.488C224.615 122.026 225.796 120.834 227.26 120.827C227.263 120.827 227.267 120.827 227.272 120.827C228.73 120.827 229.913 122.006 229.919 123.464L229.974 135.78C229.982 137.242 228.801 138.434 227.337 138.44C227.334 138.44 227.33 138.44 227.327 138.44Z" fill="#390176"/>
<path d="M203.801 80.4521C202.275 91.7889 194.18 100.058 185.719 98.9182C177.258 97.7802 171.637 87.6652 173.164 76.3284C174.69 64.9901 182.785 56.7229 191.246 57.8608C199.705 59.0003 205.328 69.1138 203.801 80.4521Z" fill="#390176"/>
<path d="M197.973 77.2239C197.515 80.6316 195.268 83.1406 192.955 82.8283C190.643 82.5175 189.139 79.5044 189.598 76.0966C190.056 72.6904 192.303 70.1814 194.616 70.4922C196.928 70.8045 198.432 73.8177 197.973 77.2239Z" fill="white"/>
<path d="M281.2 69.2492C278.776 70.1388 276.325 71.1625 274.064 72.3065C271.79 73.4597 269.653 74.7622 267.678 76.2109C266.67 76.9101 265.768 77.7236 264.834 78.4883L263.539 79.7451C263.331 79.9614 263.096 80.1503 262.898 80.3742L262.307 81.0506C260.647 82.7842 259.376 84.8224 258.128 86.8835L253.469 82.3043C253.689 82.19 253.828 82.1306 253.98 82.0606C254.136 81.989 254.282 81.9265 254.424 81.8701C254.715 81.7528 255.006 81.6355 255.291 81.5396C255.863 81.3263 256.436 81.1557 257.007 80.982C258.151 80.6484 259.314 80.4153 260.478 80.2295C262.808 79.8654 265.182 79.8121 267.511 80.0756C269.834 80.3468 272.13 80.8632 274.247 81.7848C276.401 82.5953 278.337 83.852 280.103 85.2032C280.619 85.5993 280.717 86.3381 280.322 86.8545C280.028 87.2384 279.544 87.3908 279.102 87.2811L278.966 87.2476C277.95 86.9932 277.003 86.6428 276.02 86.4219C275.03 86.2208 274.079 85.9649 273.097 85.8552C271.159 85.5551 269.223 85.4896 267.322 85.6008C265.421 85.6846 263.544 85.9938 261.724 86.4691C261.268 86.5803 260.822 86.7296 260.371 86.8561L259.05 87.307C258.619 87.473 258.186 87.633 257.778 87.8203C257.566 87.9087 257.373 88.0047 257.178 88.0991C257.076 88.1464 256.981 88.1905 256.899 88.2347L256.697 88.3398L256.617 88.3809C254.948 89.2493 252.891 88.6003 252.023 86.9322C251.488 85.9055 251.538 84.7127 252.037 83.7591C253.444 81.113 255.028 78.4929 257.155 76.3267C258.129 75.1613 259.337 74.2397 260.459 73.2404C261.684 72.3705 262.874 71.455 264.198 70.7649C266.783 69.2949 269.546 68.2057 272.376 67.5476C275.225 66.9048 278.068 66.6046 281.031 66.9169C281.681 66.9855 282.153 67.5689 282.085 68.2194C282.036 68.684 281.725 69.0557 281.315 69.2081L281.2 69.2492Z" fill="#390176"/>
</svg>
