<svg width="297" height="238" viewBox="0 0 297 238" fill="none" xmlns="http://www.w3.org/2000/svg">
<path d="M61.7587 190.662C69.7986 179.18 72.6826 155.093 61.1088 146.989C49.535 138.885 27.8876 149.833 19.8477 161.315C19.7237 161.492 19.6036 161.667 19.4894 161.841C14.7389 169.007 19.7269 178.54 28.3511 179.175C31.1906 179.384 34.0173 180.34 36.5262 182.097C39.0336 183.853 40.8985 186.182 42.0674 188.78C45.6145 196.666 56.2783 198.093 61.387 191.178C61.5106 191.01 61.6346 190.839 61.7587 190.662Z" fill="#577590" fill-opacity="0.6"/>
<path d="M36.6656 142.719C33.1373 147.758 26.7273 149.359 22.3499 146.294C17.9712 143.228 17.2837 136.657 20.8119 131.618C24.3411 126.578 30.7501 124.978 35.1289 128.044C39.5063 131.109 40.1947 137.679 36.6656 142.719Z" fill="#577590" fill-opacity="0.6"/>
<path d="M66.1225 135.783C62.5934 140.823 56.1843 142.423 51.8069 139.358C47.4294 136.293 46.7397 129.722 50.2689 124.682C53.7971 119.643 60.2075 118.044 64.585 121.109C68.9624 124.174 69.6508 130.744 66.1225 135.783Z" fill="#577590" fill-opacity="0.6"/>
<path d="M73.767 168.698C70.2388 173.737 70.9262 180.308 75.3036 183.373C79.6824 186.439 86.0924 184.838 89.6206 179.799C93.1498 174.759 92.4614 168.189 88.0826 165.123C83.7052 162.058 77.2961 163.658 73.767 168.698Z" fill="#577590" fill-opacity="0.6"/>
<path d="M70.4393 138.806C66.9101 143.846 67.5985 150.416 71.9759 153.481C76.3534 156.546 82.7638 154.947 86.2929 149.907C89.8211 144.868 89.1315 138.297 84.754 135.232C80.3766 132.167 73.9675 133.767 70.4393 138.806Z" fill="#577590" fill-opacity="0.6"/>
<path d="M177.759 218.662C185.799 207.18 188.683 183.093 177.109 174.989C165.535 166.885 143.888 177.833 135.848 189.315C135.724 189.493 135.604 189.667 135.49 189.841C130.739 197.007 135.727 206.54 144.351 207.175C147.191 207.384 150.018 208.34 152.526 210.097C155.034 211.853 156.899 214.182 158.068 216.78C161.615 224.666 172.279 226.093 177.387 219.178C177.511 219.01 177.635 218.839 177.759 218.662Z" fill="#577590" fill-opacity="0.8"/>
<path d="M152.666 170.719C149.137 175.758 142.727 177.359 138.35 174.294C133.971 171.228 133.284 164.657 136.812 159.618C140.341 154.578 146.75 152.978 151.129 156.044C155.506 159.109 156.195 165.679 152.666 170.719Z" fill="#577590" fill-opacity="0.8"/>
<path d="M182.123 163.783C178.594 168.823 172.185 170.423 167.807 167.358C163.43 164.293 162.74 157.722 166.269 152.682C169.797 147.643 176.208 146.044 180.585 149.109C184.963 152.174 185.651 158.744 182.123 163.783Z" fill="#577590" fill-opacity="0.8"/>
<path d="M189.767 196.698C186.239 201.737 186.926 208.308 191.304 211.373C195.682 214.439 202.092 212.837 205.621 207.799C209.15 202.759 208.461 196.189 204.083 193.123C199.705 190.058 193.296 191.658 189.767 196.698Z" fill="#577590" fill-opacity="0.8"/>
<path d="M186.44 166.806C182.91 171.846 183.599 178.416 187.976 181.481C192.354 184.546 198.764 182.947 202.293 177.907C205.821 172.868 205.132 166.297 200.754 163.232C196.377 160.167 189.968 161.767 186.44 166.806Z" fill="#577590" fill-opacity="0.8"/>
<path d="M249.759 110.662C257.799 99.1794 260.683 75.0931 249.109 66.9891C237.535 58.8851 215.888 69.8331 207.848 81.3152C207.724 81.4924 207.604 81.6667 207.49 81.8411C202.739 89.0068 207.727 98.5394 216.351 99.1752C219.191 99.3842 222.017 100.34 224.526 102.097C227.034 103.852 228.899 106.182 230.067 108.78C233.615 116.666 244.278 118.093 249.387 111.178C249.511 111.01 249.635 110.839 249.759 110.662Z" fill="#577590" fill-opacity="0.6"/>
<path d="M224.666 62.719C221.137 67.7579 214.727 69.3593 210.35 66.2942C205.971 63.2282 205.284 56.6571 208.812 51.6182C212.341 46.5781 218.75 44.9779 223.129 48.044C227.506 51.1091 228.195 57.6789 224.666 62.719Z" fill="#577590" fill-opacity="0.6"/>
<path d="M254.122 55.7831C250.593 60.8232 244.184 62.4233 239.807 59.3582C235.429 56.2931 234.74 49.7224 238.269 44.6822C241.797 39.6434 248.208 38.0442 252.585 41.1093C256.962 44.1744 257.651 50.7442 254.122 55.7831Z" fill="#577590" fill-opacity="0.6"/>
<path d="M261.767 88.6979C258.239 93.7367 258.926 100.308 263.304 103.373C267.682 106.439 274.092 104.838 277.621 99.7987C281.15 94.7585 280.461 88.1887 276.083 85.1227C271.705 82.0576 265.296 83.6577 261.767 88.6979Z" fill="#577590" fill-opacity="0.6"/>
<path d="M258.439 58.8061C254.91 63.8462 255.599 70.416 259.976 73.4811C264.353 76.5462 270.764 74.947 274.293 69.9069C277.821 64.868 277.131 58.2973 272.754 55.2322C268.377 52.1671 261.968 53.7672 258.439 58.8061Z" fill="#577590" fill-opacity="0.6"/>
<path d="M137.759 86.6617C145.799 75.1796 148.683 51.0932 137.109 42.9892C125.535 34.8851 103.888 45.8332 95.8478 57.3153C95.7237 57.4925 95.6037 57.6667 95.4895 57.8412C90.739 65.0069 95.727 74.5395 104.351 75.1753C107.191 75.3843 110.017 76.34 112.526 78.0967C115.034 79.8525 116.899 82.1818 118.068 84.7796C121.615 92.6662 132.278 94.0931 137.387 87.1782C137.511 87.0103 137.635 86.8389 137.759 86.6617Z" fill="#577590" fill-opacity="0.6"/>
<path d="M112.666 38.7191C109.137 43.758 102.727 45.3594 98.35 42.2943C93.9712 39.2282 93.2837 32.6571 96.8119 27.6183C100.341 22.5782 106.75 20.978 111.129 24.044C115.506 27.1092 116.195 33.679 112.666 38.7191Z" fill="#577590" fill-opacity="0.6"/>
<path d="M142.123 31.7831C138.593 36.8232 132.184 38.4233 127.807 35.3582C123.429 32.2931 122.74 25.7224 126.269 20.6822C129.797 15.6434 136.208 14.0442 140.585 17.1093C144.962 20.1744 145.651 26.7442 142.123 31.7831Z" fill="#577590" fill-opacity="0.6"/>
<path d="M149.767 64.6979C146.239 69.7367 146.926 76.3078 151.304 79.3729C155.682 82.439 162.092 80.8375 165.621 75.7987C169.15 70.7586 168.461 64.1887 164.083 61.1227C159.705 58.0576 153.296 59.6577 149.767 64.6979Z" fill="#577590" fill-opacity="0.6"/>
<path d="M146.44 34.8061C142.91 39.8463 143.599 46.4161 147.976 49.4812C152.354 52.5463 158.764 50.9471 162.293 45.907C165.821 40.8681 165.132 34.2974 160.754 31.2323C156.377 28.1672 149.968 29.7673 146.44 34.8061Z" fill="#577590" fill-opacity="0.6"/>
</svg>
