<svg width="522" height="471" viewBox="0 0 522 471" fill="none" xmlns="http://www.w3.org/2000/svg">
<path d="M418.833 64.9681C400.055 62.3097 380.672 63.1179 362.507 57.6669C343.365 51.927 326.919 39.6357 308.63 31.5778C280.392 19.1317 247.651 17.2264 218.157 26.3126C188.667 35.3987 162.674 55.4005 146.339 81.5825C125.092 115.63 120.418 158.123 98.4799 191.73C86.2332 210.494 68.9689 225.867 58.6997 245.783C40.0426 281.966 48.1967 327.265 68.9414 362.293C80.459 381.741 95.9865 399.325 115.847 410.117C157.041 432.495 207.482 422.137 254.113 426.962C291.335 430.814 327.614 444.704 364.987 442.826C395.571 441.293 425.484 428.76 448.031 408.04C470.578 387.319 485.586 358.565 489.692 328.222C495.312 286.701 481.115 244.483 486.078 202.88C488.028 186.527 492.925 170.507 493.228 154.041C494.029 110.615 461.753 71.045 418.833 64.9681Z" fill="#577590" fill-opacity="0.6"/>
<path d="M515.012 210.517C507.6 205.97 498.792 204.394 490.713 201.164C477.629 195.931 465.869 185.144 463.458 171.26L460.702 181.118C456.281 186.531 457.335 194.987 461.616 200.51C465.892 206.033 472.638 209.086 479.381 210.917C486.123 212.752 493.128 213.575 499.768 215.746C502.128 216.515 504.731 217.781 505.311 220.191C505.946 222.826 503.688 225.381 501.171 226.385C498.655 227.388 495.856 227.373 493.226 228.023C491.846 228.364 490.207 229.548 490.811 230.834C491.168 231.59 492.109 231.822 492.932 231.951C501.748 233.327 511.649 232.7 518.266 226.718C519.932 225.213 521.374 223.308 521.731 221.089C522.437 216.711 518.795 212.838 515.012 210.517Z" fill="#AD6B4A"/>
<path d="M392.888 167.7C385.856 181.741 387.898 199.843 397.886 211.964C390.717 213.532 382.834 215.57 378.769 221.681C377.871 223.03 377.315 225.08 378.585 226.083C379.141 226.522 379.89 226.604 380.6 226.663C393.712 227.753 406.996 226.718 419.783 223.614C420.994 223.32 422.26 222.975 423.146 222.1C424.267 220.999 424.534 219.31 425.329 217.953C427.011 215.088 430.629 214.186 433.624 212.752C446.552 206.558 448.339 192.302 445.074 179.911C442.969 171.934 440.311 164.106 437.12 156.501C435.862 153.491 434.412 150.386 431.805 148.426C425.149 143.425 415.471 147.082 409.144 150.743C402.273 154.718 396.455 160.578 392.888 167.7Z" fill="#A0603F"/>
<path d="M380.702 226.279C380.718 224.876 381.411 223.5 382.525 222.649" stroke="#47112C" stroke-width="1.5" stroke-linecap="round" stroke-linejoin="round"/>
<path d="M384.979 226.718C385.182 225.279 386.123 223.962 387.425 223.308" stroke="#47112C" stroke-width="1.5" stroke-linecap="round" stroke-linejoin="round"/>
<path d="M399.388 212.548C402.822 213.759 406.479 214.335 410.121 214.237" stroke="#47112C" stroke-width="1.5" stroke-linecap="round" stroke-linejoin="round"/>
<path d="M361.307 141.351C361.883 163.651 364.474 185.963 362.89 208.212C362.577 212.642 361.738 219.635 359.303 223.469C358.453 224.809 357.069 225.711 355.995 226.879C354.917 228.047 354.137 229.783 354.839 231.206C355.674 232.904 357.986 233.111 359.872 232.963C361.875 232.802 363.87 232.504 365.83 232.069C367.343 231.736 368.899 231.289 370.056 230.254C371.102 229.321 371.714 228.008 372.259 226.714C377.037 215.378 378.527 202.917 381.09 190.953C383.909 177.81 386.946 164.709 390.208 151.668C391.741 145.537 393.332 139.305 392.991 132.998C392.419 122.379 384.116 111.442 372.29 114.551C361.851 117.295 361.087 132.86 361.307 141.351Z" fill="#A0603F"/>
<path d="M360.617 232.7C360.052 230.908 360.577 228.823 361.922 227.51" stroke="#47112C" stroke-width="1.5" stroke-linecap="round" stroke-linejoin="round"/>
<path d="M355.893 231.912C355.45 230.513 356.003 228.858 357.198 228.008" stroke="#47112C" stroke-width="1.5" stroke-linecap="round" stroke-linejoin="round"/>
<path d="M360.538 223.712C361.863 223.923 363.2 224.064 364.54 224.143" stroke="#47112C" stroke-width="1.5" stroke-linecap="round" stroke-linejoin="round"/>
<path d="M361.424 122.724C361.816 137.106 367.123 152.048 378.558 160.782C389.294 168.978 403.594 170.578 415.757 176.453C417.423 177.257 419.081 178.17 420.34 179.523C422.154 181.483 422.95 184.16 423.534 186.763C425.067 193.564 425.553 200.6 424.981 207.546C424.597 212.16 424.06 217.616 427.583 220.619C428.854 221.701 430.484 222.265 432.099 222.688C442.216 225.35 453.478 223.245 461.953 217.114C464.403 215.343 466.673 213.198 468.013 210.49C469.244 208.005 469.624 205.198 469.859 202.438C471.357 184.564 467.139 166.552 460.028 150.088C452.918 133.621 442.993 118.533 432.625 103.896C429.983 100.165 427.321 96.4329 424.906 92.5758C422.719 89.0832 419.638 86.0178 417.18 82.6702C412.069 75.7046 407.678 68.0687 405.495 59.6527C405.107 58.1631 404.727 55.5407 402.908 55.3996C401.34 55.2781 398.478 57.046 397.004 57.6222C394.249 58.7001 391.172 59.6409 388.612 61.1618C382.05 65.0543 376.374 70.2638 371.882 76.4259C363.219 88.307 361.036 108.436 361.424 122.724Z" fill="#AD6B4A"/>
<path d="M401.128 157.603C391.862 146.937 387.232 132.37 388.639 118.31C389.31 111.575 391.289 105.049 392.528 98.3929C393.473 93.301 393.986 88.0718 393.296 82.9368C392.606 77.8017 390.643 72.7412 387.122 68.9389C385.782 67.4924 384.618 66.0342 383.508 64.5996C379.083 67.9432 375.163 71.9258 371.882 76.4259C363.219 88.307 361.036 108.436 361.424 122.724C361.816 137.106 367.123 152.048 378.558 160.782C389.294 168.978 403.594 170.578 415.757 176.453C416.655 176.889 417.541 177.355 418.368 177.9C417.043 174.995 415.138 172.298 413.037 169.88C409.293 165.576 404.868 161.911 401.128 157.603Z" fill="#E0AE89"/>
<path d="M365.861 20.105C364.254 18.1254 362.051 15.9264 359.574 16.5418C358.288 16.8593 357.324 17.8785 356.344 18.7644C353.572 21.2809 350.139 23.0566 346.489 23.8641C345.462 24.0915 344.38 24.2601 343.53 24.8755C342.714 25.4635 342.217 26.3807 341.742 27.2705C339.026 32.3938 336.305 37.5171 333.585 42.6404C332.926 43.8791 332.323 45.5607 333.33 46.5367C333.789 46.9797 334.459 47.113 335.094 47.1796C341.734 47.8773 347.551 43.2127 353.506 40.1905C354.439 39.7162 355.466 39.2693 356.489 39.4574C357.767 39.6926 358.68 40.8451 359.891 41.3155C361.291 41.8603 362.925 41.3978 364.117 40.4884C365.312 39.5829 366.14 38.2815 366.88 36.9801C368.542 34.0598 370.103 30.6181 369.954 27.1764C369.824 24.1817 367.692 22.3589 365.861 20.105Z" fill="#935535"/>
<path d="M369.06 22.8998C365.995 22.7548 362.89 22.9469 360.115 24.4208C358.986 25.0205 358.073 25.9456 357.179 26.8589C353.674 30.426 350.049 34.1381 347.849 38.693C345.517 43.5223 346.34 48.5515 346.732 53.7376C347.011 57.3948 347.211 61.2598 345.564 64.5329C343.988 67.6688 341.186 69.9933 340.374 73.5408C339.477 77.4528 340.382 82.2665 341.244 86.1354C341.738 88.3619 342.597 90.8 344.655 91.7722C346.85 92.807 349.453 91.7369 351.86 92.0348C354.811 92.3994 357.12 94.7474 359.931 95.7156C364.928 97.4403 370.252 94.5631 374.654 91.635C380.087 88.0248 385.022 83.5404 390.482 80.036C395.374 76.9001 401.062 75.4263 405.605 71.428C413.833 64.1919 415.887 52.8007 414.527 42.2249C413.805 36.5881 411.222 30.9552 406.554 27.7174C401.399 24.1385 394.696 23.9896 388.42 23.966C383.105 23.9464 377.797 23.6093 372.506 23.1507C371.377 23.0527 370.22 22.9508 369.06 22.8998Z" fill="#AD6B4A"/>
<path d="M384.25 70.0874C379.432 68.4371 373.701 69.4406 369.542 66.5046C366.097 64.0743 364.748 59.4645 365.124 55.2624C365.556 50.4253 367.794 45.6822 368.574 40.7902C368.723 39.8612 368.852 38.8851 368.539 37.9953C368.225 37.1055 367.327 36.349 366.402 36.5254C365.544 36.6861 365.007 37.5328 364.611 38.3128C362.318 42.8364 361.15 47.8303 359.942 52.7576C359.362 55.1134 358.747 57.5203 357.387 59.5351C355.278 62.6631 349.731 65.4071 345.65 64.3487C345.619 64.4114 345.596 64.4741 345.564 64.5329C343.988 67.6688 341.186 69.9933 340.374 73.5408C339.477 77.4529 340.382 82.2665 341.244 86.1354C341.738 88.3619 342.597 90.8001 344.655 91.7722C346.85 92.807 349.453 91.7369 351.86 92.0348C354.811 92.3994 357.12 94.7474 359.931 95.7156C364.928 97.4403 370.252 94.5631 374.654 91.635C380.087 88.0248 385.022 83.5404 390.482 80.0361C391.188 79.5853 391.905 79.1737 392.634 78.7778C391.258 74.8383 388.213 71.4476 384.25 70.0874Z" fill="#F0C198"/>
<path d="M401.442 20.9712C400.015 20.6263 398.588 20.1951 397.122 20.2147C395.656 20.2343 394.1 20.7948 393.308 22.0257C392.469 23.3349 392.677 25.0949 393.387 26.4787C394.092 27.8624 395.225 28.9678 396.272 30.1202C400.344 34.6242 403.265 40.163 404.668 46.0702C405.146 48.0694 405.55 50.2802 407.126 51.6051C408.788 52.9967 411.332 52.9104 413.253 51.8991C415.17 50.8917 416.577 49.1317 417.792 47.3324C419.552 44.7257 421.03 41.9308 422.194 39.0105C423.699 35.2278 424.675 31.0061 423.538 27.098C420.34 16.1106 409.09 22.8214 401.442 20.9712Z" fill="#935535"/>
<path d="M381.266 58.4492C381.266 60.4131 379.675 62.0046 377.711 62.0046C375.747 62.0046 374.156 60.4131 374.156 58.4492C374.156 56.4854 375.747 54.8939 377.711 54.8939C379.675 54.8939 381.266 56.4854 381.266 58.4492Z" fill="#3C1A2B"/>
<path d="M355.928 56.944C355.928 58.9079 354.909 60.4994 353.655 60.4994C352.397 60.4994 351.381 58.9079 351.381 56.944C351.381 54.9802 352.397 53.3887 353.655 53.3887C354.909 53.3887 355.928 54.9802 355.928 56.944Z" fill="#3C1A2B"/>
<path d="M349.935 79.3658C349.684 83.5326 350.617 87.7622 352.6 91.4351" stroke="#47112C" stroke-width="1.5" stroke-linecap="round" stroke-linejoin="round"/>
<path d="M344.381 71.2555C343.381 72.2041 343.342 73.7603 343.377 75.1362C343.385 75.6183 343.405 76.1201 343.659 76.5278C344.11 77.2529 345.094 77.3823 345.945 77.4136C346.348 77.4293 346.772 77.445 347.121 77.6528C347.658 77.9781 347.842 78.6563 348.03 79.256C348.226 79.8793 348.489 80.4986 348.947 80.9611C349.41 81.4237 350.104 81.6981 350.727 81.5099C352.342 81.0317 352.385 78.1075 354.067 78.0016C354.388 77.9781 354.698 78.08 355.007 78.1584C355.991 78.4054 357.093 78.4171 357.943 77.8684C359.362 76.9511 359.468 74.7285 358.453 73.3762C356.622 70.9419 346.721 69.0486 344.381 71.2555Z" fill="#F97A5A"/>
<path d="M353.851 77.9938C354.38 77.4293 354.941 76.8806 355.623 76.516C356.301 76.1515 357.124 75.9907 357.857 76.2377" stroke="#47112C" stroke-width="1.5" stroke-linecap="round" stroke-linejoin="round"/>
<path d="M347.163 77.4725C346.583 76.4611 345.96 75.4067 344.957 74.803" stroke="#47112C" stroke-width="1.5" stroke-linecap="round" stroke-linejoin="round"/>
<path d="M346.685 82.8701C346.685 83.2151 346.407 83.4973 346.062 83.4973C345.717 83.4973 345.435 83.2151 345.435 82.8701C345.435 82.5252 345.717 82.2429 346.062 82.2429C346.407 82.2429 346.685 82.5252 346.685 82.8701Z" fill="#7A4024"/>
<path d="M345.435 87.0291C345.435 87.374 345.156 87.6563 344.808 87.6563C344.463 87.6563 344.184 87.374 344.184 87.0291C344.184 86.6841 344.463 86.4019 344.808 86.4019C345.156 86.4019 345.435 86.6841 345.435 87.0291Z" fill="#7A4024"/>
<path d="M357.179 84.1206C357.179 84.4695 356.901 84.7478 356.552 84.7478C356.207 84.7478 355.929 84.4695 355.929 84.1206C355.929 83.7757 356.207 83.4973 356.552 83.4973C356.901 83.4973 357.179 83.7757 357.179 84.1206Z" fill="#7A4024"/>
<path d="M359.754 88.2796C359.754 88.6285 359.472 88.9068 359.127 88.9068C358.782 88.9068 358.5 88.6285 358.5 88.2796C358.5 87.9346 358.782 87.6563 359.127 87.6563C359.472 87.6563 359.754 87.9346 359.754 88.2796Z" fill="#7A4024"/>
<path d="M361.847 85.3985C361.847 85.7474 361.565 86.0257 361.22 86.0257C360.875 86.0257 360.593 85.7474 360.593 85.3985C360.593 85.0535 360.875 84.7752 361.22 84.7752C361.565 84.7752 361.847 85.0535 361.847 85.3985Z" fill="#7A4024"/>
<path d="M394.355 146.223C394.931 168.52 397.526 190.832 395.942 213.085C395.629 217.514 394.79 224.507 392.356 228.341C391.505 229.681 390.121 230.583 389.047 231.751C387.969 232.919 387.185 234.652 387.887 236.079C388.726 237.776 391.039 237.984 392.924 237.831C394.927 237.674 396.919 237.372 398.882 236.941C400.395 236.604 401.952 236.157 403.108 235.126C404.155 234.193 404.766 232.88 405.311 231.587C410.089 220.25 411.579 207.789 414.143 195.825C416.961 182.678 419.999 169.582 423.26 156.536C424.793 150.41 426.384 144.177 426.043 137.866C425.471 127.247 417.169 116.311 405.342 119.419C394.9 122.167 394.135 137.729 394.355 146.223Z" fill="#AD6B4A"/>
<path d="M393.822 237.639C393.43 236.055 394.104 234.268 395.441 233.339" stroke="#47112C" stroke-width="1.5" stroke-linecap="round" stroke-linejoin="round"/>
<path d="M389.114 237.372C388.773 235.742 389.278 233.95 390.427 232.739" stroke="#47112C" stroke-width="1.5" stroke-linecap="round" stroke-linejoin="round"/>
<path d="M394.915 228.925C396.232 229.211 397.549 229.493 398.87 229.779" stroke="#47112C" stroke-width="1.5" stroke-linecap="round" stroke-linejoin="round"/>
<path d="M395.487 168.625C395.107 158.297 394.723 147.968 394.343 137.639" stroke="#47112C" stroke-width="1.5" stroke-linecap="round" stroke-linejoin="round"/>
<path d="M364.371 141.519C368.311 151.888 376.472 160.582 386.569 165.172C386.805 165.278 387.083 165.45 387.056 165.709C387.032 165.964 386.495 165.862 386.664 165.662" stroke="#47112C" stroke-width="1.5" stroke-linecap="round" stroke-linejoin="round"/>
<path d="M423.444 179.546C416.412 193.587 418.454 211.689 428.442 223.81C421.273 225.378 413.39 227.416 409.325 233.523C408.427 234.871 407.871 236.925 409.141 237.929C409.697 238.368 410.446 238.45 411.152 238.509C424.264 239.599 437.552 238.564 450.339 235.456C451.546 235.162 452.812 234.817 453.702 233.946C454.819 232.841 455.09 231.155 455.885 229.799C457.567 226.934 461.181 226.032 464.18 224.597C477.107 218.404 478.891 204.147 475.626 191.753C473.525 183.78 470.867 175.952 467.676 168.347C466.414 165.337 464.968 162.228 462.357 160.268C455.701 155.27 446.027 158.928 439.7 162.589C432.828 166.564 427.011 172.424 423.444 179.546Z" fill="#AD6B4A"/>
<path d="M411.258 238.125C411.273 236.722 411.963 235.346 413.08 234.495" stroke="#47112C" stroke-width="1.5" stroke-linecap="round" stroke-linejoin="round"/>
<path d="M415.534 238.564C415.734 237.125 416.679 235.808 417.976 235.154" stroke="#47112C" stroke-width="1.5" stroke-linecap="round" stroke-linejoin="round"/>
<path d="M429.943 224.394C433.377 225.605 437.034 226.181 440.676 226.083" stroke="#47112C" stroke-width="1.5" stroke-linecap="round" stroke-linejoin="round"/>
<path d="M475.834 191.941C477.433 197.833 477.641 204.093 476.437 210.078" stroke="#47112C" stroke-width="1.5" stroke-linecap="round" stroke-linejoin="round"/>
<path d="M432.625 103.896C430.559 100.976 428.454 98.0283 426.396 95.0374C425.875 100.682 424.436 106.499 426.098 111.854C427.447 116.189 430.684 119.682 432.48 123.852C436.145 132.378 433.742 143.471 440.108 150.225C445.262 155.694 454 155.784 460.205 160.025C461.981 161.236 463.525 162.769 465.203 164.106C463.737 159.339 462 154.651 460.029 150.088C452.918 133.621 442.993 118.533 432.625 103.896Z" fill="#F0C198"/>
<path d="M454.416 183.243C456.042 185.877 458.833 188.55 461.805 187.688C463.514 187.186 464.721 185.579 465.207 183.866C465.693 182.149 465.576 180.33 465.407 178.558C465.011 174.29 464.302 169.884 461.879 166.348C459.312 162.597 452.773 158.802 450.088 164.027C447.423 169.202 451.715 178.856 454.416 183.243Z" fill="#F0C198"/>
<path d="M376.119 44.3494C379.749 42.2523 385.025 43.9574 386.738 47.7832" stroke="#47112C" stroke-width="1.5" stroke-linecap="round" stroke-linejoin="round"/>
<path d="M349.174 44.1534C349.731 43.2088 350.307 42.2445 351.173 41.5742C352.04 40.9039 353.274 40.5903 354.246 41.0959C355.175 41.582 355.744 42.7305 356.779 42.8991" stroke="#47112C" stroke-width="1.5" stroke-linecap="round" stroke-linejoin="round"/>
<path d="M381.294 87.1428C383.226 84.1402 384.003 80.4085 383.426 76.8845" stroke="#47112C" stroke-width="1.5" stroke-linecap="round" stroke-linejoin="round"/>
<path d="M381.2 78.1466C382.38 76.8766 384.175 76.2063 385.9 76.3905" stroke="#47112C" stroke-width="1.5" stroke-linecap="round" stroke-linejoin="round"/>
<path d="M359.241 25.0871C357.614 24.9734 355.944 24.9342 354.392 25.4438C350.676 26.6629 348.7 30.5632 346.501 33.7971C345.45 35.3455 344.271 36.8076 342.981 38.1599C341.946 39.2497 340.778 40.3041 339.332 40.7118" stroke="#47112C" stroke-width="1.5" stroke-linecap="round" stroke-linejoin="round"/>
<path d="M407.471 23.4957C410.857 26.4905 411.132 31.6451 413.425 35.5415" stroke="#47112C" stroke-width="1.5" stroke-linecap="round" stroke-linejoin="round"/>
<path d="M167.97 308.068C178.993 307.554 183.681 295.046 184.183 285.732C184.547 278.955 183.207 272.197 181.497 265.627C181.258 264.71 181.035 263.647 181.592 262.879C183.414 260.343 188.177 272.471 188.6 273.663C190.744 279.719 191.709 286.202 191.376 292.623C190.964 300.565 187.42 308.26 182.258 314.261C176.472 320.984 167.527 324.261 158.966 321.517C155.211 320.317 151.522 318.408 149.17 315.249C146.513 311.682 145.544 304.606 151.016 303.234C156.222 301.929 162.298 308.334 167.97 308.068Z" fill="#D4783A"/>
<path d="M188.6 273.663C188.177 272.471 183.414 260.343 181.591 262.879C181.035 263.647 181.258 264.71 181.497 265.627C183.206 272.197 184.547 278.955 184.182 285.732C183.865 291.573 181.905 298.672 177.765 303.277C177.942 303.677 178.197 304.018 178.592 304.195C179.337 304.524 180.18 304.112 180.882 303.709C181.971 303.089 183.057 302.47 184.143 301.851C184.649 301.561 185.268 301.267 185.782 301.541C186.154 301.737 186.326 302.168 186.507 302.548C186.918 303.419 187.549 304.206 188.337 304.743C190.066 300.91 191.16 296.802 191.375 292.623C191.708 286.202 190.744 279.719 188.6 273.663Z" fill="#D99A5C"/>
<path d="M131.994 371.389C131.288 376.434 130.379 381.526 130.939 386.587C131.308 389.907 132.299 393.125 132.86 396.414C134.788 407.75 131.527 419.255 130.802 430.728C130.473 435.934 130.97 447.368 125.102 449.748C122.747 450.7 120.108 450.543 117.576 450.336C116.008 450.206 114.182 449.893 113.46 448.493C113.088 447.772 113.115 446.914 113.213 446.11C113.935 440.36 117.968 437.275 117.929 431.101C117.898 426.111 117.866 421.121 117.839 416.127C117.776 406.108 113.331 399.777 109.917 390.538C106.142 380.327 103.155 369.849 100.168 359.387C97.6554 350.594 95.1349 341.281 97.4555 332.433C99.7956 323.508 108.455 311.497 118.388 310.372C125.585 309.557 127.411 316.538 129.265 322.273C134.357 338.051 134.263 355.122 131.994 371.389Z" fill="#D4783A"/>
<path d="M116.243 449.967C115.828 448.517 115.89 446.933 116.42 445.518" stroke="#790D00" stroke-width="1.5" stroke-linecap="round" stroke-linejoin="round"/>
<path d="M120.241 450.104C120.343 448.776 120.712 447.47 121.319 446.286" stroke="#790D00" stroke-width="1.5" stroke-linecap="round" stroke-linejoin="round"/>
<path d="M119.395 441.002C120.861 440.787 122.35 440.716 123.832 440.791" stroke="#790D00" stroke-width="1.5" stroke-linecap="round" stroke-linejoin="round"/>
<path d="M117.815 400.631C119.763 402 122.28 402.533 124.616 402.07" stroke="#790D00" stroke-width="1.5" stroke-linecap="round" stroke-linejoin="round"/>
<path d="M54.5246 350.198C54.603 350.559 54.6814 350.92 54.7677 351.284C56.5003 358.826 59.3422 366.286 64.3361 372.389C75.8096 386.418 97.6159 387.614 112.986 378.52C118.27 375.395 124.585 371.55 129.049 367.465C133.416 363.471 136.564 358.387 141.621 355.063C146.234 352.033 151.918 350.81 156.712 348.046C165.939 342.731 170.812 331.665 168.911 321.618C167.01 311.576 158.762 303.007 148.567 299.679C142.726 297.778 135.627 296.696 129.512 296.645C123.385 296.594 118.078 296.32 112.637 293.035C109.591 291.196 106.941 288.754 103.884 286.935C99.6739 284.427 95.6285 284.854 91.0148 284.419C86.3462 283.984 81.5914 284.905 77.2443 286.59C73.2382 288.143 70.6393 289.911 67.8875 293.376C55.0695 309.53 50.1971 330.101 54.5246 350.198Z" fill="#D99A5C"/>
<path d="M78.585 350.281C76.5388 345.232 72.8385 340.928 68.3032 337.937C66.01 336.424 63.4935 335.236 60.8593 334.456C58.0566 333.621 55.587 332.324 53.192 330.434C51.6358 342.594 50.9106 355.737 51.9376 367.963C53.2038 383.059 55.8026 398.001 57.1432 413.089C58.2134 425.099 60.6633 439.913 55.783 451.386C54.2269 455.043 51.0635 456.141 50.5461 460.402C50.4324 461.327 50.4246 462.35 50.9929 463.087C51.628 463.914 52.7726 464.122 53.8153 464.224C56.3279 464.471 58.8719 464.467 61.3846 464.212C62.6624 464.083 63.9795 463.871 65.0536 463.169C66.5392 462.193 67.3193 460.437 67.7465 458.709C68.4443 455.886 68.8127 453.134 69.0401 450.249C70.8589 427.518 73.9517 404.885 78.2949 382.498C80.3725 371.793 82.6813 360.382 78.585 350.281Z" fill="#D99A5C"/>
<path d="M67.3193 435.084C66.1237 436.569 64.0266 437.863 62.4037 436.855C61.7883 436.475 61.3885 435.836 60.8358 435.37C60.2243 434.856 59.4677 434.692 58.7073 434.77C58.6602 440.607 57.939 446.322 55.783 451.386C54.2269 455.044 51.0635 456.141 50.5461 460.402C50.4324 461.327 50.4246 462.35 50.9929 463.087C51.628 463.914 52.7726 464.122 53.8153 464.224C56.3279 464.471 58.8719 464.467 61.3846 464.212C62.6624 464.083 63.9795 463.871 65.0536 463.169C66.5392 462.193 67.3193 460.437 67.7465 458.709C68.4443 455.886 68.8127 453.135 69.0401 450.25C69.5458 443.954 70.1573 437.663 70.855 431.387C69.3458 432.108 68.3972 433.743 67.3193 435.084Z" fill="#D4783A"/>
<path d="M53.9289 463.585C53.5487 462.048 53.6976 460.386 54.3523 458.944" stroke="#790D00" stroke-width="1.5" stroke-linecap="round" stroke-linejoin="round"/>
<path d="M59.9813 464.232C59.6402 462.334 59.9186 460.331 60.7653 458.599" stroke="#790D00" stroke-width="1.5" stroke-linecap="round" stroke-linejoin="round"/>
<path d="M58.3467 452.876C60.0479 452.903 61.7531 452.931 63.4543 452.958" stroke="#790D00" stroke-width="1.5" stroke-linecap="round" stroke-linejoin="round"/>
<path d="M103.539 350.206C105.667 345.193 109.434 340.947 114.013 338.027C116.333 336.549 118.865 335.405 121.515 334.664C124.33 333.876 127.14 333.86 129.567 332.01C130.931 344.189 131.123 356.102 129.904 368.308C128.403 383.38 125.568 398.284 123.985 413.348C122.727 425.339 120.041 440.109 124.741 451.661C126.239 455.341 129.386 456.49 129.837 460.759C129.935 461.684 129.927 462.707 129.347 463.436C128.697 464.251 127.548 464.439 126.509 464.526C123.989 464.737 121.449 464.69 118.936 464.396C117.662 464.247 116.353 464.016 115.287 463.295C113.817 462.299 113.064 460.527 112.664 458.795C112.013 455.957 111.688 453.205 111.504 450.316C110.046 427.557 107.31 404.877 103.319 382.424C101.41 371.691 99.2856 360.245 103.539 350.206Z" fill="#D99A5C"/>
<path d="M111.335 434.895C110.998 434.707 110.642 434.601 110.277 434.527C110.751 439.783 111.167 445.048 111.504 450.316C111.688 453.205 112.014 455.957 112.664 458.795C113.064 460.527 113.817 462.299 115.287 463.295C116.353 464.016 117.662 464.247 118.936 464.396C121.449 464.69 123.989 464.737 126.509 464.526C127.548 464.439 128.697 464.251 129.347 463.436C129.927 462.707 129.935 461.684 129.837 460.759C129.387 456.49 126.239 455.341 124.741 451.661C123.401 448.364 122.676 444.801 122.331 441.116C119.932 440.755 117.294 440.893 115.412 439.38C113.825 438.106 113.119 435.875 111.335 434.895Z" fill="#D4783A"/>
<path d="M126.403 463.887C126.811 462.358 126.685 460.692 126.05 459.238" stroke="#790D00" stroke-width="1.5" stroke-linecap="round" stroke-linejoin="round"/>
<path d="M120.343 464.439C120.711 462.546 120.465 460.539 119.645 458.795" stroke="#790D00" stroke-width="1.5" stroke-linecap="round" stroke-linejoin="round"/>
<path d="M122.154 453.107C120.453 453.111 118.748 453.111 117.046 453.111" stroke="#790D00" stroke-width="1.5" stroke-linecap="round" stroke-linejoin="round"/>
<path d="M78.2121 381.154C70.9407 375.983 65.4176 368.395 62.7285 359.888" stroke="#790D00" stroke-width="1.5" stroke-linecap="round" stroke-linejoin="round"/>
<path d="M173.309 372.993C172.603 378.037 171.694 383.129 172.258 388.194C172.623 391.51 173.618 394.728 174.179 398.021C176.107 409.357 172.842 420.858 172.117 432.336C171.792 437.541 172.289 448.976 166.417 451.351C164.065 452.304 161.423 452.151 158.895 451.939C157.323 451.81 155.497 451.496 154.775 450.097C154.407 449.375 154.43 448.517 154.532 447.713C155.25 441.963 159.283 438.878 159.244 432.704C159.217 427.714 159.185 422.724 159.154 417.734C159.091 407.715 154.646 401.384 151.232 392.141C147.457 381.934 144.474 371.452 141.483 360.99C138.974 352.198 136.45 342.884 138.77 334.041C141.115 325.111 149.774 313.101 159.703 311.976C166.9 311.16 168.73 318.142 170.58 323.88C175.672 339.654 175.582 356.725 173.309 372.993Z" fill="#D99A5C"/>
<path d="M157.558 451.574C157.143 450.12 157.206 448.536 157.735 447.121" stroke="#790D00" stroke-width="1.5" stroke-linecap="round" stroke-linejoin="round"/>
<path d="M161.56 451.708C161.658 450.379 162.027 449.074 162.638 447.89" stroke="#790D00" stroke-width="1.5" stroke-linecap="round" stroke-linejoin="round"/>
<path d="M160.71 442.606C162.176 442.394 163.666 442.32 165.151 442.394" stroke="#790D00" stroke-width="1.5" stroke-linecap="round" stroke-linejoin="round"/>
<path d="M159.131 402.235C161.079 403.607 163.595 404.14 165.936 403.677" stroke="#790D00" stroke-width="1.5" stroke-linecap="round" stroke-linejoin="round"/>
<path d="M139.253 356.748C142.255 353.526 145.964 350.963 150.04 349.301C151.369 348.756 152.788 348.274 153.752 347.211" stroke="#790D00" stroke-width="1.5" stroke-linecap="round" stroke-linejoin="round"/>
<path d="M65.4419 232.571C59.5151 237.392 58.0961 245.377 56.2067 252.182C55.0699 256.262 53.4824 260.206 52.377 264.294C51.346 268.104 51.5577 272.161 51.4284 276.128C51.3735 277.822 51.3186 279.523 51.593 281.193C52.6906 287.876 58.0804 290.404 61.7024 295.344C65.1244 300.004 67.4685 304.442 73.0896 307.052C79.4516 310.012 87.0993 309.149 93.4456 306.155C96.2365 304.837 99.392 303.175 101.262 300.741C102.967 298.523 104.241 296.359 106.342 294.403C110.227 290.793 115.013 287.731 117.282 282.745C119.525 277.818 118.509 272.71 117.674 267.61C116.937 263.099 117.216 258.685 115.871 254.142C114.452 249.348 112.927 244.558 110.67 240.097C109.254 237.302 107.447 234.534 104.707 233.013C99.0667 229.885 90.5057 231.81 84.226 230.987C78.1424 230.195 70.6789 228.306 65.4419 232.571Z" fill="#D99A5C"/>
<path d="M85.6171 263.298C84.9036 265.717 84.6332 268.422 85.7543 270.68C86.6598 272.51 88.3453 273.8 89.6702 275.352C91.3283 277.3 92.4181 279.664 93.9311 281.726C95.4481 283.788 97.6158 285.626 100.168 285.736C102.233 285.826 104.186 284.768 105.804 283.486C107.137 282.424 108.352 281.165 109.101 279.637C110.838 276.097 109.826 271.895 108.788 268.092C108.047 265.388 107.306 262.683 106.565 259.978C106.055 258.12 105.538 256.247 104.656 254.534C103.774 252.821 102.48 251.26 100.76 250.394C97.2434 248.618 93.8802 251.323 91.4695 253.671C88.7451 256.313 86.6911 259.657 85.6171 263.298Z" fill="#D4783A"/>
<path d="M70.9998 230.458C70.3256 228.909 68.9497 227.812 66.5978 227.784C65.0573 227.769 63.6461 228.596 62.3447 229.419C60.2829 230.72 58.1975 232.104 55.8142 232.625C54.1953 232.978 52.5098 232.915 50.8908 233.272C44.031 234.781 40.9657 242.946 42.4631 249.234C42.9766 251.394 43.886 253.44 44.4466 255.588C45.3795 259.175 45.3207 262.934 45.4696 266.638C45.5324 268.163 46.0184 270.119 47.5393 270.272C48.0607 270.323 48.5742 270.119 49.0407 269.884C51.6631 268.563 53.5642 266.093 54.7637 263.408C56.7511 258.967 57.4214 255.396 60.2986 251.382C63.505 246.902 67.7659 243.142 70.3178 238.203C71.4663 235.981 71.9916 232.735 70.9998 230.458Z" fill="#AD622E"/>
<path d="M102.849 231.983C105.209 231.83 107.478 232.81 109.595 233.86C111.708 234.911 113.84 236.075 116.188 236.334C119.403 236.69 123.072 235.401 125.651 237.353C128.301 239.352 127.956 243.378 127.246 246.623C125.568 254.295 123.079 262.271 117.227 267.512C116.643 268.038 115.961 268.555 115.177 268.559C114.119 268.571 113.295 267.673 112.688 266.811C111.265 264.78 110.203 262.499 109.56 260.104C108.913 257.705 108.686 255.18 107.776 252.868C106.581 249.838 104.303 247.388 102.355 244.781C99.6855 241.218 94.8601 232.516 102.849 231.983Z" fill="#AD622E"/>
<path d="M100.293 269.766C100.329 271.73 98.7685 273.349 96.8047 273.384C94.8408 273.42 93.2219 271.86 93.1866 269.896C93.1513 267.932 94.7115 266.309 96.6753 266.274C98.6392 266.238 100.258 267.802 100.293 269.766Z" fill="#412317"/>
<path d="M72.1442 267.849C72.1795 269.813 70.6194 271.432 68.6555 271.467C66.6917 271.503 65.0688 269.939 65.0335 267.975C64.9983 266.011 66.5623 264.392 68.5262 264.357C70.49 264.322 72.1089 265.886 72.1442 267.849Z" fill="#412317"/>
<path d="M61.2356 258.755C64.2147 255.698 69.3262 254.996 73.0188 257.14" stroke="#790D00" stroke-width="1.5" stroke-linecap="round" stroke-linejoin="round"/>
<path d="M91.8965 258.896C96.4514 257.826 101.547 259.586 104.475 263.24" stroke="#790D00" stroke-width="1.5" stroke-linecap="round" stroke-linejoin="round"/>
<path d="M71.4581 292.043C73.5317 293.289 76.3383 293.627 78.3022 292.219C79.1254 291.627 79.7996 290.745 80.7874 290.514C82.2456 290.173 83.5509 291.381 84.8484 292.129C87.2435 293.513 90.2696 293.419 92.8881 292.517C94.4717 291.972 95.9338 291.039 97.3881 290.212C97.7252 290.6 98.0349 291.008 98.3171 291.439C98.3093 291.428 94.7579 294.857 94.4247 295.144C93.0253 296.363 91.4808 297.425 89.8698 298.346C83.6646 301.886 75.5936 301.07 70.8348 295.661C69.3178 293.94 68.1497 291.98 67.0404 289.985C66.7738 289.507 66.5034 289.009 66.4524 288.46C66.8091 288.311 67.1658 288.162 67.5225 288.009C68.1575 288.762 68.8043 289.526 69.4981 290.224C70.1096 290.84 70.7094 291.592 71.4581 292.043Z" fill="#412317"/>
<path d="M75.9821 297.354C75.5548 297.578 75.1707 297.895 74.861 298.26C73.1441 300.255 72.3249 303.513 72.462 306.092C72.5444 307.585 72.9481 309.098 73.8654 310.282C74.7826 311.462 76.2722 312.254 77.7578 312.093C79.7295 311.878 81.172 310.149 82.1285 308.412C83.6298 305.684 85.284 303.395 87.2008 300.945C87.4517 300.628 87.7065 300.298 87.8319 299.91C88.1965 298.797 87.3184 297.582 86.2248 297.166C85.1272 296.751 83.9081 296.931 82.7557 297.158C81.6071 297.386 80.4233 297.656 79.2787 297.401C78.7378 297.284 78.2204 297.049 77.6677 296.99C77.0836 296.927 76.4995 297.072 75.9821 297.354Z" fill="#F97B37"/>
<path d="M79.8118 298.307C77.9694 300.8 77.0639 303.971 77.3148 307.06" stroke="#790D00" stroke-width="1.5" stroke-linecap="round" stroke-linejoin="round"/>
<path d="M96.7651 290.04C97.9137 290.279 98.8544 291.294 99.0112 292.459" stroke="#790D00" stroke-width="1.5" stroke-linecap="round" stroke-linejoin="round"/>
<path d="M68.2869 287.802C66.6366 288.045 65.1509 289.193 64.5002 290.73" stroke="#790D00" stroke-width="1.5" stroke-linecap="round" stroke-linejoin="round"/>
<path d="M77.1501 278.535C73.3283 279.147 71.7015 281.726 72.8696 284.681C73.3087 285.795 74.3749 286.794 75.7899 286.99C76.3858 287.073 77.06 287.029 77.5186 287.343C77.7616 287.508 77.8988 287.747 78.0321 287.982C78.624 289.029 79.3296 290.585 81.1327 290.444C83.3318 290.33 83.8688 287.598 85.8876 286.837C86.7343 286.52 87.726 286.606 88.5884 286.324C90.5287 285.693 90.9873 283.623 90.8737 281.945C90.6737 278.994 86.1306 278.527 83.2926 278.417C81.56 278.347 79.2198 278.21 77.1501 278.535Z" fill="#814120"/>
<path d="M77.9696 287.174C78.2675 285.759 76.9935 284.289 75.2727 284.062" stroke="#532320" stroke-width="1.5" stroke-linecap="round" stroke-linejoin="round"/>
<path d="M84.7778 287.3C84.9464 285.932 86.2203 284.662 87.8471 284.254" stroke="#532320" stroke-width="1.5" stroke-linecap="round" stroke-linejoin="round"/>
<path d="M86.8363 289.769C87.0676 290.024 87.048 290.42 86.7893 290.651C86.5345 290.883 86.1386 290.863 85.9073 290.608C85.676 290.35 85.6957 289.954 85.9504 289.722C86.2092 289.491 86.6051 289.511 86.8363 289.769Z" fill="#AC3E00"/>
<path d="M90.7677 290.522C90.999 290.777 90.9794 291.173 90.7207 291.404C90.4659 291.635 90.07 291.616 89.8387 291.361C89.6074 291.102 89.627 290.706 89.8818 290.475C90.1406 290.244 90.5365 290.263 90.7677 290.522Z" fill="#AC3E00"/>
<path d="M76.519 290.475C76.7502 290.73 76.7306 291.126 76.4719 291.357C76.2171 291.588 75.8212 291.569 75.5899 291.314C75.3587 291.055 75.3783 290.659 75.6331 290.428C75.8918 290.197 76.2877 290.216 76.519 290.475Z" fill="#AC3E00"/>
<path d="M71.9956 288.868C72.2269 289.127 72.2034 289.523 71.9486 289.754C71.6899 289.985 71.294 289.965 71.0627 289.707C70.8314 289.452 70.851 289.056 71.1097 288.825C71.3645 288.594 71.7604 288.613 71.9956 288.868Z" fill="#AC3E00"/>
<path d="M75.5352 287.621C75.7664 287.876 75.7468 288.272 75.492 288.503C75.2333 288.739 74.8374 288.715 74.6061 288.46C74.3749 288.201 74.3945 287.806 74.6532 287.574C74.908 287.343 75.3039 287.363 75.5352 287.621Z" fill="#AC3E00"/>
<path d="M91.1597 287.594C91.391 287.849 91.3674 288.245 91.1126 288.476C90.8539 288.707 90.458 288.688 90.2267 288.429C89.9955 288.174 90.0151 287.778 90.2738 287.547C90.5325 287.316 90.9284 287.335 91.1597 287.594Z" fill="#AC3E00"/>
<path d="M113.707 237.521C114.538 240.943 115.953 244.22 117.87 247.176C118.458 248.085 119.324 249.069 120.394 248.92" stroke="#790D00" stroke-width="1.5" stroke-linecap="round" stroke-linejoin="round"/>
<path d="M54.4306 236.537C51.5181 239.999 49.7307 244.389 49.3896 248.901" stroke="#790D00" stroke-width="1.5" stroke-linecap="round" stroke-linejoin="round"/>
<path d="M98.8425 113.375C110.159 108.302 124.357 115.209 117.435 128.917C115.282 133.166 111.688 136.479 108.168 139.693C96.7767 150.088 85.703 162.946 70.8898 168.375C62.1641 171.569 52.5016 170.433 43.333 171.922C37.4219 172.882 31.7419 174.933 25.8621 176.046C25.035 176.203 24.0511 176.297 23.471 175.685C23.0947 175.285 23.0084 174.697 22.9732 174.153C22.6792 169.833 24.9723 164.811 29.2528 164.149C31.6283 163.78 33.9724 164.839 36.3635 165.098C41.0085 165.607 45.3988 163.114 49.4128 160.715C55.9982 156.772 62.7247 152.711 67.5775 146.764C71.3092 142.19 73.7513 136.714 77.0323 131.802C82.3908 123.786 90.0424 117.318 98.8425 113.375Z" fill="#E0AF82"/>
<path d="M228.238 136.165C236.631 136.737 244.984 135.04 253.329 133.985C256.504 133.586 259.891 133.311 262.76 134.73C264.96 135.82 266.578 137.772 268.338 139.485C273.662 144.675 281.799 147.991 288.604 144.996C291.344 143.789 293.79 140.273 291.842 137.999C290.619 136.569 288.447 136.631 286.586 136.353C277.558 135.001 273.191 124.088 264.846 120.38C256.755 116.785 246.125 120.509 239.229 114.958C236.329 112.622 234.737 109.071 233.252 105.656C231.703 102.101 230.155 98.5497 228.603 94.9944C227.172 91.7095 225.671 88.3227 223.021 85.9159C217.027 80.4751 207.118 82.0509 200.685 86.9665C195.738 90.7492 192.026 96.5388 191.971 102.764C191.944 105.919 192.838 109.024 194.088 111.924C196.424 117.342 198.921 121.63 203.892 124.911C212.072 130.305 217.96 135.306 228.238 136.165Z" fill="#E0AF82"/>
<path d="M133.071 75.1676C127.203 77.1824 121.449 78.7739 114.926 79.4168C105.773 80.3183 96.5614 80.3693 87.3928 81.0513C77.9263 81.7608 68.0521 83.3249 60.4828 89.0557C52.741 94.912 48.4919 104.394 46.5437 113.904C44.5955 123.417 44.6426 133.209 43.7488 142.876C43.4705 145.882 43.055 149.01 41.3616 151.507C39.6839 153.985 36.9753 155.521 34.5489 157.273C28.7239 161.476 24.1377 167.367 21.4878 174.043C19.5122 179.021 18.5989 184.548 15.6315 189.095C12.6798 193.619 7.04305 197.162 3.11532 200.98C2.18239 201.89 1.22986 202.823 0.688919 204.006C0.222453 205.018 0.0930964 206.147 0.0303783 207.26C-0.102898 209.718 0.147975 212.356 1.65321 214.304C3.15844 216.252 6.26691 217.103 8.14845 215.515C8.82267 214.943 9.2617 214.147 9.68113 213.371C13.3109 206.699 17.9011 200.067 23.4752 194.791C32.2871 186.265 44.4662 181.82 53.0899 173.102C61.353 164.745 65.661 153.15 73.7085 144.577C91.7321 125.377 119.156 128.921 142.095 134.644C160.542 139.246 180.49 142.558 198.184 135.6C204.311 133.194 211.077 130.944 216.028 126.463C216.761 125.801 217.466 125.087 217.956 124.233C218.67 122.982 218.881 121.52 219.085 120.097C220.042 113.504 221.229 106.95 222.644 100.443C223.264 97.5893 223.946 94.6964 225.396 92.1642C227.666 88.209 231.566 85.5239 235.035 82.5644C236.109 81.6472 237.172 80.6633 237.826 79.4128C238.363 78.378 238.594 77.2138 238.743 76.0574C239.947 66.8418 236.572 57.7163 232.691 49.5198C229.426 42.6286 226.168 36.2118 219.626 31.8137C218.556 31.0964 217.345 30.4143 216.063 30.5476C215.016 30.6534 214.111 31.2806 213.248 31.8882C190.486 47.9832 166.277 62.8592 140.15 72.604C137.736 73.5016 135.396 74.3679 133.071 75.1676Z" fill="#EAC3A4"/>
<path d="M260.216 16.1185C263.771 14.6916 267.746 14.9582 271.545 14.4525C277.35 13.6725 282.728 11.0775 288.306 9.29397C288.537 9.21949 288.804 9.14893 289.012 9.27045C289.204 9.38021 289.282 9.61148 289.333 9.82315C290.411 14.0997 287.428 18.3842 283.935 21.0811C280.447 23.774 276.268 25.632 273.305 28.8934C271.055 31.3668 269.298 34.7654 266.045 35.5376C262.262 36.4352 258.883 33.2993 255.653 31.1316C253.125 29.4343 246.391 25.7261 249.444 21.7945C250.369 20.6028 252.937 20.1129 254.23 19.4425C256.261 18.392 258.084 16.9769 260.216 16.1185Z" fill="#AC5F11"/>
<path d="M207.984 44.8081C208.254 47.1405 208.85 49.4414 209.669 51.5856C212.887 59.9663 214.655 69.9228 221.848 75.8928C225.823 79.1933 232.389 83.9325 237.704 83.8188C245.019 83.6581 251.992 84.6537 258.636 87.8994C260.095 88.6128 261.525 89.4203 263.093 89.8554C266.704 90.8589 270.306 89.5889 273.211 87.4016C275.994 85.3084 276.64 82.0627 278.726 79.4795C279.553 78.4603 280.698 77.7547 281.638 76.8414C284.492 74.0701 284.574 68.9977 284.661 65.266C284.692 63.9489 284.641 62.577 284.018 61.4206C282.179 58.0103 275.351 59.0922 272.787 55.1449C270.455 51.5543 272.191 46.8425 272.172 42.562C272.144 38.9557 270.768 35.518 268.64 32.6447C267.558 31.1826 266.284 29.8616 264.885 28.7053C263.207 27.3176 262.223 26.7924 260.071 26.71C259.624 26.6944 259.173 26.6748 258.75 26.5336C258.335 26.3964 257.97 26.1456 257.609 25.8986C255.473 24.4326 253.791 23.1037 251.251 22.504C248.707 21.9003 246.128 21.4692 243.541 21.0928C235.442 19.9208 228.003 17.7413 220.908 22.6412C217.133 25.2479 213.358 28.0467 210.767 31.8372C208.156 35.6591 207.462 40.2924 207.984 44.8081Z" fill="#EAC3A4"/>
<path d="M264.857 46.8425C265.037 50.3783 265.512 54.2198 268.005 56.7324C270.145 58.8923 273.618 59.5978 276.433 58.4493C276.711 58.3356 276.973 58.1906 277.232 58.0456C275.464 57.4693 273.794 56.6971 272.787 55.1448C270.455 51.5542 272.191 46.8425 272.172 42.562C272.148 37.3251 269.279 32.4958 265.269 29.0345C264.696 34.9496 264.555 40.9078 264.857 46.8425Z" fill="#E08A36"/>
<path d="M220.617 43.0952C222.044 45.8391 222.797 48.8927 224.161 51.6719C229.171 61.8714 243.153 66.4616 253.235 61.2129C256.339 59.5979 259.146 57.0343 260.13 53.6749C260.73 51.6248 260.612 49.4179 260.153 47.3286C259.271 43.3029 257.198 39.6613 255.45 35.9296C253.705 32.1979 252.239 28.1408 252.702 24.0445C252.745 23.6721 252.815 23.2958 252.898 22.9234C249.836 22.0963 246.677 21.5476 243.541 21.0928C235.442 19.9208 228.002 17.7413 220.907 22.6412C217.658 24.8873 214.412 27.2784 211.915 30.3163C212.444 31.457 213.091 32.5467 213.793 33.5659C216.012 36.7881 218.814 39.6221 220.617 43.0952Z" fill="#E08A36"/>
<path d="M278.378 71.9807C277.852 75.4224 275.645 78.57 272.584 80.2321" stroke="#601800" stroke-width="1.5" stroke-linecap="round" stroke-linejoin="round"/>
<path d="M272.584 80.2321C266.931 80.7103 261.255 78.9307 257.304 74.8618" stroke="#601800" stroke-width="1.5" stroke-linecap="round" stroke-linejoin="round"/>
<path d="M258.625 73.6741C257.449 74.023 256.434 74.8775 255.893 75.9751" stroke="#601800" stroke-width="1.5" stroke-linecap="round" stroke-linejoin="round"/>
<path d="M272.627 80.2085C273.427 80.6319 274.387 80.7299 275.254 80.479C276.249 80.1929 277.061 79.4873 277.825 78.7896" stroke="#601800" stroke-width="1.5" stroke-linecap="round" stroke-linejoin="round"/>
<path d="M283.104 65.7442C283.786 63.357 283.304 61.6557 280.556 61.789C279.772 61.8243 278.988 61.8635 278.204 61.8988C276.401 61.985 273.093 61.3853 272.246 63.5608C271.478 65.5364 272.415 68.0216 274.296 68.9977C275.014 69.3701 275.868 69.5661 276.393 70.1854C276.954 70.8479 277.173 72.1767 277.993 72.6001C279.047 73.1488 280.258 72.063 280.815 71.2791C281.979 69.6445 282.551 67.6728 283.104 65.7442Z" fill="#794A1F"/>
<path d="M276.354 69.6092C276.237 68.5391 275.375 67.5944 274.324 67.3749" stroke="#601800" stroke-width="1.5" stroke-linecap="round" stroke-linejoin="round"/>
<path d="M267.95 70.5187C267.95 70.8714 267.664 71.1537 267.311 71.1498C266.959 71.1458 266.676 70.8597 266.68 70.5108C266.684 70.158 266.97 69.8758 267.319 69.8797C267.672 69.8797 267.954 70.1659 267.95 70.5187Z" fill="#934A00"/>
<path d="M270.537 74.76C270.537 75.1128 270.251 75.395 269.898 75.395C269.546 75.3911 269.263 75.1049 269.267 74.7521C269.267 74.4033 269.557 74.1171 269.906 74.121C270.259 74.125 270.541 74.4111 270.537 74.76Z" fill="#934A00"/>
<path d="M272.685 71.8475C272.681 72.2003 272.395 72.4825 272.042 72.4825C271.693 72.4786 271.411 72.1925 271.411 71.8397C271.415 71.4908 271.701 71.2046 272.054 71.2086C272.403 71.2125 272.685 71.4986 272.685 71.8475Z" fill="#934A00"/>
<path d="M281.176 75.2421C281.176 75.591 280.89 75.8771 280.537 75.8732C280.184 75.8693 279.902 75.5831 279.906 75.2343C279.91 74.8815 280.196 74.5992 280.545 74.5992C280.898 74.6032 281.18 74.8893 281.176 75.2421Z" fill="#934A00"/>
<path d="M254.591 51.1975C254.579 53.1927 252.953 54.7999 250.957 54.7881C248.962 54.7724 247.355 53.1457 247.367 51.1505C247.382 49.1553 249.009 47.5481 251.004 47.5599C253 47.5755 254.607 49.2023 254.591 51.1975Z" fill="#502315"/>
<path d="M270.49 52.6204C270.478 54.6157 269.8 56.2306 268.977 56.2228C268.158 56.2189 267.503 54.5961 267.515 52.6008C267.53 50.6056 268.205 48.9945 269.028 48.9985C269.851 49.0063 270.506 50.6252 270.49 52.6204Z" fill="#502315"/>
<path d="M213.64 20.8263C215.945 16.9613 219.908 14.3584 224.032 12.5553C228.155 10.7482 232.542 9.61539 236.697 7.88672C241.377 5.93854 245.713 3.26518 250.189 0.893647C251.279 0.321344 252.619 -0.235277 253.674 0.399744C255.371 1.41891 254.419 4.03347 253.231 5.61711C249.781 10.2112 245.744 14.3702 241.252 17.9491C238.868 19.8463 236.144 21.9473 235.823 24.9774C235.678 26.365 236.077 27.7605 236.003 29.156C235.803 32.6917 232.479 35.4121 229.01 36.1295C224.969 36.9605 217.211 36.2314 213.871 33.3542C210.508 30.4574 211.661 24.1464 213.64 20.8263Z" fill="#AC5F11"/>
<path d="M243.294 40.9744C244.999 39.4104 247.336 38.5519 249.644 38.6499C251.957 38.7479 254.211 39.7945 255.779 41.4958" stroke="#601800" stroke-width="1.5" stroke-linecap="round" stroke-linejoin="round"/>
<path d="M266.464 42.4601C266.809 41.6056 267.503 40.9 268.35 40.5394C268.875 40.316 269.624 40.3042 269.87 40.8177" stroke="#601800" stroke-width="1.5" stroke-linecap="round" stroke-linejoin="round"/>
<path d="M267.363 53.5847C267.864 55.6819 269.867 57.3243 272.023 57.4027" stroke="#601800" stroke-width="1.5" stroke-linecap="round" stroke-linejoin="round"/>
<path d="M264.759 83.9677C266.958 85.1594 269.596 85.52 272.039 84.9673" stroke="#601800" stroke-width="1.5" stroke-linecap="round" stroke-linejoin="round"/>
<path d="M189.138 145.047C190.364 146.51 191.482 148.097 192.364 149.947C193.085 151.464 193.689 153.071 193.79 154.745C193.975 157.771 192.524 160.688 192.469 163.722C192.379 169.006 196.401 173.325 199.968 177.222C205.409 183.16 210.395 189.515 214.868 196.214C219.113 202.568 223.44 207.299 228.391 213.026C230.594 215.578 232.868 218.185 235.827 219.8C238.791 221.415 242.636 221.846 245.455 219.996C246.121 219.56 246.725 218.992 247.026 218.259C247.959 216.021 245.831 213.802 244.086 212.117C239.653 207.832 236.529 202.407 233.46 197.056C226.67 185.207 216.165 171.675 216.487 157.34C216.604 152.001 217.784 146.741 218.301 141.425C219.352 130.708 219.45 112.536 211.896 104.018C207.232 98.7653 199.474 96.8132 192.618 98.3498C185.273 100.004 173.791 106.754 173.642 115.241C173.517 122.3 176.704 130.101 180.761 135.796C183.222 139.25 186.449 141.849 189.138 145.047Z" fill="#EAC3A4"/>
<path d="M242.781 221.117C242.455 219.439 241.62 217.871 240.409 216.668" stroke="#601800" stroke-width="1.5" stroke-linecap="round" stroke-linejoin="round"/>
<path d="M243.706 215.115C244.956 216.17 245.783 217.71 245.979 219.337" stroke="#601800" stroke-width="1.5" stroke-linecap="round" stroke-linejoin="round"/>
<path d="M287.675 138.893C289.341 138.944 290.901 140.179 291.332 141.79" stroke="#601800" stroke-width="1.5" stroke-linecap="round" stroke-linejoin="round"/>
<path d="M1.54297 213.692C2.57782 212.505 3.26772 211.015 3.50683 209.459" stroke="#601800" stroke-width="1.5" stroke-linecap="round" stroke-linejoin="round"/>
<path d="M4.75391 216.115C6.43162 215.096 7.5919 213.261 7.7879 211.309" stroke="#601800" stroke-width="1.5" stroke-linecap="round" stroke-linejoin="round"/>
<path d="M45.9516 163.071C45.3323 166.422 47.2844 170.072 50.4124 171.42" stroke="#601800" stroke-width="1.5" stroke-linecap="round" stroke-linejoin="round"/>
<path d="M209.674 163.584C210.175 164.463 211.171 165.039 212.182 165.039" stroke="#601800" stroke-width="1.5" stroke-linecap="round" stroke-linejoin="round"/>
<path d="M239.915 211.572C239.367 212.595 237.775 212.842 236.94 212.034" stroke="#601800" stroke-width="1.5" stroke-linecap="round" stroke-linejoin="round"/>
<path d="M280.929 135.84C279.934 135.949 278.973 136.345 278.189 136.965" stroke="#601800" stroke-width="1.5" stroke-linecap="round" stroke-linejoin="round"/>
<path d="M199.591 46.5172C200.873 62.7298 207.835 78.9777 220.672 88.9577C222.17 90.1219 223.859 91.2352 225.752 91.2665C228.677 91.3175 230.95 88.8441 232.8 86.5823C233.008 86.3275 233.22 86.057 233.271 85.7317C233.369 85.0575 232.73 84.5283 232.169 84.1441C224.298 78.7386 217.109 72.1062 212.182 63.9293C207.842 56.7206 205.353 48.2302 205.969 39.7828C206.192 36.6704 206.616 34.4675 203.225 36.9487C200.05 39.2732 199.301 42.7933 199.591 46.5172Z" fill="#235879"/>
<path d="M229.281 96.2879C230.151 100.059 229.285 103.477 227.344 103.924C225.408 104.371 223.13 101.678 222.26 97.9068C221.39 94.1359 222.256 90.7178 224.197 90.2709C226.133 89.824 228.41 92.517 229.281 96.2879Z" fill="#F9D672"/>
<path d="M36.4854 104.167C27.0738 113.641 17.6543 124.174 4.87157 128.027C3.7544 128.36 2.56668 128.678 1.75918 129.517C0.951687 130.356 0.775293 131.924 1.73174 132.586C2.34717 133.009 3.17034 132.919 3.90728 132.794C26.8347 128.89 43.9175 109.459 65.6533 101.18C68.3815 100.141 71.2587 99.2318 73.4186 97.2718C75.5784 95.308 76.774 91.9055 75.257 89.4164C66.7077 75.4185 43.0081 97.6011 36.4854 104.167Z" fill="#EAC3A4"/>
<path d="M30.7075 117.31C31.6757 116.495 32.7772 115.809 33.5494 114.805C35.4349 112.356 34.8273 108.984 34.8352 105.837C25.9645 114.849 16.9095 124.397 4.87157 128.027C3.7544 128.36 2.56668 128.678 1.75918 129.517C0.951687 130.356 0.775293 131.924 1.73174 132.586C2.34717 133.009 3.17034 132.919 3.90728 132.794C11.8137 131.449 19.0223 128.255 25.9684 124.311C27.0267 121.618 28.4928 119.172 30.7075 117.31Z" fill="#E08A36"/>
<path d="M99.6893 94.9591C104.558 95.8372 108.031 100.016 112.198 102.693C115.506 104.818 119.402 106.029 123.338 106.15C124.718 106.193 126.164 106.088 127.36 105.39C129.919 103.9 130.409 100.353 132.526 98.2792C136.199 94.6886 143.792 96.2527 145.869 91.5566C146.512 90.1102 146.403 88.3502 147.328 87.0645C148.257 85.7787 149.93 85.3476 151.4 84.7478C155.281 83.172 158.401 79.8205 159.691 75.834C160.789 72.4472 160.6 68.7704 161.455 65.313C161.651 64.5251 161.91 63.7608 162.211 63.0081C155.007 66.5674 147.661 69.8013 140.15 72.604C137.736 73.5017 135.396 74.368 133.071 75.1676C127.203 77.1824 121.449 78.7739 114.926 79.4168C105.773 80.3183 96.5613 80.3693 87.3926 81.0514C82.3086 81.4316 77.1108 82.0666 72.2109 83.4542C77.93 86.696 82.2576 93.889 88.9645 94.9944C92.5003 95.5745 96.1575 94.3202 99.6893 94.9591Z" fill="#E08A36"/>
<path d="M63.8382 100.314C62.6623 102.775 62.3526 105.547 62.0586 108.255C61.7881 110.733 61.553 113.386 62.7485 115.574C64.5791 118.929 69.2634 119.827 72.854 118.51C76.4446 117.189 79.1493 114.233 81.5757 111.278C82.8889 109.678 84.2177 107.906 84.3236 105.845C84.4255 103.842 83.3514 101.987 82.3127 100.274C81.4424 98.828 80.5683 97.3855 79.6942 95.9391C79.2238 95.1629 78.7377 94.3672 78.0125 93.8223C74.124 90.8863 65.5356 96.7622 63.8382 100.314Z" fill="#E08A36"/>
<path d="M248.751 6.21686C246.599 9.22733 243.965 11.8929 240.974 14.0762C238.356 15.9852 235.451 17.5453 233.181 19.8581C230.912 22.1708 229.336 25.5301 230.222 28.6464" stroke="#601800" stroke-width="1.5" stroke-linecap="round" stroke-linejoin="round"/>
<path d="M286.029 13.3393C285.128 14.9543 283.975 16.4399 282.588 17.6629C279.989 19.9521 276.696 21.2457 273.584 22.7666C270.471 24.2836 267.347 26.1926 265.638 29.203" stroke="#601800" stroke-width="1.5" stroke-linecap="round" stroke-linejoin="round"/>
<path d="M46.6653 111.83C47.2101 107.679 48.6762 103.649 50.9184 100.118" stroke="#601800" stroke-width="1.5" stroke-linecap="round" stroke-linejoin="round"/>
<path d="M75.4761 142.292C79.3411 137.553 83.2061 132.813 87.0711 128.074" stroke="#601800" stroke-width="1.5" stroke-linecap="round" stroke-linejoin="round"/>
<path d="M182.846 138.728C179.996 137.047 177.389 134.946 175.139 132.519" stroke="#601800" stroke-width="1.5" stroke-linecap="round" stroke-linejoin="round"/>
<path d="M218.485 121.438C218.47 119.29 218.168 117.146 217.588 115.076" stroke="#601800" stroke-width="1.5" stroke-linecap="round" stroke-linejoin="round"/>
<path d="M327.289 277.975C332.726 277.869 337.375 281.992 340.303 286.571C343.235 291.149 345.062 296.398 348.308 300.761C350.444 303.63 353.164 306.057 356.261 307.852C350.08 308.118 343.859 307.397 337.904 305.727C332.922 304.332 328.038 302.215 324.2 298.742C317.345 292.533 313.695 278.237 327.289 277.975Z" fill="#FF708A"/>
<path d="M325.248 283.211C330.198 284.348 334.593 287.727 336.964 292.219" stroke="#2A0F10" stroke-width="1.5" stroke-linecap="round" stroke-linejoin="round"/>
<path d="M492.509 328.913C499.612 339.101 503.163 351.261 507.628 362.852C509.584 367.932 511.873 373.137 516.048 376.634C517.714 378.033 521.038 379.766 521.661 382.02C522.351 384.501 520.689 384.56 518.611 383.721C507.796 379.358 501.579 368.171 496.617 357.615C491.654 347.062 486.488 335.64 476.429 329.733C472.169 327.228 467.163 325.825 463.631 322.363C461.565 320.341 458.86 315.013 461.742 312.532C464.16 310.447 470.087 312.422 472.694 313.293C480.8 315.997 487.676 321.979 492.509 328.913Z" fill="#F79E5B"/>
<path d="M449.39 326.42C454.137 337.141 453.819 349.113 452.369 360.504C450.891 372.126 447.175 381.095 452.067 392.627C454.258 397.79 457.618 402.592 458.351 408.146C458.903 412.336 457.904 416.558 456.908 420.666C455.407 426.856 453.906 433.045 452.404 439.239C451.644 442.37 452.059 445.424 450.817 448.548C450.507 449.32 450.142 450.085 449.594 450.704C448.869 451.516 447.873 452.033 446.873 452.456C444.063 453.648 441.021 454.275 437.971 454.291C436.932 454.299 435.866 454.228 434.922 453.797C433.973 453.37 433.165 452.523 433.036 451.492C432.891 450.332 433.608 449.242 434.436 448.415C436.501 446.333 439.433 445.114 441.017 442.645C442.863 439.764 442.953 435.319 443.208 431.998C444.169 419.643 441.174 410.035 431.805 401.408C427.321 397.276 422.245 393.697 418.54 388.852C412.986 381.585 409.262 370.746 407.228 361.911C404.95 352.013 403.653 341.453 405.46 331.367C406.718 324.327 409.999 317.463 415.538 312.936C420.712 308.71 430.222 305.786 436.595 309.098C442.393 312.109 446.893 320.791 449.39 326.42Z" fill="#E59158"/>
<path d="M298.443 375.027C300.301 382.138 302.606 389.095 305.526 395.665C311.826 409.832 315.914 424.527 313.805 440.14C313.55 442.045 313.268 444.017 312.249 445.647C310.069 449.136 304.864 450.571 304.123 454.616C303.998 455.322 304.037 456.09 304.425 456.698C305.115 457.783 306.596 457.972 307.886 458.034C311.206 458.195 314.605 458.219 317.776 457.215C328.266 453.895 326.192 440.007 327.435 431.25C328.724 422.175 329.406 412.979 328.638 403.826C328.199 398.574 327.286 393.29 327.995 388.064C329.108 379.868 334.279 372.557 333.706 364.239C333.193 356.764 330.359 348.854 324.408 344.021C318.05 338.854 291.066 331.971 293.01 346.337C294.292 355.808 295.97 365.553 298.443 375.027Z" fill="#E59158"/>
<path d="M294.719 352.738C295.762 355.686 296.859 358.614 298.09 361.48C300.462 366.991 303.065 371.722 307.404 375.85C311.688 379.919 316.447 383.564 321.817 386.081C321.923 386.128 322.033 386.179 322.139 386.23C327.819 388.829 334.036 390.103 340.264 390.612C382.987 394.097 421.48 362.883 464.258 360.104C470.095 359.728 476.57 359.657 480.851 355.667C485.335 351.496 485.696 344.546 484.877 338.478C484.199 333.453 482.889 328.419 480.185 324.131C475.398 316.538 466.833 312.144 458.225 309.6C437.25 303.407 414.848 306.268 393.018 307.632C383.536 308.228 373.948 308.522 364.599 306.841C355.626 305.229 347.05 301.823 339.002 297.546C326.909 291.126 315.738 282.545 307.878 271.334C306.977 270.049 305.922 268.61 304.366 268.441C303.598 268.355 302.837 268.61 302.112 268.873C289.376 273.474 278.24 282.373 270.784 293.666C265.92 301.027 268.605 303.195 273.532 309.408C278.224 315.323 282.258 321.787 285.59 328.557C289.373 336.244 291.842 344.581 294.719 352.738Z" fill="#F79E5B"/>
<path d="M246.066 253.593C244.725 255.8 243.384 258.007 242.044 260.217C240.288 263.114 238.528 266.011 236.772 268.912C235.956 270.248 235.121 271.887 235.796 273.298C236.36 274.482 237.763 274.984 239.057 275.211C243.102 275.913 247.324 274.98 250.977 273.106C254.631 271.232 257.759 268.457 260.503 265.4C261.726 264.035 262.902 262.577 263.533 260.856C265.042 256.737 261.878 252.754 258.452 250.802C253.216 247.815 249.166 248.477 246.066 253.593Z" fill="#D25D2C"/>
<path d="M279.957 247.07C276.833 247.321 273.768 248.066 270.644 248.309C267.202 248.575 263.69 248.234 260.326 249.022C255.137 250.241 250.703 254.283 249.018 259.339C248.281 261.542 248.01 263.961 246.697 265.874C245.235 268.006 242.742 269.135 240.374 270.17C237.94 271.232 235.506 272.295 233.072 273.357C232.264 273.71 231.421 274.086 230.869 274.772C230.269 275.513 230.1 276.505 230.022 277.453C229.544 283.505 232.401 289.715 237.309 293.286C237.795 293.642 238.316 293.987 238.653 294.485C239.108 295.155 239.171 296.006 239.347 296.798C240.084 300.149 242.977 302.697 246.18 303.932C249.378 305.167 252.883 305.3 256.313 305.371C267.958 305.614 280.298 307.15 290.717 301.098C296.503 297.739 301.419 292.847 304.762 287.049C308.106 281.248 311.112 274.549 310.501 267.759C309.897 261.088 306.083 254.871 300.65 251.014C295.072 247.051 286.586 246.541 279.957 247.07Z" fill="#F79E5B"/>
<path d="M241.851 282.471C242.087 282.733 242.067 283.137 241.804 283.372C241.542 283.607 241.142 283.588 240.903 283.325C240.668 283.062 240.687 282.663 240.95 282.424C241.212 282.188 241.616 282.208 241.851 282.471Z" fill="#AC3F11"/>
<path d="M245.857 283.239C246.093 283.502 246.073 283.901 245.81 284.14C245.548 284.376 245.148 284.356 244.909 284.093C244.674 283.831 244.693 283.427 244.956 283.192C245.219 282.957 245.622 282.976 245.857 283.239Z" fill="#AC3F11"/>
<path d="M246.258 280.252C246.493 280.515 246.473 280.918 246.211 281.154C245.948 281.389 245.544 281.369 245.309 281.107C245.074 280.848 245.093 280.444 245.356 280.205C245.619 279.97 246.022 279.993 246.258 280.252Z" fill="#AC3F11"/>
<path d="M235.753 283.404C236.2 285.34 236.658 287.304 237.575 289.072C238.489 290.836 239.927 292.415 241.801 293.086" stroke="#790D13" stroke-width="1.5" stroke-linecap="round" stroke-linejoin="round"/>
<path d="M240.735 292.666C243.608 293.156 246.481 293.646 249.351 294.136C253.129 294.779 257.037 295.418 260.761 294.497C264.254 293.631 267.378 291.353 269.271 288.292" stroke="#790D13" stroke-width="1.5" stroke-linecap="round" stroke-linejoin="round"/>
<path d="M267.985 288.123C269.51 287.9 271.137 288.648 271.96 289.954" stroke="#790D13" stroke-width="1.5" stroke-linecap="round" stroke-linejoin="round"/>
<path d="M241.429 292.941C240.688 293.983 239.128 294.332 238.014 293.705" stroke="#790D13" stroke-width="1.5" stroke-linecap="round" stroke-linejoin="round"/>
<path d="M233.91 274.556C233.036 274.67 232.079 274.858 231.523 275.544C231.209 275.936 231.068 276.442 231.025 276.944C230.848 279.084 232.31 280.973 233.686 282.624C234.137 283.161 234.662 283.737 235.36 283.799C236.273 283.878 237.003 283.035 237.379 282.2C237.755 281.365 237.99 280.417 238.669 279.801C239.617 278.947 241.213 278.97 241.961 277.935C242.2 277.61 242.322 277.202 242.338 276.799C242.463 272.922 236.05 274.274 233.91 274.556Z" fill="#86452B"/>
<path d="M238.198 280.044C238.508 279.111 239.08 278.265 239.837 277.633" stroke="#790D13" stroke-width="1.5" stroke-linecap="round" stroke-linejoin="round"/>
<path d="M232.224 280.185C232.036 279.617 231.938 279.021 231.927 278.421" stroke="#790D13" stroke-width="1.5" stroke-linecap="round" stroke-linejoin="round"/>
<path d="M271.608 265.882C271.647 267.885 270.051 269.535 268.052 269.57C266.049 269.606 264.399 268.014 264.364 266.011C264.328 264.012 265.92 262.362 267.919 262.326C269.922 262.287 271.572 263.882 271.608 265.882Z" fill="#790D13"/>
<path d="M251.577 265.87C251.087 267.63 250.068 268.908 249.3 268.724C248.531 268.535 248.304 266.96 248.794 265.196C249.284 263.436 250.303 262.158 251.071 262.342C251.84 262.526 252.067 264.106 251.577 265.87Z" fill="#790D13"/>
<path d="M288.781 245.526C288.389 245.443 287.997 245.381 287.593 245.338C287.048 245.283 286.495 245.247 285.958 245.353C283.979 245.745 282.846 248.03 283.05 250.037C283.253 252.044 284.437 253.804 285.633 255.431C289.106 260.151 291.85 266.211 293.159 271.926C293.414 273.039 293.743 274.329 294.79 274.792C295.781 275.227 296.914 274.686 297.835 274.109C301.112 272.063 304.037 269.449 306.436 266.415C308.403 263.922 310.042 261.084 310.614 257.956C311.183 254.831 310.567 251.39 308.482 248.995C308.051 248.501 307.549 248.046 306.941 247.791C303.884 246.502 300.822 248.932 297.745 248.481C294.7 248.034 291.932 246.192 288.781 245.526Z" fill="#D25D2C"/>
<path d="M265.665 257.787C267.35 256.862 269.44 256.94 271.262 257.548C273.085 258.16 274.7 259.253 276.288 260.335" stroke="#790D13" stroke-width="1.5" stroke-linecap="round" stroke-linejoin="round"/>
<path d="M251.53 259.516C251.628 259.038 251.44 258.512 251.063 258.195C250.687 257.881 250.138 257.791 249.68 257.971" stroke="#790D13" stroke-width="1.5" stroke-linecap="round" stroke-linejoin="round"/>
<path d="M313.938 387.492C314.942 389.872 316.02 392.216 317.133 394.524C326.443 413.885 334.494 430.133 331.543 452.021C331.284 453.926 331.005 455.898 329.986 457.533C327.807 461.017 322.597 462.452 321.86 466.497C321.731 467.203 321.774 467.975 322.158 468.579C322.852 469.665 324.334 469.853 325.62 469.916C328.944 470.076 332.342 470.104 335.513 469.1C346.003 465.776 343.929 451.888 345.172 443.131C346.458 434.056 347.144 424.86 346.375 415.707C345.936 410.455 345.023 405.171 345.733 399.946C346.842 391.753 352.016 384.442 351.444 376.121C350.93 368.649 348.096 360.739 342.142 355.902C334.694 349.849 324.161 349.685 314.605 350.598C310.183 351.022 308.886 351.508 307.941 355.635C306.996 359.779 307.651 364.765 308.309 368.9C309.332 375.313 311.406 381.51 313.938 387.492Z" fill="#F79E5B"/>
<path d="M484.653 332.547C489.404 343.264 489.083 355.235 487.636 366.631C486.159 378.249 482.443 387.218 487.335 398.754C489.526 403.913 492.885 408.714 493.618 414.273C494.171 418.463 493.167 422.685 492.172 426.789C490.67 432.982 489.173 439.172 487.672 445.361C487.672 451.104 487.091 457.423 480.749 459.206C478.037 459.971 475.155 459.802 472.353 459.524C470.891 459.375 469.225 459.073 468.48 457.807C467.806 456.666 468.202 455.149 469.009 454.099C469.817 453.044 470.965 452.323 472 451.496C479.017 445.891 479.428 436.201 478.244 427.965C477.092 419.921 473.011 413.003 467.073 407.531C462.588 403.399 457.508 399.824 453.804 394.979C448.253 387.712 444.525 376.869 442.495 368.038C440.218 358.136 438.916 347.576 440.723 337.49C441.985 330.454 445.266 323.586 450.805 319.063C455.975 314.833 465.485 311.909 471.863 315.221C477.66 318.236 482.16 326.914 484.653 332.547Z" fill="#F79E5B"/>
<path d="M280.314 304.391C282.568 303.548 284.826 302.701 287.083 301.858C288.914 301.172 290.752 300.486 292.481 299.569C296.793 297.288 300.336 293.584 302.426 289.174" stroke="#790D13" stroke-width="1.5" stroke-linecap="round" stroke-linejoin="round"/>
<path d="M300.105 312.274C295.315 318.8 289.455 324.813 282.066 328.106C282.023 330.846 285.547 332.249 286.476 334.825C286.817 335.777 286.774 336.816 286.876 337.823C287.099 340.007 288.008 342.053 288.918 344.048C292.642 352.225 296.538 360.323 300.603 368.34C301.277 369.672 302.422 371.232 303.872 370.868C304.495 370.711 304.974 370.213 305.381 369.719C306.749 368.061 307.804 366.172 308.803 364.271C320.947 341.163 326.388 314.582 324.306 288.562C324.205 287.292 324.06 285.951 323.299 284.928C322.511 283.866 321.186 283.584 320.002 284.07C319.254 281.875 317.835 276.806 315.397 279.307C313.613 281.142 313.084 287.186 312.206 289.601C309.274 297.68 305.189 305.347 300.105 312.274Z" fill="#FF708A"/>
<path d="M319.807 290.495C317.439 309.682 314.707 329.819 303.206 345.357" stroke="#2A0F10" stroke-width="1.5" stroke-linecap="round" stroke-linejoin="round"/>
<path d="M314.781 299.428C312.649 306.617 309.301 313.375 305.969 320.094C303.304 325.476 300.513 331.014 295.946 334.915" stroke="#2A0F10" stroke-width="1.5" stroke-linecap="round" stroke-linejoin="round"/>
<path d="M310.709 378.743C310.05 376.395 309.391 374.051 308.737 371.703" stroke="#790D13" stroke-width="1.5" stroke-linecap="round" stroke-linejoin="round"/>
<path d="M348.912 390.62C351.75 385.442 354.219 380.06 356.305 374.537" stroke="#790D13" stroke-width="1.5" stroke-linecap="round" stroke-linejoin="round"/>
<path d="M441.966 364.62C441.672 361.378 441.378 358.136 441.088 354.898" stroke="#790D13" stroke-width="1.5" stroke-linecap="round" stroke-linejoin="round"/>
<path d="M434.271 453.385C434.247 451.837 434.945 450.296 436.121 449.293" stroke="#790D13" stroke-width="1.5" stroke-linecap="round" stroke-linejoin="round"/>
<path d="M438.799 454.303C438.65 452.946 439.195 451.527 440.218 450.622" stroke="#790D13" stroke-width="1.5" stroke-linecap="round" stroke-linejoin="round"/>
<path d="M469.617 458.924C469.695 457.395 470.389 455.91 471.506 454.863" stroke="#790D13" stroke-width="1.5" stroke-linecap="round" stroke-linejoin="round"/>
<path d="M475.21 459.685C475.743 458.156 476.414 456.67 477.202 455.259" stroke="#790D13" stroke-width="1.5" stroke-linecap="round" stroke-linejoin="round"/>
<path d="M471.51 406.221C472.638 404.677 473.273 402.772 473.289 400.859" stroke="#790D13" stroke-width="1.5" stroke-linecap="round" stroke-linejoin="round"/>
<path d="M435.04 398.429C436.129 396.963 437.043 395.367 437.752 393.686" stroke="#790D13" stroke-width="1.5" stroke-linecap="round" stroke-linejoin="round"/>
<path d="M324.138 469.571C324.444 467.795 325.295 466.117 326.545 464.82" stroke="#790D13" stroke-width="1.5" stroke-linecap="round" stroke-linejoin="round"/>
<path d="M328.638 469.782C329.332 468.081 330.237 466.462 331.323 464.973" stroke="#790D13" stroke-width="1.5" stroke-linecap="round" stroke-linejoin="round"/>
<path d="M306.056 457.062C306.224 455.671 306.777 454.33 307.639 453.229" stroke="#790D13" stroke-width="1.5" stroke-linecap="round" stroke-linejoin="round"/>
<path d="M310.983 458.019C311.148 456.259 311.716 454.538 312.629 453.025" stroke="#790D13" stroke-width="1.5" stroke-linecap="round" stroke-linejoin="round"/>
<path d="M332.726 422.179C334.619 421.203 336.211 419.643 337.226 417.769" stroke="#790D13" stroke-width="1.5" stroke-linecap="round" stroke-linejoin="round"/>
<path d="M313.844 409.882C315.565 408.957 316.905 407.342 317.497 405.48" stroke="#790D13" stroke-width="1.5" stroke-linecap="round" stroke-linejoin="round"/>
<path d="M297.902 250.496C299.858 253.46 301.509 256.623 302.822 259.92" stroke="#790D13" stroke-width="1.5" stroke-linecap="round" stroke-linejoin="round"/>
</svg>
