<svg width="445" height="401" viewBox="0 0 445 401" fill="none" xmlns="http://www.w3.org/2000/svg">
<path d="M357.174 55.2057C341.161 52.9427 324.632 53.6307 309.141 48.9904C292.817 44.1041 278.792 33.6408 263.195 26.7813C239.114 16.1862 211.194 14.5643 186.042 22.2991C160.893 30.0339 138.727 47.0611 124.796 69.3491C106.677 98.3327 102.691 134.507 83.9826 163.115C73.5389 179.089 58.8161 192.175 50.0587 209.129C34.1482 239.931 41.1019 278.493 58.7927 308.311C68.6147 324.867 81.8563 339.836 98.7934 349.023C133.923 368.073 176.938 359.255 216.704 363.363C248.446 366.642 279.384 378.466 311.255 376.868C337.337 375.562 362.847 364.894 382.074 347.255C401.302 329.616 414.1 305.138 417.602 279.307C422.395 243.962 410.288 208.022 414.52 172.607C416.183 158.686 420.359 145.049 420.617 131.031C421.301 94.0642 393.776 60.3789 357.174 55.2057Z" fill="#577590" fill-opacity="0.2"/>
<path d="M439.195 179.108C432.874 175.238 425.362 173.896 418.473 171.146C407.315 166.692 397.286 157.509 395.23 145.689L392.88 154.082C389.11 158.69 390.009 165.888 393.659 170.589C397.306 175.291 403.059 177.89 408.809 179.449C414.558 181.01 420.532 181.711 426.195 183.56C428.207 184.214 430.427 185.292 430.922 187.344C431.463 189.586 429.538 191.762 427.392 192.616C425.245 193.47 422.859 193.457 420.616 194.011C419.439 194.301 418.042 195.309 418.557 196.404C418.861 197.048 419.663 197.244 420.365 197.355C427.883 198.526 436.327 197.992 441.97 192.9C443.39 191.618 444.62 189.997 444.925 188.108C445.526 184.381 442.421 181.084 439.195 179.108Z" fill="#AD6B4A"/>
<path d="M335.049 142.659C329.052 154.612 330.794 170.022 339.311 180.34C333.197 181.674 326.475 183.41 323.009 188.612C322.243 189.76 321.768 191.505 322.851 192.359C323.326 192.733 323.965 192.803 324.57 192.853C335.751 193.781 347.08 192.9 357.984 190.257C359.017 190.007 360.097 189.713 360.853 188.969C361.809 188.031 362.036 186.593 362.715 185.438C364.149 182.999 367.234 182.232 369.788 181.01C380.813 175.738 382.337 163.602 379.552 153.054C377.757 146.263 375.491 139.599 372.77 133.126C371.697 130.563 370.46 127.92 368.237 126.252C362.561 121.994 354.307 125.107 348.912 128.224C343.052 131.607 338.091 136.596 335.049 142.659Z" fill="#A0603F"/>
<path d="M324.657 192.526C324.67 191.331 325.262 190.16 326.211 189.436" stroke="#47112C" stroke-width="1.5" stroke-linecap="round" stroke-linejoin="round"/>
<path d="M328.304 192.9C328.478 191.675 329.28 190.554 330.39 189.997" stroke="#47112C" stroke-width="1.5" stroke-linecap="round" stroke-linejoin="round"/>
<path d="M340.592 180.837C343.521 181.868 346.639 182.358 349.745 182.275" stroke="#47112C" stroke-width="1.5" stroke-linecap="round" stroke-linejoin="round"/>
<path d="M308.117 120.229C308.609 139.212 310.818 158.206 309.468 177.146C309.201 180.917 308.485 186.87 306.409 190.134C305.684 191.275 304.504 192.042 303.588 193.037C302.669 194.031 302.003 195.509 302.602 196.721C303.314 198.165 305.286 198.342 306.894 198.215C308.602 198.079 310.304 197.825 311.975 197.455C313.265 197.171 314.592 196.791 315.579 195.91C316.471 195.116 316.993 193.998 317.457 192.896C321.532 183.246 322.802 172.638 324.989 162.454C327.392 151.265 329.983 140.113 332.764 129.011C334.071 123.792 335.428 118.487 335.137 113.118C334.649 104.078 327.569 94.7681 317.484 97.4142C308.582 99.7501 307.93 113.001 308.117 120.229Z" fill="#A0603F"/>
<path d="M307.529 197.992C307.048 196.467 307.496 194.692 308.642 193.574" stroke="#47112C" stroke-width="1.5" stroke-linecap="round" stroke-linejoin="round"/>
<path d="M303.501 197.321C303.123 196.13 303.595 194.722 304.614 193.998" stroke="#47112C" stroke-width="1.5" stroke-linecap="round" stroke-linejoin="round"/>
<path d="M307.462 190.34C308.592 190.521 309.732 190.641 310.875 190.707" stroke="#47112C" stroke-width="1.5" stroke-linecap="round" stroke-linejoin="round"/>
<path d="M308.217 104.372C308.551 116.615 313.077 129.335 322.828 136.77C331.984 143.747 344.179 145.109 354.552 150.111C355.972 150.795 357.386 151.572 358.459 152.723C360.007 154.392 360.686 156.671 361.184 158.887C362.491 164.676 362.905 170.666 362.417 176.579C362.09 180.506 361.632 185.151 364.637 187.708C365.72 188.629 367.11 189.109 368.488 189.469C377.115 191.735 386.719 189.943 393.947 184.724C396.036 183.216 397.971 181.391 399.115 179.085C400.164 176.969 400.488 174.58 400.689 172.231C401.966 157.015 398.369 141.682 392.305 127.667C386.241 113.648 377.777 100.804 368.936 88.3445C366.683 85.1678 364.413 81.991 362.354 78.7075C360.488 75.7343 357.861 73.1249 355.765 70.2751C351.406 64.3455 347.662 57.8452 345.8 50.6808C345.469 49.4128 345.145 47.1804 343.594 47.0603C342.257 46.9568 339.816 48.4618 338.559 48.9523C336.209 49.87 333.585 50.6708 331.403 51.9655C325.807 55.2791 320.966 59.7138 317.135 64.9595C309.748 75.0736 307.886 92.2086 308.217 104.372Z" fill="#AD6B4A"/>
<path d="M342.076 134.063C334.174 124.984 330.226 112.584 331.426 100.614C331.998 94.8815 333.686 89.3255 334.742 83.6595C335.548 79.3248 335.985 74.8734 335.397 70.502C334.809 66.1307 333.134 61.8228 330.132 58.586C328.989 57.3546 327.996 56.1133 327.05 54.892C323.276 57.7384 319.933 61.1287 317.135 64.9594C309.748 75.0736 307.886 92.2086 308.217 104.372C308.551 116.615 313.077 129.335 322.828 136.77C331.984 143.747 344.179 145.109 354.551 150.111C355.317 150.481 356.072 150.878 356.778 151.342C355.648 148.869 354.023 146.573 352.232 144.515C349.039 140.851 345.265 137.731 342.076 134.063Z" fill="#E0AE89"/>
<path d="M312.001 17.0148C310.631 15.3296 308.752 13.4576 306.639 13.9815C305.543 14.2518 304.721 15.1194 303.885 15.8736C301.522 18.0159 298.593 19.5275 295.481 20.2149C294.605 20.4084 293.683 20.5519 292.957 21.0758C292.262 21.5763 291.837 22.3572 291.433 23.1147C289.116 27.476 286.797 31.8373 284.477 36.1987C283.915 37.2531 283.4 38.6847 284.259 39.5155C284.65 39.8926 285.222 40.0061 285.764 40.0628C291.426 40.6568 296.387 36.6858 301.465 34.1131C302.26 33.7093 303.136 33.3289 304.009 33.4891C305.098 33.6893 305.877 34.6704 306.91 35.0708C308.104 35.5346 309.498 35.1409 310.514 34.3667C311.533 33.5959 312.239 32.488 312.87 31.3802C314.288 28.8942 315.618 25.9644 315.491 23.0346C315.381 20.4852 313.562 18.9335 312.001 17.0148Z" fill="#935535"/>
<path d="M314.729 19.394C312.115 19.2705 309.468 19.434 307.101 20.6887C306.138 21.1992 305.359 21.9868 304.597 22.7643C301.609 25.8008 298.517 28.9609 296.641 32.8384C294.652 36.9494 295.354 41.2307 295.689 45.6454C295.926 48.7587 296.097 52.0489 294.693 54.8353C293.349 57.5048 290.959 59.4836 290.267 62.5035C289.501 65.8337 290.273 69.9314 291.009 73.2249C291.43 75.1203 292.162 77.1959 293.917 78.0234C295.789 78.9044 298.009 77.9934 300.061 78.247C302.578 78.5573 304.547 80.5561 306.944 81.3803C311.206 82.8486 315.746 80.3993 319.5 77.9066C324.133 74.8333 328.341 71.0159 332.998 68.0327C337.17 65.3632 342.02 64.1085 345.894 60.7049C352.911 54.5449 354.663 44.8479 353.503 35.8449C352.888 31.0465 350.685 26.2513 346.703 23.495C342.308 20.4484 336.591 20.3216 331.239 20.3016C326.707 20.2849 322.18 19.998 317.668 19.6075C316.705 19.5241 315.719 19.4374 314.729 19.394Z" fill="#AD6B4A"/>
<path d="M327.683 59.5637C323.574 58.1588 318.687 59.0131 315.14 56.5137C312.202 54.4448 311.052 50.5206 311.373 46.9435C311.741 42.8257 313.65 38.7881 314.315 34.6236C314.442 33.8328 314.552 33.0019 314.285 32.2444C314.017 31.4869 313.252 30.8429 312.463 30.9931C311.731 31.1299 311.273 31.8507 310.935 32.5147C308.98 36.3655 307.984 40.6167 306.954 44.8112C306.459 46.8167 305.934 48.8655 304.774 50.5807C302.976 53.2436 298.246 55.5794 294.766 54.6784C294.739 54.7318 294.719 54.7852 294.693 54.8353C293.349 57.5048 290.959 59.4836 290.267 62.5035C289.501 65.8337 290.273 69.9314 291.009 73.2249C291.43 75.1203 292.162 77.1959 293.917 78.0234C295.789 78.9044 298.009 77.9934 300.061 78.247C302.578 78.5573 304.547 80.5561 306.944 81.3803C311.206 82.8486 315.746 80.3993 319.5 77.9066C324.133 74.8333 328.341 71.0159 332.998 68.0327C333.599 67.649 334.211 67.2986 334.833 66.9616C333.66 63.608 331.062 60.7216 327.683 59.5637Z" fill="#F0C198"/>
<path d="M342.344 17.7522C341.127 17.4586 339.911 17.0915 338.66 17.1082C337.41 17.1249 336.083 17.602 335.408 18.6498C334.692 19.7644 334.87 21.2626 335.475 22.4406C336.076 23.6185 337.042 24.5595 337.935 25.5405C341.408 29.3747 343.899 34.0897 345.095 39.1184C345.503 40.8202 345.847 42.7023 347.191 43.8301C348.609 45.0147 350.778 44.9413 352.416 44.0804C354.051 43.2228 355.251 41.7245 356.287 40.1929C357.788 37.9739 359.048 35.5946 360.041 33.1086C361.325 29.8885 362.157 26.2947 361.188 22.9678C358.46 13.6144 348.866 19.3272 342.344 17.7522Z" fill="#935535"/>
<path d="M325.139 49.6564C325.139 51.3282 323.781 52.683 322.107 52.683C320.432 52.683 319.075 51.3282 319.075 49.6564C319.075 47.9846 320.432 46.6298 322.107 46.6298C323.781 46.6298 325.139 47.9846 325.139 49.6564Z" fill="#3C1A2B"/>
<path d="M303.531 48.375C303.531 50.0468 302.662 51.4016 301.592 51.4016C300.519 51.4016 299.653 50.0468 299.653 48.375C299.653 46.7032 300.519 45.3484 301.592 45.3484C302.662 45.3484 303.531 46.7032 303.531 48.375Z" fill="#3C1A2B"/>
<path d="M298.419 67.4621C298.205 71.0093 299.001 74.6098 300.692 77.7365" stroke="#47112C" stroke-width="1.5" stroke-linecap="round" stroke-linejoin="round"/>
<path d="M293.683 60.5581C292.831 61.3656 292.797 62.6903 292.827 63.8616C292.834 64.272 292.851 64.6992 293.068 65.0462C293.452 65.6635 294.291 65.7736 295.017 65.8003C295.361 65.8137 295.722 65.827 296.02 66.0039C296.478 66.2809 296.635 66.8581 296.795 67.3687C296.962 67.8993 297.186 68.4265 297.577 68.8202C297.972 69.214 298.563 69.4476 299.095 69.2874C300.472 68.8803 300.509 66.391 301.943 66.3009C302.217 66.2808 302.481 66.3676 302.745 66.4344C303.584 66.6446 304.524 66.6546 305.249 66.1874C306.459 65.4066 306.549 63.5146 305.684 62.3633C304.123 60.2911 295.679 58.6794 293.683 60.5581Z" fill="#F97A5A"/>
<path d="M301.759 66.2942C302.211 65.8137 302.689 65.3465 303.27 65.0362C303.849 64.7259 304.551 64.5891 305.176 64.7993" stroke="#47112C" stroke-width="1.5" stroke-linecap="round" stroke-linejoin="round"/>
<path d="M296.056 65.8504C295.562 64.9895 295.03 64.0919 294.174 63.578" stroke="#47112C" stroke-width="1.5" stroke-linecap="round" stroke-linejoin="round"/>
<path d="M295.648 70.4453C295.648 70.7389 295.411 70.9792 295.117 70.9792C294.823 70.9792 294.582 70.7389 294.582 70.4453C294.582 70.1516 294.823 69.9114 295.117 69.9114C295.411 69.9114 295.648 70.1516 295.648 70.4453Z" fill="#7A4024"/>
<path d="M294.582 73.9857C294.582 74.2794 294.345 74.5197 294.047 74.5197C293.753 74.5197 293.516 74.2794 293.516 73.9857C293.516 73.6921 293.753 73.4518 294.047 73.4518C294.345 73.4518 294.582 73.6921 294.582 73.9857Z" fill="#7A4024"/>
<path d="M304.597 71.5098C304.597 71.8068 304.36 72.0437 304.062 72.0437C303.768 72.0437 303.531 71.8068 303.531 71.5098C303.531 71.2162 303.768 70.9792 304.062 70.9792C304.36 70.9792 304.597 71.2162 304.597 71.5098Z" fill="#7A4024"/>
<path d="M306.793 75.0503C306.793 75.3472 306.552 75.5842 306.258 75.5842C305.964 75.5842 305.723 75.3472 305.723 75.0503C305.723 74.7566 305.964 74.5197 306.258 74.5197C306.552 74.5197 306.793 74.7566 306.793 75.0503Z" fill="#7A4024"/>
<path d="M308.578 72.5976C308.578 72.8946 308.337 73.1315 308.043 73.1315C307.749 73.1315 307.508 72.8946 307.508 72.5976C307.508 72.304 307.749 72.067 308.043 72.067C308.337 72.067 308.578 72.304 308.578 72.5976Z" fill="#7A4024"/>
<path d="M336.3 124.376C336.792 143.357 339.005 162.35 337.654 181.294C337.387 185.065 336.671 191.018 334.596 194.281C333.87 195.422 332.69 196.19 331.774 197.184C330.855 198.179 330.186 199.654 330.785 200.868C331.5 202.313 333.472 202.49 335.08 202.36C336.789 202.226 338.487 201.969 340.161 201.602C341.452 201.315 342.779 200.935 343.765 200.057C344.657 199.263 345.179 198.145 345.644 197.044C349.719 187.394 350.989 176.786 353.175 166.602C355.578 155.41 358.169 144.261 360.95 133.156C362.257 127.94 363.615 122.635 363.324 117.262C362.836 108.222 355.756 98.9125 345.67 101.559C336.765 103.898 336.113 117.145 336.3 124.376Z" fill="#AD6B4A"/>
<path d="M335.846 202.196C335.512 200.848 336.087 199.327 337.226 198.536" stroke="#47112C" stroke-width="1.5" stroke-linecap="round" stroke-linejoin="round"/>
<path d="M331.831 201.969C331.54 200.581 331.971 199.056 332.95 198.025" stroke="#47112C" stroke-width="1.5" stroke-linecap="round" stroke-linejoin="round"/>
<path d="M336.778 194.778C337.901 195.022 339.025 195.262 340.151 195.506" stroke="#47112C" stroke-width="1.5" stroke-linecap="round" stroke-linejoin="round"/>
<path d="M337.266 143.447C336.942 134.654 336.614 125.861 336.29 117.069" stroke="#47112C" stroke-width="1.5" stroke-linecap="round" stroke-linejoin="round"/>
<path d="M310.73 120.372C314.09 129.198 321.05 136.599 329.661 140.507C329.861 140.597 330.099 140.744 330.075 140.964C330.055 141.181 329.597 141.094 329.741 140.924" stroke="#47112C" stroke-width="1.5" stroke-linecap="round" stroke-linejoin="round"/>
<path d="M361.107 152.743C355.11 164.696 356.852 180.106 365.369 190.424C359.255 191.759 352.533 193.494 349.066 198.693C348.301 199.841 347.826 201.589 348.909 202.443C349.384 202.817 350.022 202.887 350.624 202.937C361.806 203.865 373.138 202.984 384.042 200.338C385.072 200.087 386.151 199.794 386.91 199.053C387.863 198.112 388.094 196.677 388.772 195.523C390.206 193.083 393.288 192.316 395.846 191.095C406.87 185.822 408.391 173.686 405.607 163.135C403.815 156.347 401.548 149.683 398.827 143.21C397.751 140.647 396.517 138.001 394.291 136.333C388.615 132.078 380.365 135.191 374.97 138.308C369.11 141.692 364.149 146.68 361.107 152.743Z" fill="#AD6B4A"/>
<path d="M350.714 202.61C350.728 201.416 351.316 200.244 352.269 199.52" stroke="#47112C" stroke-width="1.5" stroke-linecap="round" stroke-linejoin="round"/>
<path d="M354.361 202.984C354.532 201.759 355.337 200.638 356.444 200.081" stroke="#47112C" stroke-width="1.5" stroke-linecap="round" stroke-linejoin="round"/>
<path d="M366.649 190.921C369.578 191.952 372.697 192.443 375.802 192.359" stroke="#47112C" stroke-width="1.5" stroke-linecap="round" stroke-linejoin="round"/>
<path d="M405.784 163.295C407.148 168.31 407.325 173.639 406.298 178.735" stroke="#47112C" stroke-width="1.5" stroke-linecap="round" stroke-linejoin="round"/>
<path d="M368.936 88.3444C367.175 85.8584 365.38 83.3491 363.625 80.803C363.18 85.6082 361.953 90.5602 363.371 95.1184C364.52 98.809 367.282 101.782 368.813 105.333C371.938 112.59 369.889 122.034 375.318 127.783C379.713 132.438 387.165 132.515 392.456 136.126C393.971 137.157 395.288 138.461 396.718 139.599C395.468 135.542 393.987 131.551 392.306 127.667C386.242 113.648 377.778 100.804 368.936 88.3444Z" fill="#F0C198"/>
<path d="M387.519 155.89C388.906 158.133 391.286 160.408 393.82 159.674C395.278 159.247 396.307 157.879 396.722 156.421C397.136 154.959 397.036 153.411 396.892 151.903C396.555 148.269 395.95 144.518 393.884 141.508C391.694 138.315 386.119 135.085 383.829 139.533C381.556 143.937 385.216 152.156 387.519 155.89Z" fill="#F0C198"/>
<path d="M320.749 37.6535C323.844 35.8683 328.344 37.3198 329.805 40.5767" stroke="#47112C" stroke-width="1.5" stroke-linecap="round" stroke-linejoin="round"/>
<path d="M297.771 37.4867C298.245 36.6825 298.737 35.8616 299.475 35.291C300.214 34.7204 301.267 34.4534 302.096 34.8839C302.888 35.2977 303.373 36.2754 304.256 36.4189" stroke="#47112C" stroke-width="1.5" stroke-linecap="round" stroke-linejoin="round"/>
<path d="M325.162 74.0825C326.81 71.5265 327.472 68.3497 326.981 65.3499" stroke="#47112C" stroke-width="1.5" stroke-linecap="round" stroke-linejoin="round"/>
<path d="M325.082 66.4243C326.088 65.3432 327.619 64.7726 329.09 64.9294" stroke="#47112C" stroke-width="1.5" stroke-linecap="round" stroke-linejoin="round"/>
<path d="M306.355 21.256C304.968 21.1592 303.544 21.1258 302.22 21.5596C299.051 22.5974 297.366 25.9176 295.491 28.6706C294.595 29.9887 293.589 31.2333 292.489 32.3846C291.607 33.3122 290.61 34.2098 289.377 34.5569" stroke="#47112C" stroke-width="1.5" stroke-linecap="round" stroke-linejoin="round"/>
<path d="M347.485 19.9012C350.374 22.4506 350.607 26.8386 352.563 30.1555" stroke="#47112C" stroke-width="1.5" stroke-linecap="round" stroke-linejoin="round"/>
<path d="M143.243 262.151C152.643 261.714 156.641 251.065 157.068 243.137C157.379 237.367 156.236 231.615 154.779 226.022C154.575 225.241 154.384 224.337 154.859 223.683C156.413 221.524 160.475 231.848 160.836 232.863C162.664 238.018 163.487 243.537 163.202 249.003C162.851 255.764 159.83 262.314 155.427 267.423C150.493 273.146 142.865 275.935 135.564 273.6C132.362 272.579 129.216 270.953 127.21 268.264C124.944 265.227 124.118 259.204 128.785 258.036C133.224 256.925 138.406 262.378 143.243 262.151Z" fill="#D4783A"/>
<path d="M160.835 232.863C160.474 231.848 156.413 221.524 154.858 223.683C154.384 224.337 154.574 225.241 154.778 226.022C156.236 231.615 157.379 237.367 157.068 243.137C156.797 248.109 155.126 254.152 151.596 258.073C151.746 258.413 151.963 258.704 152.301 258.854C152.936 259.134 153.655 258.784 154.253 258.44C155.183 257.913 156.108 257.386 157.034 256.858C157.466 256.611 157.994 256.361 158.432 256.595C158.749 256.762 158.896 257.129 159.05 257.452C159.401 258.193 159.939 258.864 160.611 259.321C162.085 256.057 163.018 252.56 163.202 249.003C163.486 243.537 162.664 238.018 160.835 232.863Z" fill="#D99A5C"/>
<path d="M112.562 316.055C111.961 320.35 111.185 324.684 111.663 328.992C111.977 331.819 112.823 334.558 113.301 337.358C114.946 347.008 112.165 356.802 111.546 366.569C111.265 371 111.69 380.734 106.686 382.76C104.677 383.571 102.427 383.437 100.267 383.26C98.9303 383.15 97.3726 382.883 96.7575 381.692C96.4399 381.078 96.4633 380.347 96.5469 379.663C97.162 374.768 100.602 372.142 100.568 366.886C100.542 362.638 100.515 358.39 100.491 354.139C100.438 345.61 96.6472 340.221 93.7356 332.356C90.5164 323.663 87.9692 314.744 85.422 305.837C83.2793 298.353 81.1298 290.424 83.1088 282.893C85.1044 275.295 92.4887 265.07 100.959 264.113C107.097 263.419 108.655 269.362 110.236 274.244C114.578 287.675 114.498 302.207 112.562 316.055Z" fill="#D4783A"/>
<path d="M99.1307 382.947C98.7763 381.712 98.8298 380.364 99.2811 379.159" stroke="#790D00" stroke-width="1.5" stroke-linecap="round" stroke-linejoin="round"/>
<path d="M102.54 383.063C102.627 381.932 102.941 380.821 103.459 379.813" stroke="#790D00" stroke-width="1.5" stroke-linecap="round" stroke-linejoin="round"/>
<path d="M101.818 375.315C103.069 375.132 104.339 375.071 105.602 375.135" stroke="#790D00" stroke-width="1.5" stroke-linecap="round" stroke-linejoin="round"/>
<path d="M100.471 340.948C102.133 342.113 104.279 342.567 106.271 342.173" stroke="#790D00" stroke-width="1.5" stroke-linecap="round" stroke-linejoin="round"/>
<path d="M46.4979 298.016C46.5647 298.323 46.6316 298.63 46.7051 298.94C48.1826 305.36 50.6062 311.71 54.8649 316.906C64.6493 328.849 83.2454 329.866 96.3526 322.125C100.859 319.465 106.244 316.192 110.051 312.715C113.775 309.314 116.46 304.986 120.772 302.157C124.706 299.577 129.553 298.536 133.642 296.184C141.511 291.659 145.666 282.239 144.045 273.686C142.423 265.137 135.39 257.843 126.695 255.01C121.715 253.391 115.661 252.47 110.446 252.427C105.221 252.383 100.695 252.15 96.0551 249.354C93.4577 247.789 91.198 245.71 88.5906 244.161C85.0004 242.026 81.5506 242.389 77.6161 242.019C73.6348 241.649 69.58 242.433 65.8728 243.868C62.4565 245.189 60.2402 246.694 57.8935 249.644C46.9625 263.395 42.8074 280.907 46.4979 298.016Z" fill="#D99A5C"/>
<path d="M67.0166 298.086C65.2716 293.788 62.116 290.124 58.2484 287.578C56.2928 286.29 54.1467 285.279 51.9004 284.615C49.5103 283.904 47.4043 282.799 45.3618 281.191C44.0347 291.542 43.4163 302.731 44.2921 313.139C45.3719 325.989 47.5881 338.709 48.7314 351.553C49.644 361.777 51.7332 374.387 47.5714 384.155C46.2443 387.268 43.5467 388.202 43.1054 391.829C43.0085 392.617 43.0018 393.488 43.4865 394.115C44.028 394.819 45.0041 394.996 45.8933 395.083C48.0361 395.293 50.2056 395.29 52.3483 395.073C53.4381 394.963 54.5613 394.783 55.4772 394.185C56.7441 393.354 57.4093 391.859 57.7737 390.388C58.3687 387.985 58.6829 385.643 58.8768 383.187C60.4279 363.836 63.0654 344.569 66.7692 325.512C68.5409 316.399 70.5098 306.685 67.0166 298.086Z" fill="#D99A5C"/>
<path d="M57.4093 370.276C56.3898 371.541 54.6014 372.642 53.2174 371.785C52.6926 371.461 52.3517 370.917 51.8803 370.52C51.3588 370.083 50.7137 369.943 50.0652 370.01C50.0251 374.978 49.41 379.843 47.5714 384.155C46.2443 387.268 43.5467 388.202 43.1054 391.83C43.0085 392.617 43.0018 393.488 43.4865 394.115C44.028 394.819 45.0041 394.996 45.8933 395.083C48.0361 395.293 50.2056 395.29 52.3483 395.073C53.4381 394.963 54.5613 394.783 55.4772 394.185C56.7441 393.355 57.4093 391.86 57.7737 390.388C58.3687 387.985 58.6829 385.643 58.8768 383.187C59.3081 377.828 59.8295 372.472 60.4246 367.13C59.1376 367.744 58.3286 369.135 57.4093 370.276Z" fill="#D4783A"/>
<path d="M45.9901 394.539C45.6659 393.231 45.7929 391.816 46.3512 390.588" stroke="#790D00" stroke-width="1.5" stroke-linecap="round" stroke-linejoin="round"/>
<path d="M51.1518 395.09C50.861 393.474 51.0983 391.769 51.8204 390.294" stroke="#790D00" stroke-width="1.5" stroke-linecap="round" stroke-linejoin="round"/>
<path d="M49.7578 385.423C51.2086 385.446 52.6627 385.469 54.1135 385.493" stroke="#790D00" stroke-width="1.5" stroke-linecap="round" stroke-linejoin="round"/>
<path d="M88.2965 298.022C90.1116 293.754 93.3241 290.141 97.2285 287.655C99.2074 286.397 101.367 285.422 103.627 284.792C106.027 284.121 108.424 284.107 110.493 282.532C111.656 292.9 111.82 303.041 110.78 313.432C109.5 326.263 107.083 338.95 105.733 351.773C104.66 361.981 102.37 374.554 106.378 384.388C107.655 387.521 110.339 388.499 110.723 392.133C110.807 392.921 110.8 393.792 110.306 394.412C109.751 395.106 108.771 395.266 107.885 395.34C105.736 395.52 103.57 395.48 101.427 395.23C100.341 395.103 99.2241 394.906 98.3149 394.292C97.0613 393.444 96.4195 391.936 96.0785 390.461C95.5236 388.045 95.2462 385.703 95.0891 383.244C93.8455 363.87 91.5122 344.562 88.1093 325.448C86.4813 316.312 84.6695 306.568 88.2965 298.022Z" fill="#D99A5C"/>
<path d="M94.9455 370.116C94.6581 369.956 94.3539 369.866 94.043 369.803C94.4474 374.277 94.8018 378.759 95.0893 383.244C95.2464 385.703 95.5238 388.045 96.0787 390.461C96.4197 391.936 97.0615 393.444 98.3151 394.292C99.2243 394.906 100.341 395.103 101.427 395.23C103.57 395.48 105.736 395.52 107.886 395.34C108.771 395.266 109.751 395.106 110.306 394.412C110.8 393.792 110.807 392.921 110.724 392.133C110.339 388.499 107.655 387.521 106.378 384.388C105.235 381.582 104.616 378.549 104.322 375.412C102.276 375.105 100.027 375.222 98.4221 373.934C97.0682 372.849 96.4665 370.95 94.9455 370.116Z" fill="#D4783A"/>
<path d="M107.795 394.796C108.143 393.495 108.036 392.076 107.494 390.839" stroke="#790D00" stroke-width="1.5" stroke-linecap="round" stroke-linejoin="round"/>
<path d="M102.627 395.267C102.941 393.655 102.73 391.946 102.032 390.461" stroke="#790D00" stroke-width="1.5" stroke-linecap="round" stroke-linejoin="round"/>
<path d="M104.172 385.62C102.721 385.623 101.267 385.623 99.8159 385.623" stroke="#790D00" stroke-width="1.5" stroke-linecap="round" stroke-linejoin="round"/>
<path d="M66.6982 324.367C60.4973 319.966 55.7873 313.506 53.4941 306.265" stroke="#790D00" stroke-width="1.5" stroke-linecap="round" stroke-linejoin="round"/>
<path d="M147.795 317.42C147.193 321.714 146.418 326.049 146.899 330.36C147.21 333.183 148.059 335.923 148.537 338.726C150.182 348.376 147.397 358.167 146.779 367.937C146.501 372.369 146.926 382.102 141.918 384.125C139.913 384.935 137.66 384.805 135.504 384.625C134.163 384.515 132.605 384.248 131.99 383.057C131.676 382.443 131.696 381.712 131.783 381.028C132.395 376.133 135.835 373.507 135.801 368.251C135.778 364.003 135.751 359.755 135.724 355.507C135.671 346.978 131.88 341.589 128.968 333.721C125.749 325.031 123.205 316.108 120.655 307.202C118.515 299.718 116.363 291.789 118.342 284.261C120.341 276.659 127.725 266.435 136.192 265.478C142.33 264.783 143.891 270.726 145.469 275.612C149.811 289.039 149.734 303.572 147.795 317.42Z" fill="#D99A5C"/>
<path d="M134.364 384.315C134.009 383.077 134.063 381.729 134.514 380.524" stroke="#790D00" stroke-width="1.5" stroke-linecap="round" stroke-linejoin="round"/>
<path d="M137.776 384.428C137.86 383.297 138.174 382.186 138.696 381.178" stroke="#790D00" stroke-width="1.5" stroke-linecap="round" stroke-linejoin="round"/>
<path d="M137.051 376.68C138.301 376.5 139.572 376.436 140.839 376.5" stroke="#790D00" stroke-width="1.5" stroke-linecap="round" stroke-linejoin="round"/>
<path d="M135.705 342.313C137.366 343.481 139.512 343.935 141.508 343.541" stroke="#790D00" stroke-width="1.5" stroke-linecap="round" stroke-linejoin="round"/>
<path d="M118.753 303.592C121.314 300.849 124.476 298.666 127.952 297.251C129.086 296.788 130.296 296.377 131.118 295.473" stroke="#790D00" stroke-width="1.5" stroke-linecap="round" stroke-linejoin="round"/>
<path d="M55.8081 197.882C50.7538 201.986 49.5437 208.784 47.9324 214.576C46.963 218.05 45.6092 221.407 44.6665 224.887C43.7873 228.131 43.9679 231.585 43.8575 234.962C43.8107 236.403 43.7639 237.851 43.9979 239.273C44.9339 244.962 49.5303 247.115 52.6191 251.319C55.5373 255.287 57.5363 259.064 62.3299 261.286C67.7553 263.806 74.2772 263.072 79.6892 260.522C82.0693 259.401 84.7602 257.986 86.3547 255.914C87.8089 254.025 88.8953 252.183 90.687 250.518C93.9997 247.445 98.0813 244.839 100.017 240.594C101.929 236.4 101.063 232.052 100.351 227.71C99.7226 223.87 99.96 220.112 98.8134 216.245C97.6033 212.164 96.3029 208.086 94.3775 204.289C93.1707 201.909 91.6297 199.554 89.2931 198.259C84.4828 195.596 77.1821 197.234 71.8269 196.534C66.6388 195.86 60.2741 194.251 55.8081 197.882Z" fill="#D99A5C"/>
<path d="M73.0133 224.04C72.4049 226.099 72.1743 228.401 73.1303 230.323C73.9025 231.882 75.3399 232.979 76.4698 234.301C77.8838 235.959 78.8131 237.971 80.1034 239.727C81.3971 241.482 83.2457 243.047 85.4218 243.14C87.1835 243.217 88.8482 242.316 90.2288 241.225C91.3654 240.321 92.4017 239.249 93.0401 237.948C94.521 234.935 93.6586 231.358 92.7727 228.121C92.1409 225.818 91.5091 223.516 90.8773 221.213C90.4428 219.632 90.0015 218.037 89.2494 216.578C88.4972 215.12 87.3941 213.792 85.9266 213.055C82.9281 211.543 80.06 213.846 78.0041 215.844C75.6809 218.093 73.9292 220.94 73.0133 224.04Z" fill="#D4783A"/>
<path d="M60.5479 196.083C59.973 194.765 58.7997 193.831 56.794 193.807C55.4803 193.794 54.2768 194.498 53.167 195.199C51.4087 196.307 49.6303 197.485 47.5979 197.929C46.2173 198.229 44.7799 198.175 43.3993 198.479C37.5494 199.764 34.9353 206.715 36.2123 212.067C36.6502 213.906 37.4257 215.647 37.9037 217.476C38.6993 220.529 38.6492 223.729 38.7762 226.883C38.8297 228.181 39.2442 229.846 40.5412 229.976C40.9858 230.02 41.4237 229.846 41.8215 229.646C44.0579 228.521 45.6791 226.419 46.702 224.133C48.3968 220.353 48.9685 217.313 51.4221 213.896C54.1565 210.082 57.7901 206.881 59.9663 202.677C60.9457 200.785 61.3937 198.022 60.5479 196.083Z" fill="#AD622E"/>
<path d="M87.7081 197.381C89.7204 197.251 91.6559 198.085 93.4611 198.98C95.2628 199.874 97.0813 200.865 99.0837 201.085C101.825 201.389 104.954 200.291 107.153 201.953C109.413 203.655 109.119 207.082 108.514 209.845C107.083 216.375 104.96 223.166 99.9695 227.627C99.4714 228.074 98.8898 228.515 98.2212 228.518C97.3187 228.528 96.6167 227.764 96.0985 227.03C94.8851 225.301 93.9792 223.359 93.431 221.32C92.8794 219.278 92.6855 217.129 91.91 215.16C90.8904 212.581 88.9483 210.495 87.2869 208.276C85.0104 205.243 80.8954 197.835 87.7081 197.381Z" fill="#AD622E"/>
<path d="M85.5288 229.546C85.5589 231.218 84.2284 232.596 82.5537 232.626C80.8789 232.656 79.4984 231.328 79.4683 229.656C79.4382 227.984 80.7686 226.603 82.4434 226.573C84.1181 226.543 85.4987 227.874 85.5288 229.546Z" fill="#412317"/>
<path d="M61.5238 227.914C61.5539 229.586 60.2235 230.964 58.5487 230.994C56.874 231.024 55.4901 229.693 55.46 228.021C55.4299 226.349 56.7637 224.971 58.4384 224.941C60.1132 224.911 61.4938 226.242 61.5238 227.914Z" fill="#412317"/>
<path d="M52.2212 220.172C54.7617 217.57 59.1208 216.972 62.2697 218.798" stroke="#790D00" stroke-width="1.5" stroke-linecap="round" stroke-linejoin="round"/>
<path d="M78.3682 220.293C82.2525 219.382 86.5982 220.88 89.0953 223.99" stroke="#790D00" stroke-width="1.5" stroke-linecap="round" stroke-linejoin="round"/>
<path d="M60.9387 248.509C62.707 249.571 65.1005 249.857 66.7752 248.66C67.4772 248.156 68.0522 247.405 68.8946 247.208C70.1381 246.918 71.2513 247.945 72.3577 248.583C74.4002 249.761 76.9808 249.681 79.2138 248.913C80.5643 248.449 81.8112 247.655 83.0514 246.951C83.3389 247.281 83.603 247.628 83.8436 247.995C83.837 247.985 80.8084 250.905 80.5242 251.149C79.3308 252.187 78.0138 253.091 76.6399 253.875C71.3482 256.888 64.4654 256.194 60.4072 251.589C59.1135 250.124 58.1174 248.456 57.1713 246.757C56.944 246.35 56.7134 245.927 56.6699 245.459C56.9741 245.333 57.2783 245.206 57.5825 245.076C58.124 245.716 58.6756 246.367 59.2673 246.961C59.7888 247.485 60.3002 248.126 60.9387 248.509Z" fill="#412317"/>
<path d="M64.7967 253.031C64.4323 253.221 64.1047 253.491 63.8406 253.802C62.3765 255.5 61.6778 258.273 61.7948 260.469C61.865 261.74 62.2093 263.028 62.9916 264.036C63.7738 265.04 65.0441 265.714 66.311 265.578C67.9924 265.394 69.2226 263.922 70.0382 262.444C71.3185 260.122 72.7292 258.173 74.3638 256.087C74.5778 255.817 74.795 255.537 74.902 255.206C75.2129 254.259 74.4641 253.224 73.5315 252.871C72.5955 252.517 71.5559 252.67 70.5731 252.864C69.5936 253.058 68.5841 253.288 67.608 253.071C67.1467 252.971 66.7054 252.771 66.2341 252.721C65.736 252.667 65.2379 252.791 64.7967 253.031Z" fill="#F97B37"/>
<path d="M68.0624 253.842C66.4913 255.964 65.7191 258.664 65.933 261.293" stroke="#790D00" stroke-width="1.5" stroke-linecap="round" stroke-linejoin="round"/>
<path d="M82.52 246.804C83.4995 247.008 84.3017 247.872 84.4355 248.863" stroke="#790D00" stroke-width="1.5" stroke-linecap="round" stroke-linejoin="round"/>
<path d="M58.2345 244.899C56.8272 245.106 55.5603 246.083 55.0054 247.391" stroke="#790D00" stroke-width="1.5" stroke-linecap="round" stroke-linejoin="round"/>
<path d="M65.7926 237.01C62.5334 237.531 61.1461 239.727 62.1423 242.243C62.5167 243.19 63.4259 244.041 64.6327 244.208C65.1408 244.278 65.7158 244.241 66.1069 244.508C66.3141 244.649 66.4311 244.852 66.5448 245.052C67.0495 245.943 67.6512 247.268 69.1889 247.148C71.0643 247.051 71.5222 244.725 73.2438 244.078C73.9658 243.808 74.8116 243.881 75.547 243.641C77.2017 243.104 77.5928 241.342 77.4958 239.913C77.3253 237.401 73.451 237.004 71.0308 236.91C69.5533 236.85 67.5576 236.733 65.7926 237.01Z" fill="#814120"/>
<path d="M66.4912 244.365C66.7453 243.16 65.6589 241.909 64.1914 241.715" stroke="#532320" stroke-width="1.5" stroke-linecap="round" stroke-linejoin="round"/>
<path d="M72.2974 244.472C72.4411 243.307 73.5275 242.226 74.9148 241.879" stroke="#532320" stroke-width="1.5" stroke-linecap="round" stroke-linejoin="round"/>
<path d="M74.0535 246.574C74.2507 246.791 74.234 247.128 74.0134 247.325C73.7961 247.522 73.4585 247.505 73.2612 247.288C73.064 247.068 73.0807 246.731 73.298 246.534C73.5186 246.337 73.8563 246.354 74.0535 246.574Z" fill="#AC3E00"/>
<path d="M77.406 247.215C77.6033 247.432 77.5865 247.769 77.3659 247.965C77.1486 248.162 76.811 248.146 76.6138 247.929C76.4165 247.709 76.4333 247.371 76.6506 247.175C76.8712 246.978 77.2088 246.994 77.406 247.215Z" fill="#AC3E00"/>
<path d="M65.2547 247.175C65.4519 247.391 65.4352 247.729 65.2145 247.925C64.9973 248.122 64.6596 248.106 64.4624 247.889C64.2652 247.668 64.2819 247.331 64.4992 247.134C64.7198 246.938 65.0574 246.954 65.2547 247.175Z" fill="#AC3E00"/>
<path d="M61.3973 245.806C61.5946 246.027 61.5745 246.364 61.3572 246.561C61.1366 246.757 60.7989 246.741 60.6017 246.521C60.4045 246.304 60.4212 245.967 60.6418 245.77C60.8591 245.573 61.1968 245.59 61.3973 245.806Z" fill="#AC3E00"/>
<path d="M64.4159 244.745C64.6132 244.962 64.5965 245.299 64.3792 245.496C64.1585 245.696 63.8209 245.676 63.6237 245.459C63.4265 245.239 63.4432 244.902 63.6638 244.705C63.8811 244.508 64.2187 244.525 64.4159 244.745Z" fill="#AC3E00"/>
<path d="M77.7401 244.722C77.9373 244.939 77.9172 245.276 77.7 245.473C77.4793 245.67 77.1417 245.653 76.9445 245.433C76.7473 245.216 76.764 244.879 76.9846 244.682C77.2052 244.485 77.5429 244.502 77.7401 244.722Z" fill="#AC3E00"/>
<path d="M96.9683 202.096C97.6769 205.009 98.8837 207.799 100.518 210.315C101.02 211.089 101.758 211.927 102.671 211.8" stroke="#790D00" stroke-width="1.5" stroke-linecap="round" stroke-linejoin="round"/>
<path d="M46.418 201.259C43.9343 204.205 42.41 207.943 42.1191 211.783" stroke="#790D00" stroke-width="1.5" stroke-linecap="round" stroke-linejoin="round"/>
<path d="M84.2919 96.4131C93.9426 92.0952 106.05 97.9748 100.147 109.644C98.3117 113.261 95.2463 116.081 92.2445 118.817C82.5303 127.667 73.0868 138.612 60.4543 143.233C53.0132 145.953 44.7732 144.985 36.9544 146.253C31.9134 147.071 27.0696 148.816 22.0554 149.764C21.3501 149.897 20.511 149.977 20.0163 149.457C19.6954 149.116 19.6219 148.616 19.5918 148.152C19.3411 144.475 21.2966 140.2 24.947 139.636C26.9727 139.322 28.9717 140.223 31.0108 140.444C34.9721 140.877 38.716 138.755 42.1391 136.713C47.755 133.356 53.4913 129.899 57.6297 124.837C60.812 120.943 62.8946 116.281 65.6925 112.1C70.2622 105.276 76.7873 99.7701 84.2919 96.4131Z" fill="#E0AF82"/>
<path d="M194.638 115.814C201.795 116.301 208.919 114.856 216.036 113.959C218.743 113.618 221.631 113.385 224.078 114.593C225.954 115.52 227.334 117.182 228.835 118.64C233.375 123.058 240.314 125.881 246.118 123.332C248.454 122.304 250.54 119.311 248.879 117.376C247.836 116.158 245.984 116.211 244.396 115.974C236.697 114.823 232.974 105.533 225.857 102.376C218.957 99.3163 209.891 102.486 204.011 97.7613C201.538 95.7725 200.181 92.7492 198.914 89.8428C197.593 86.8162 196.273 83.793 194.949 80.7664C193.729 77.9701 192.449 75.087 190.189 73.0381C185.078 68.4065 176.627 69.7479 171.142 73.9324C166.923 77.1525 163.757 82.0812 163.71 87.3802C163.687 90.0664 164.449 92.7092 165.516 95.1785C167.508 99.7901 169.637 103.441 173.876 106.234C180.852 110.825 185.873 115.083 194.638 115.814Z" fill="#E0AF82"/>
<path d="M113.482 63.8883C108.477 65.6035 103.57 66.9583 98.0077 67.5055C90.2023 68.273 82.3466 68.3164 74.5278 68.897C66.4549 69.501 58.0344 70.8324 51.5794 75.711C44.9773 80.6963 41.3537 88.7683 39.6924 96.8636C38.031 104.962 38.0711 113.298 37.3089 121.527C37.0716 124.086 36.7173 126.749 35.2732 128.875C33.8424 130.983 31.5325 132.292 29.4633 133.783C24.4959 137.36 20.5848 142.376 18.3251 148.058C16.6403 152.296 15.8614 157.001 13.3309 160.872C10.8138 164.723 6.00682 167.739 2.65732 170.99C1.86173 171.764 1.04943 172.558 0.588123 173.566C0.190329 174.427 0.0800157 175.388 0.0265307 176.335C-0.0871249 178.428 0.126815 180.673 1.41046 182.332C2.6941 183.99 5.34495 184.714 6.9495 183.363C7.52446 182.876 7.89885 182.198 8.25654 181.538C11.352 175.858 15.2664 170.212 20.0199 165.721C27.5345 158.463 37.9207 154.679 45.2748 147.258C52.3215 140.143 55.9952 130.273 62.858 122.975C78.2283 106.631 101.615 109.647 121.177 114.519C136.908 118.437 153.92 121.256 169.009 115.333C174.234 113.285 180.004 111.369 184.226 107.555C184.851 106.991 185.452 106.384 185.87 105.656C186.479 104.592 186.659 103.347 186.833 102.136C187.649 96.5232 188.661 90.9439 189.868 85.4047C190.396 82.9754 190.978 80.5128 192.215 78.3571C194.15 74.9902 197.476 72.7044 200.435 70.185C201.351 69.4042 202.257 68.5666 202.815 67.5022C203.273 66.6212 203.47 65.6302 203.597 64.6458C204.623 56.8007 201.745 49.0324 198.436 42.0549C195.651 36.1887 192.873 30.7261 187.294 26.9821C186.382 26.3715 185.349 25.7909 184.256 25.9043C183.363 25.9944 182.591 26.5283 181.856 27.0455C162.444 40.7469 141.799 53.4104 119.519 61.706C117.46 62.4701 115.464 63.2076 113.482 63.8883Z" fill="#EAC3A4"/>
<path d="M221.909 13.6212C224.941 12.4065 228.33 12.6334 231.569 12.203C236.52 11.5389 241.106 9.32991 245.863 7.81162C246.06 7.74822 246.288 7.68815 246.465 7.79159C246.629 7.88503 246.696 8.08191 246.739 8.2621C247.658 11.9027 245.114 15.5499 242.136 17.8457C239.161 20.1381 235.597 21.7198 233.07 24.4961C231.151 26.6017 229.654 29.4948 226.879 30.1522C223.654 30.9164 220.772 28.2468 218.018 26.4015C215.861 24.9566 210.119 21.7999 212.723 18.453C213.511 17.4386 215.701 17.0215 216.804 16.4509C218.536 15.5566 220.09 14.352 221.909 13.6212Z" fill="#AC5F11"/>
<path d="M177.366 38.044C177.596 40.0295 178.104 41.9882 178.803 43.8135C181.548 50.9478 183.055 59.4236 189.189 64.5057C192.579 67.3153 198.178 71.3497 202.711 71.2529C208.949 71.1161 214.895 71.9636 220.562 74.7266C221.805 75.3339 223.025 76.0213 224.362 76.3917C227.441 77.246 230.513 76.1648 232.99 74.3028C235.363 72.5209 235.915 69.758 237.693 67.5589C238.399 66.6913 239.375 66.0907 240.177 65.3132C242.611 62.954 242.681 58.6361 242.754 55.4593C242.781 54.3381 242.738 53.1702 242.206 52.1858C240.638 49.2827 234.815 50.2037 232.629 46.8434C230.64 43.7868 232.121 39.7759 232.104 36.132C232.081 33.062 230.907 30.1355 229.092 27.6896C228.17 26.4449 227.083 25.3204 225.89 24.336C224.459 23.1547 223.62 22.7076 221.785 22.6375C221.404 22.6242 221.019 22.6075 220.658 22.4874C220.304 22.3706 219.993 22.157 219.686 21.9468C217.864 20.6988 216.43 19.5676 214.264 19.057C212.094 18.5431 209.895 18.1761 207.688 17.8557C200.782 16.858 194.437 15.0027 188.387 19.1738C185.168 21.3928 181.949 23.7754 179.739 27.0022C177.513 30.2557 176.921 34.1999 177.366 38.044Z" fill="#EAC3A4"/>
<path d="M225.866 39.7758C226.02 42.7857 226.425 46.0559 228.551 48.1949C230.376 50.0335 233.337 50.6341 235.738 49.6564C235.975 49.5596 236.199 49.4362 236.42 49.3127C234.912 48.8222 233.488 48.1648 232.629 46.8434C230.64 43.7868 232.121 39.7758 232.104 36.1319C232.084 31.6738 229.637 27.5628 226.217 24.6163C225.729 29.6517 225.609 34.7238 225.866 39.7758Z" fill="#E08A36"/>
<path d="M188.139 36.5858C189.356 38.9216 189.998 41.5211 191.161 43.8869C195.433 52.5696 207.357 56.4771 215.955 52.009C218.602 50.6342 220.996 48.4518 221.835 45.5921C222.346 43.8469 222.246 41.9682 221.855 40.1896C221.103 36.7626 219.334 33.6627 217.844 30.4859C216.356 27.3092 215.106 23.8555 215.5 20.3684C215.537 20.0514 215.597 19.7311 215.667 19.4141C213.057 18.71 210.362 18.2428 207.688 17.8557C200.782 16.858 194.437 15.0027 188.387 19.1738C185.615 21.0859 182.848 23.1214 180.718 25.7075C181.17 26.6785 181.721 27.6062 182.319 28.4738C184.211 31.2167 186.602 33.6293 188.139 36.5858Z" fill="#E08A36"/>
<path d="M237.396 61.1754C236.948 64.1052 235.066 66.7847 232.456 68.1996" stroke="#601800" stroke-width="1.5" stroke-linecap="round" stroke-linejoin="round"/>
<path d="M232.456 68.1996C227.635 68.6067 222.795 67.0917 219.425 63.628" stroke="#601800" stroke-width="1.5" stroke-linecap="round" stroke-linejoin="round"/>
<path d="M220.552 62.6169C219.549 62.9139 218.683 63.6414 218.222 64.5757" stroke="#601800" stroke-width="1.5" stroke-linecap="round" stroke-linejoin="round"/>
<path d="M232.493 68.1796C233.175 68.5399 233.994 68.6234 234.732 68.4098C235.581 68.1662 236.273 67.5656 236.925 66.9716" stroke="#601800" stroke-width="1.5" stroke-linecap="round" stroke-linejoin="round"/>
<path d="M241.428 55.8664C242.009 53.8342 241.598 52.386 239.255 52.4995C238.586 52.5295 237.918 52.5629 237.249 52.5929C235.711 52.6663 232.89 52.1557 232.168 54.0077C231.513 55.6895 232.312 57.8051 233.916 58.636C234.528 58.953 235.257 59.1199 235.705 59.6471C236.183 60.211 236.37 61.3423 237.068 61.7026C237.968 62.1698 239.001 61.2455 239.475 60.5781C240.468 59.1866 240.956 57.5082 241.428 55.8664Z" fill="#794A1F"/>
<path d="M235.672 59.1566C235.571 58.2456 234.836 57.4414 233.94 57.2546" stroke="#601800" stroke-width="1.5" stroke-linecap="round" stroke-linejoin="round"/>
<path d="M228.504 59.9308C228.504 60.2311 228.26 60.4714 227.959 60.468C227.658 60.4647 227.418 60.2211 227.421 59.9241C227.424 59.6238 227.668 59.3835 227.966 59.3869C228.267 59.3869 228.507 59.6305 228.504 59.9308Z" fill="#934A00"/>
<path d="M230.71 63.5413C230.71 63.8417 230.466 64.0819 230.165 64.0819C229.864 64.0786 229.624 63.835 229.627 63.5347C229.627 63.2377 229.874 62.9941 230.172 62.9974C230.473 63.0007 230.713 63.2443 230.71 63.5413Z" fill="#934A00"/>
<path d="M232.542 61.062C232.539 61.3623 232.295 61.6026 231.994 61.6026C231.696 61.5993 231.456 61.3557 231.456 61.0553C231.459 60.7584 231.703 60.5148 232.004 60.5181C232.301 60.5214 232.542 60.765 232.542 61.062Z" fill="#934A00"/>
<path d="M239.783 63.9518C239.783 64.2487 239.539 64.4923 239.238 64.489C238.937 64.4857 238.696 64.2421 238.7 63.9451C238.703 63.6448 238.947 63.4045 239.245 63.4045C239.545 63.4078 239.786 63.6514 239.783 63.9518Z" fill="#934A00"/>
<path d="M217.112 43.4831C217.102 45.1816 215.714 46.5497 214.013 46.5397C212.311 46.5264 210.941 45.1416 210.951 43.4431C210.964 41.7446 212.351 40.3765 214.053 40.3865C215.754 40.3998 217.125 41.7846 217.112 43.4831Z" fill="#502315"/>
<path d="M230.67 44.6944C230.66 46.3929 230.082 47.7677 229.38 47.7611C228.681 47.7577 228.123 46.3763 228.133 44.6778C228.146 42.9793 228.721 41.6078 229.423 41.6112C230.125 41.6178 230.684 42.996 230.67 44.6944Z" fill="#502315"/>
<path d="M182.189 17.6288C184.155 14.3386 187.534 12.1229 191.051 10.5879C194.568 9.0496 198.308 8.08523 201.852 6.61366C205.843 4.95522 209.54 2.67945 213.358 0.660619C214.287 0.17343 215.43 -0.300409 216.329 0.24017C217.777 1.10777 216.965 3.33348 215.952 4.68159C213.01 8.59245 209.567 12.1329 205.736 15.1795C203.704 16.7946 201.38 18.5831 201.106 21.1626C200.983 22.3438 201.324 23.5318 201.26 24.7197C201.09 27.7296 198.255 30.0454 195.297 30.6561C191.85 31.3635 185.235 30.7428 182.387 28.2935C179.518 25.8276 180.501 20.4551 182.189 17.6288Z" fill="#AC5F11"/>
<path d="M207.478 34.7805C208.932 33.4491 210.924 32.7183 212.893 32.8017C214.866 32.8851 216.788 33.7761 218.125 35.2243" stroke="#601800" stroke-width="1.5" stroke-linecap="round" stroke-linejoin="round"/>
<path d="M227.237 36.0452C227.531 35.3178 228.123 34.7171 228.845 34.4101C229.293 34.2199 229.931 34.2099 230.142 34.647" stroke="#601800" stroke-width="1.5" stroke-linecap="round" stroke-linejoin="round"/>
<path d="M228.003 45.5153C228.431 47.3006 230.139 48.6987 231.977 48.7655" stroke="#601800" stroke-width="1.5" stroke-linecap="round" stroke-linejoin="round"/>
<path d="M225.783 71.3797C227.659 72.3941 229.908 72.7011 231.991 72.2306" stroke="#601800" stroke-width="1.5" stroke-linecap="round" stroke-linejoin="round"/>
<path d="M161.294 123.375C162.34 124.62 163.293 125.971 164.045 127.547C164.66 128.838 165.175 130.206 165.262 131.631C165.419 134.207 164.182 136.69 164.135 139.272C164.058 143.771 167.488 147.448 170.53 150.765C175.17 155.82 179.422 161.229 183.236 166.932C186.856 172.341 190.547 176.369 194.769 181.244C196.647 183.416 198.586 185.635 201.11 187.01C203.637 188.385 206.917 188.752 209.32 187.177C209.888 186.807 210.403 186.323 210.661 185.699C211.456 183.793 209.641 181.905 208.153 180.47C204.373 176.823 201.708 172.204 199.091 167.649C193.301 157.562 184.343 146.043 184.617 133.84C184.717 129.295 185.723 124.817 186.164 120.292C187.06 111.169 187.144 95.6991 180.702 88.448C176.724 83.9765 170.109 82.3147 164.262 83.6228C157.998 85.031 148.207 90.7771 148.08 98.0015C147.973 104.011 150.69 110.652 154.15 115.5C156.25 118.44 159.001 120.652 161.294 123.375Z" fill="#EAC3A4"/>
<path d="M207.04 188.131C206.763 186.703 206.051 185.368 205.018 184.344" stroke="#601800" stroke-width="1.5" stroke-linecap="round" stroke-linejoin="round"/>
<path d="M207.829 183.022C208.895 183.92 209.601 185.231 209.768 186.616" stroke="#601800" stroke-width="1.5" stroke-linecap="round" stroke-linejoin="round"/>
<path d="M245.325 118.136C246.746 118.18 248.076 119.231 248.444 120.602" stroke="#601800" stroke-width="1.5" stroke-linecap="round" stroke-linejoin="round"/>
<path d="M1.31665 181.811C2.19915 180.8 2.78749 179.532 2.9914 178.207" stroke="#601800" stroke-width="1.5" stroke-linecap="round" stroke-linejoin="round"/>
<path d="M4.05469 183.874C5.48541 183.006 6.47489 181.444 6.64203 179.782" stroke="#601800" stroke-width="1.5" stroke-linecap="round" stroke-linejoin="round"/>
<path d="M39.1874 138.718C38.6593 141.572 40.324 144.678 42.9916 145.826" stroke="#601800" stroke-width="1.5" stroke-linecap="round" stroke-linejoin="round"/>
<path d="M178.807 139.156C179.235 139.903 180.084 140.394 180.947 140.394" stroke="#601800" stroke-width="1.5" stroke-linecap="round" stroke-linejoin="round"/>
<path d="M204.597 180.006C204.129 180.877 202.772 181.087 202.06 180.4" stroke="#601800" stroke-width="1.5" stroke-linecap="round" stroke-linejoin="round"/>
<path d="M239.572 115.537C238.723 115.63 237.904 115.967 237.236 116.495" stroke="#601800" stroke-width="1.5" stroke-linecap="round" stroke-linejoin="round"/>
<path d="M170.209 39.4989C171.302 53.3003 177.239 67.1318 188.186 75.6275C189.463 76.6186 190.904 77.5663 192.519 77.593C195.012 77.6364 196.951 75.5308 198.529 73.6054C198.706 73.3885 198.887 73.1582 198.93 72.8813C199.014 72.3073 198.469 71.8568 197.991 71.5298C191.278 66.9282 185.148 61.2822 180.946 54.3214C177.245 48.1848 175.123 40.9571 175.647 33.7661C175.838 31.1166 176.199 29.2412 173.307 31.3535C170.6 33.3323 169.961 36.3288 170.209 39.4989Z" fill="#235879"/>
<path d="M195.527 81.8676C196.27 85.0777 195.531 87.9875 193.876 88.3679C192.225 88.7483 190.283 86.4558 189.54 83.2457C188.798 80.0356 189.537 77.1258 191.192 76.7454C192.843 76.365 194.785 78.6575 195.527 81.8676Z" fill="#F9D672"/>
<path d="M31.1148 88.5747C23.0887 96.64 15.0559 105.606 4.15496 108.886C3.20226 109.17 2.18939 109.44 1.50077 110.155C0.812149 110.869 0.661722 112.203 1.47737 112.767C2.00219 113.128 2.70418 113.051 3.33263 112.944C22.8848 109.621 37.4527 93.0796 55.9886 86.032C58.3152 85.1477 60.7689 84.3736 62.6108 82.7051C64.4526 81.0333 65.4722 78.1369 64.1785 76.018C56.8879 64.1019 36.6772 82.9854 31.1148 88.5747Z" fill="#EAC3A4"/>
<path d="M26.1874 99.7634C27.0131 99.0693 27.9525 98.4854 28.611 97.6311C30.2189 95.5456 29.7007 92.6758 29.7074 89.9963C22.1426 97.6678 14.4207 105.797 4.15496 108.887C3.20226 109.17 2.18939 109.44 1.50077 110.155C0.812149 110.869 0.661722 112.203 1.47737 112.767C2.00219 113.128 2.70418 113.051 3.33263 112.944C10.0751 111.8 16.2225 109.08 22.146 105.723C23.0485 103.431 24.2988 101.348 26.1874 99.7634Z" fill="#E08A36"/>
<path d="M85.0142 80.7364C89.166 81.4839 92.1277 85.041 95.6811 87.3201C98.5024 89.1287 101.825 90.1598 105.181 90.2633C106.358 90.3 107.592 90.2099 108.611 89.6159C110.794 88.3479 111.212 85.328 113.017 83.5628C116.149 80.5061 122.624 81.8376 124.396 77.84C124.944 76.6086 124.851 75.1104 125.639 74.0159C126.432 72.9214 127.859 72.5543 129.113 72.0438C132.422 70.7023 135.083 67.8493 136.183 64.4556C137.119 61.5725 136.958 58.4425 137.687 55.4994C137.854 54.8286 138.075 54.1779 138.332 53.5373C132.188 56.5672 125.924 59.3201 119.519 61.706C117.46 62.4702 115.464 63.2076 113.482 63.8884C108.477 65.6035 103.57 66.9583 98.0077 67.5056C90.2022 68.273 82.3466 68.3164 74.5278 68.897C70.1921 69.2207 65.7596 69.7613 61.5811 70.9426C66.4582 73.7022 70.1487 79.8254 75.8683 80.7664C78.8835 81.2603 82.0023 80.1925 85.0142 80.7364Z" fill="#E08A36"/>
<path d="M54.441 85.2946C53.4382 87.3902 53.1741 89.7494 52.9234 92.0552C52.6927 94.1641 52.4922 96.4232 53.5117 98.2852C55.0728 101.142 59.0675 101.906 62.1295 100.784C65.1915 99.66 67.498 97.1439 69.5672 94.6279C70.6871 93.2664 71.8203 91.7582 71.9106 90.0029C71.9975 88.2978 71.0815 86.7194 70.1957 85.2612C69.4536 84.0299 68.7081 82.8019 67.9627 81.5706C67.5616 80.9099 67.1471 80.2325 66.5286 79.7687C63.2126 77.2693 55.8885 82.2713 54.441 85.2946Z" fill="#E08A36"/>
<path d="M212.132 5.19215C210.297 7.7549 208.05 10.024 205.5 11.8827C203.267 13.5077 200.79 14.8358 198.854 16.8046C196.919 18.7734 195.575 21.6331 196.33 24.2859" stroke="#601800" stroke-width="1.5" stroke-linecap="round" stroke-linejoin="round"/>
<path d="M243.922 11.2553C243.153 12.6301 242.17 13.8948 240.987 14.9359C238.77 16.8846 235.962 17.9858 233.308 19.2805C230.654 20.5719 227.99 22.197 226.532 24.7597" stroke="#601800" stroke-width="1.5" stroke-linecap="round" stroke-linejoin="round"/>
<path d="M39.7959 95.0984C40.2605 91.5646 41.5108 88.1343 43.4228 85.1277" stroke="#601800" stroke-width="1.5" stroke-linecap="round" stroke-linejoin="round"/>
<path d="M64.3652 121.029C67.6613 116.995 70.9573 112.961 74.2533 108.927" stroke="#601800" stroke-width="1.5" stroke-linecap="round" stroke-linejoin="round"/>
<path d="M155.928 117.996C153.498 116.565 151.275 114.776 149.356 112.711" stroke="#601800" stroke-width="1.5" stroke-linecap="round" stroke-linejoin="round"/>
<path d="M186.322 103.277C186.308 101.449 186.051 99.6232 185.556 97.8614" stroke="#601800" stroke-width="1.5" stroke-linecap="round" stroke-linejoin="round"/>
<path d="M279.108 236.533C283.744 236.443 287.709 239.954 290.206 243.851C292.706 247.749 294.264 252.217 297.032 255.931C298.854 258.373 301.174 260.439 303.814 261.967C298.543 262.194 293.238 261.58 288.16 260.158C283.911 258.971 279.746 257.169 276.473 254.212C270.627 248.926 267.515 236.757 279.108 236.533Z" fill="#FF708A"/>
<path d="M277.366 240.991C281.588 241.959 285.335 244.835 287.358 248.659" stroke="#2A0F10" stroke-width="1.5" stroke-linecap="round" stroke-linejoin="round"/>
<path d="M420.004 279.896C426.061 288.569 429.09 298.92 432.897 308.787C434.565 313.112 436.517 317.543 440.077 320.52C441.498 321.711 444.333 323.186 444.864 325.105C445.453 327.217 444.035 327.267 442.264 326.553C433.041 322.839 427.739 313.315 423.507 304.329C419.275 295.346 414.869 285.622 406.292 280.594C402.658 278.461 398.389 277.267 395.377 274.32C393.616 272.599 391.309 268.064 393.766 265.951C395.829 264.176 400.883 265.858 403.106 266.599C410.019 268.901 415.882 273.993 420.004 279.896Z" fill="#F79E5B"/>
<path d="M383.233 277.774C387.281 286.9 387.011 297.091 385.774 306.788C384.514 316.682 381.345 324.317 385.516 334.134C387.385 338.529 390.25 342.617 390.875 347.345C391.346 350.912 390.494 354.506 389.645 358.003C388.364 363.272 387.084 368.541 385.804 373.814C385.155 376.48 385.51 379.079 384.45 381.739C384.186 382.396 383.875 383.047 383.407 383.574C382.789 384.265 381.94 384.705 381.087 385.066C378.69 386.08 376.096 386.614 373.496 386.627C372.61 386.634 371.701 386.574 370.895 386.207C370.086 385.843 369.397 385.122 369.287 384.245C369.163 383.257 369.775 382.329 370.48 381.625C372.242 379.853 374.742 378.816 376.093 376.713C377.667 374.261 377.744 370.477 377.962 367.65C378.781 357.132 376.227 348.954 368.237 341.609C364.413 338.092 360.084 335.045 356.925 330.921C352.188 324.734 349.013 315.508 347.278 307.986C345.336 299.561 344.229 290.571 345.77 281.985C346.843 275.992 349.641 270.149 354.365 266.295C358.777 262.698 366.887 260.208 372.322 263.028C377.266 265.591 381.104 272.982 383.233 277.774Z" fill="#E59158"/>
<path d="M254.508 319.152C256.092 325.205 258.058 331.128 260.548 336.72C265.92 348.78 269.407 361.29 267.608 374.581C267.391 376.203 267.15 377.881 266.281 379.269C264.423 382.239 259.983 383.46 259.352 386.904C259.245 387.505 259.278 388.159 259.609 388.676C260.197 389.6 261.461 389.761 262.561 389.814C265.392 389.951 268.29 389.971 270.995 389.117C279.94 386.29 278.172 374.468 279.231 367.013C280.331 359.288 280.913 351.46 280.258 343.668C279.883 339.196 279.104 334.698 279.709 330.25C280.659 323.273 285.068 317.049 284.58 309.968C284.142 303.605 281.725 296.871 276.651 292.757C271.229 288.359 248.217 282.499 249.875 294.729C250.968 302.791 252.399 311.086 254.508 319.152Z" fill="#E59158"/>
<path d="M251.333 300.178C252.222 302.687 253.158 305.18 254.207 307.619C256.23 312.311 258.449 316.339 262.15 319.852C265.804 323.316 269.862 326.419 274.441 328.562C274.532 328.602 274.625 328.645 274.715 328.689C279.559 330.901 284.861 331.985 290.173 332.419C326.606 335.386 359.432 308.814 395.913 306.448C400.89 306.128 406.412 306.068 410.063 302.671C413.887 299.12 414.194 293.204 413.496 288.038C412.917 283.76 411.801 279.476 409.494 275.825C405.413 269.362 398.109 265.621 390.768 263.455C372.881 258.183 353.776 260.619 335.16 261.78C327.074 262.287 318.897 262.538 310.925 261.106C303.273 259.735 295.959 256.835 289.096 253.194C278.784 247.729 269.257 240.424 262.554 230.88C261.785 229.786 260.886 228.561 259.559 228.418C258.904 228.344 258.255 228.561 257.637 228.785C246.776 232.702 237.279 240.277 230.921 249.891C226.773 256.158 229.063 258.003 233.265 263.292C237.266 268.327 240.706 273.83 243.547 279.593C246.773 286.136 248.879 293.234 251.333 300.178Z" fill="#F79E5B"/>
<path d="M209.841 215.778C208.698 217.656 207.555 219.535 206.411 221.417C204.914 223.883 203.413 226.349 201.915 228.818C201.22 229.956 200.508 231.351 201.083 232.552C201.564 233.56 202.761 233.987 203.864 234.181C207.314 234.778 210.914 233.984 214.03 232.389C217.145 230.794 219.813 228.431 222.153 225.828C223.196 224.667 224.199 223.426 224.737 221.961C226.024 218.454 223.326 215.064 220.404 213.402C215.938 210.859 212.485 211.423 209.841 215.778Z" fill="#D25D2C"/>
<path d="M238.744 210.225C236.079 210.439 233.465 211.073 230.801 211.279C227.866 211.506 224.871 211.216 222.003 211.887C217.577 212.925 213.796 216.365 212.359 220.67C211.73 222.545 211.5 224.604 210.38 226.232C209.133 228.047 207.007 229.008 204.988 229.889C202.912 230.794 200.836 231.698 198.76 232.602C198.072 232.903 197.353 233.223 196.882 233.807C196.37 234.438 196.226 235.282 196.159 236.089C195.752 241.242 198.189 246.527 202.374 249.567C202.788 249.871 203.233 250.164 203.52 250.588C203.908 251.159 203.962 251.883 204.112 252.557C204.74 255.41 207.207 257.579 209.939 258.63C212.666 259.681 215.655 259.795 218.58 259.855C228.511 260.062 239.034 261.37 247.92 256.218C252.854 253.358 257.045 249.193 259.897 244.258C262.748 239.319 265.312 233.617 264.791 227.837C264.276 222.158 261.023 216.865 256.39 213.582C251.633 210.208 244.396 209.775 238.744 210.225Z" fill="#F79E5B"/>
<path d="M206.248 240.361C206.448 240.584 206.432 240.928 206.208 241.128C205.984 241.328 205.643 241.312 205.439 241.088C205.238 240.864 205.255 240.524 205.479 240.321C205.703 240.12 206.047 240.137 206.248 240.361Z" fill="#AC3F11"/>
<path d="M209.664 241.015C209.865 241.238 209.848 241.579 209.624 241.782C209.4 241.982 209.059 241.966 208.855 241.742C208.655 241.519 208.671 241.175 208.895 240.975C209.119 240.774 209.464 240.791 209.664 241.015Z" fill="#AC3F11"/>
<path d="M210.005 238.472C210.205 238.696 210.189 239.039 209.965 239.239C209.741 239.44 209.397 239.423 209.196 239.199C208.995 238.979 209.012 238.635 209.236 238.432C209.46 238.232 209.804 238.252 210.005 238.472Z" fill="#AC3F11"/>
<path d="M201.047 241.155C201.428 242.803 201.819 244.475 202.601 245.98C203.38 247.482 204.607 248.826 206.205 249.397" stroke="#790D13" stroke-width="1.5" stroke-linecap="round" stroke-linejoin="round"/>
<path d="M205.295 249.04C207.746 249.457 210.196 249.874 212.643 250.291C215.865 250.838 219.198 251.382 222.374 250.598C225.352 249.861 228.016 247.922 229.631 245.316" stroke="#790D13" stroke-width="1.5" stroke-linecap="round" stroke-linejoin="round"/>
<path d="M228.534 245.172C229.835 244.982 231.222 245.62 231.924 246.731" stroke="#790D13" stroke-width="1.5" stroke-linecap="round" stroke-linejoin="round"/>
<path d="M205.887 249.273C205.255 250.161 203.925 250.458 202.976 249.924" stroke="#790D13" stroke-width="1.5" stroke-linecap="round" stroke-linejoin="round"/>
<path d="M199.475 233.623C198.73 233.72 197.914 233.88 197.439 234.464C197.172 234.798 197.052 235.228 197.015 235.656C196.864 237.478 198.111 239.086 199.285 240.491C199.669 240.948 200.117 241.438 200.712 241.492C201.491 241.559 202.113 240.841 202.434 240.13C202.754 239.42 202.955 238.612 203.533 238.088C204.342 237.361 205.703 237.381 206.341 236.5C206.545 236.223 206.649 235.876 206.662 235.532C206.769 232.232 201.3 233.383 199.475 233.623Z" fill="#86452B"/>
<path d="M203.132 238.295C203.396 237.501 203.884 236.78 204.53 236.243" stroke="#790D13" stroke-width="1.5" stroke-linecap="round" stroke-linejoin="round"/>
<path d="M198.038 238.415C197.877 237.931 197.794 237.424 197.784 236.914" stroke="#790D13" stroke-width="1.5" stroke-linecap="round" stroke-linejoin="round"/>
<path d="M231.623 226.239C231.656 227.944 230.296 229.349 228.591 229.379C226.883 229.409 225.475 228.054 225.445 226.349C225.415 224.647 226.772 223.242 228.477 223.212C230.185 223.179 231.593 224.537 231.623 226.239Z" fill="#790D13"/>
<path d="M214.541 226.229C214.123 227.727 213.254 228.815 212.599 228.658C211.944 228.498 211.75 227.157 212.168 225.655C212.586 224.157 213.455 223.069 214.11 223.226C214.765 223.382 214.959 224.727 214.541 226.229Z" fill="#790D13"/>
<path d="M246.268 208.91C245.934 208.84 245.6 208.787 245.255 208.75C244.791 208.703 244.319 208.673 243.861 208.763C242.173 209.097 241.207 211.042 241.381 212.751C241.555 214.459 242.564 215.958 243.584 217.343C246.546 221.36 248.886 226.519 250.002 231.384C250.219 232.332 250.5 233.43 251.393 233.824C252.238 234.194 253.204 233.733 253.99 233.243C256.785 231.501 259.278 229.275 261.324 226.693C263.002 224.57 264.4 222.154 264.888 219.492C265.372 216.832 264.848 213.902 263.069 211.863C262.701 211.443 262.274 211.056 261.755 210.839C259.148 209.741 256.537 211.81 253.913 211.426C251.316 211.046 248.956 209.477 246.268 208.91Z" fill="#D25D2C"/>
<path d="M226.555 219.348C227.993 218.561 229.774 218.627 231.329 219.145C232.883 219.665 234.26 220.596 235.614 221.517" stroke="#790D13" stroke-width="1.5" stroke-linecap="round" stroke-linejoin="round"/>
<path d="M214.501 220.82C214.585 220.413 214.424 219.965 214.103 219.695C213.782 219.428 213.314 219.351 212.923 219.505" stroke="#790D13" stroke-width="1.5" stroke-linecap="round" stroke-linejoin="round"/>
<path d="M267.722 329.763C268.578 331.789 269.497 333.784 270.446 335.749C278.385 352.23 285.252 366.062 282.734 384.695C282.514 386.317 282.276 387.995 281.407 389.387C279.549 392.353 275.106 393.575 274.478 397.018C274.367 397.619 274.404 398.276 274.732 398.79C275.323 399.715 276.587 399.875 277.683 399.928C280.518 400.065 283.416 400.088 286.121 399.234C295.066 396.404 293.298 384.582 294.357 377.127C295.454 369.402 296.039 361.574 295.384 353.782C295.009 349.311 294.23 344.812 294.835 340.364C295.781 333.39 300.194 327.167 299.706 320.083C299.268 313.723 296.851 306.989 291.773 302.871C285.422 297.719 276.44 297.579 268.29 298.356C264.519 298.716 263.413 299.13 262.607 302.644C261.802 306.171 262.36 310.416 262.922 313.936C263.794 319.395 265.562 324.671 267.722 329.763Z" fill="#F79E5B"/>
<path d="M413.305 282.99C417.357 292.113 417.082 302.304 415.849 312.004C414.589 321.895 411.42 329.529 415.592 339.35C417.46 343.741 420.325 347.829 420.95 352.561C421.421 356.128 420.566 359.722 419.717 363.216C418.436 368.488 417.159 373.757 415.879 379.026C415.879 383.914 415.384 389.293 409.976 390.812C407.662 391.462 405.205 391.319 402.815 391.082C401.568 390.955 400.148 390.698 399.513 389.62C398.938 388.649 399.275 387.358 399.964 386.464C400.653 385.566 401.632 384.952 402.515 384.248C408.498 379.476 408.849 371.227 407.84 364.217C406.857 357.369 403.377 351.48 398.313 346.821C394.488 343.304 390.156 340.261 386.997 336.137C382.264 329.95 379.085 320.72 377.353 313.202C375.411 304.773 374.301 295.783 375.842 287.197C376.919 281.208 379.716 275.361 384.44 271.511C388.849 267.91 396.959 265.421 402.398 268.24C407.342 270.807 411.179 278.194 413.305 282.99Z" fill="#F79E5B"/>
<path d="M239.048 259.021C240.97 258.303 242.895 257.582 244.821 256.865C246.382 256.281 247.95 255.697 249.424 254.916C253.101 252.974 256.123 249.821 257.905 246.067" stroke="#790D13" stroke-width="1.5" stroke-linecap="round" stroke-linejoin="round"/>
<path d="M255.925 265.731C251.841 271.287 246.843 276.406 240.542 279.209C240.505 281.541 243.51 282.736 244.302 284.928C244.593 285.739 244.557 286.623 244.643 287.481C244.834 289.34 245.61 291.082 246.385 292.78C249.561 299.741 252.884 306.635 256.35 313.459C256.925 314.593 257.901 315.921 259.138 315.611C259.669 315.478 260.077 315.054 260.425 314.633C261.592 313.222 262.491 311.614 263.343 309.995C273.699 290.324 278.339 267.697 276.564 245.546C276.477 244.465 276.353 243.324 275.705 242.453C275.033 241.549 273.903 241.308 272.894 241.722C272.255 239.853 271.045 235.539 268.966 237.668C267.445 239.229 266.993 244.375 266.245 246.43C263.744 253.308 260.261 259.835 255.925 265.731Z" fill="#FF708A"/>
<path d="M272.726 247.191C270.707 263.525 268.377 280.667 258.569 293.895" stroke="#2A0F10" stroke-width="1.5" stroke-linecap="round" stroke-linejoin="round"/>
<path d="M268.441 254.796C266.622 260.916 263.767 266.669 260.926 272.388C258.653 276.97 256.273 281.685 252.378 285.005" stroke="#2A0F10" stroke-width="1.5" stroke-linecap="round" stroke-linejoin="round"/>
<path d="M264.968 322.315C264.406 320.316 263.844 318.321 263.286 316.322" stroke="#790D13" stroke-width="1.5" stroke-linecap="round" stroke-linejoin="round"/>
<path d="M297.547 332.426C299.967 328.018 302.073 323.436 303.851 318.734" stroke="#790D13" stroke-width="1.5" stroke-linecap="round" stroke-linejoin="round"/>
<path d="M376.902 310.292C376.651 307.533 376.4 304.773 376.153 302.017" stroke="#790D13" stroke-width="1.5" stroke-linecap="round" stroke-linejoin="round"/>
<path d="M370.34 385.856C370.32 384.538 370.915 383.227 371.918 382.373" stroke="#790D13" stroke-width="1.5" stroke-linecap="round" stroke-linejoin="round"/>
<path d="M374.201 386.637C374.074 385.483 374.539 384.275 375.411 383.504" stroke="#790D13" stroke-width="1.5" stroke-linecap="round" stroke-linejoin="round"/>
<path d="M400.482 390.572C400.549 389.27 401.14 388.005 402.093 387.114" stroke="#790D13" stroke-width="1.5" stroke-linecap="round" stroke-linejoin="round"/>
<path d="M405.252 391.219C405.707 389.917 406.279 388.653 406.951 387.451" stroke="#790D13" stroke-width="1.5" stroke-linecap="round" stroke-linejoin="round"/>
<path d="M402.096 345.707C403.059 344.392 403.6 342.77 403.614 341.142" stroke="#790D13" stroke-width="1.5" stroke-linecap="round" stroke-linejoin="round"/>
<path d="M370.995 339.073C371.924 337.825 372.703 336.467 373.308 335.035" stroke="#790D13" stroke-width="1.5" stroke-linecap="round" stroke-linejoin="round"/>
<path d="M276.421 399.635C276.682 398.123 277.407 396.695 278.473 395.59" stroke="#790D13" stroke-width="1.5" stroke-linecap="round" stroke-linejoin="round"/>
<path d="M280.258 399.815C280.849 398.366 281.622 396.988 282.548 395.72" stroke="#790D13" stroke-width="1.5" stroke-linecap="round" stroke-linejoin="round"/>
<path d="M261 388.986C261.144 387.802 261.615 386.661 262.35 385.723" stroke="#790D13" stroke-width="1.5" stroke-linecap="round" stroke-linejoin="round"/>
<path d="M265.202 389.801C265.342 388.302 265.827 386.837 266.606 385.549" stroke="#790D13" stroke-width="1.5" stroke-linecap="round" stroke-linejoin="round"/>
<path d="M283.744 359.291C285.359 358.46 286.716 357.132 287.582 355.537" stroke="#790D13" stroke-width="1.5" stroke-linecap="round" stroke-linejoin="round"/>
<path d="M267.642 348.823C269.109 348.036 270.252 346.661 270.757 345.076" stroke="#790D13" stroke-width="1.5" stroke-linecap="round" stroke-linejoin="round"/>
<path d="M254.047 213.141C255.715 215.664 257.122 218.357 258.242 221.163" stroke="#790D13" stroke-width="1.5" stroke-linecap="round" stroke-linejoin="round"/>
</svg>
