<svg width="251" height="54" viewBox="0 0 251 54" fill="none" xmlns="http://www.w3.org/2000/svg">
<path d="M90.554 48.38C86.3993 48.38 83.1313 47.1513 80.75 44.694C78.3686 42.2367 77.178 38.7153 77.178 34.13C77.178 29.6207 78.3306 26.1247 80.636 23.642C82.9413 21.134 86.1586 19.88 90.288 19.88C92.264 19.88 93.9866 20.0193 95.456 20.298C96.064 20.3993 96.558 20.7033 96.938 21.21C97.318 21.7167 97.508 22.2867 97.508 22.92V24.136C97.508 24.668 97.2926 25.086 96.862 25.39C96.4313 25.694 95.9626 25.7827 95.456 25.656C94.012 25.276 92.5426 25.086 91.048 25.086C88.768 25.086 86.982 25.8587 85.69 27.404C84.4233 28.9493 83.79 31.1913 83.79 34.13C83.79 37.018 84.474 39.26 85.842 40.856C87.21 42.452 89.034 43.25 91.314 43.25C92.834 43.25 94.316 43.06 95.76 42.68C96.2666 42.5533 96.7353 42.642 97.166 42.946C97.622 43.25 97.85 43.668 97.85 44.2V45.34C97.85 45.9733 97.6473 46.5433 97.242 47.05C96.862 47.5567 96.368 47.8607 95.76 47.962C94.2653 48.2407 92.53 48.38 90.554 48.38Z" fill="white"/>
<path d="M112.013 38.956C108.923 38.956 107.377 39.906 107.377 41.806C107.377 42.49 107.58 43.0347 107.985 43.44C108.391 43.82 108.935 44.01 109.619 44.01C110.835 44.01 111.823 43.63 112.583 42.87C113.343 42.0847 113.723 41.046 113.723 39.754V39.298C113.723 39.07 113.609 38.956 113.381 38.956H112.013ZM107.757 48.38C106.009 48.38 104.565 47.8227 103.425 46.708C102.311 45.568 101.753 44.0987 101.753 42.3C101.753 37.6893 105.173 35.384 112.013 35.384H113.381C113.609 35.384 113.723 35.2827 113.723 35.08V34.89C113.723 33.9273 113.47 33.2307 112.963 32.8C112.482 32.3693 111.659 32.154 110.493 32.154C108.948 32.154 107.099 32.3947 104.945 32.876C104.413 32.9773 103.932 32.8633 103.501 32.534C103.096 32.2047 102.893 31.774 102.893 31.242V31.166C102.893 30.5327 103.083 29.9627 103.463 29.456C103.869 28.924 104.375 28.6073 104.983 28.506C107.213 28.0753 109.138 27.86 110.759 27.86C114.078 27.86 116.421 28.4553 117.789 29.646C119.183 30.8367 119.879 32.8127 119.879 35.574V45.834C119.879 46.4167 119.664 46.9233 119.233 47.354C118.803 47.7847 118.296 48 117.713 48H116.307C115.699 48 115.18 47.7973 114.749 47.392C114.319 46.9613 114.091 46.442 114.065 45.834V45.416C114.065 45.3907 114.053 45.378 114.027 45.378C113.977 45.378 113.951 45.3907 113.951 45.416C112.355 47.392 110.291 48.38 107.757 48.38Z" fill="white"/>
<path d="M126.837 48C126.254 48 125.748 47.7847 125.317 47.354C124.912 46.9233 124.709 46.4167 124.709 45.834V30.406C124.709 29.8233 124.912 29.3167 125.317 28.886C125.748 28.4553 126.254 28.24 126.837 28.24H128.699C129.282 28.24 129.776 28.4553 130.181 28.886C130.612 29.3167 130.827 29.8233 130.827 30.406V32.002C130.827 32.0273 130.84 32.04 130.865 32.04C130.916 32.04 130.941 32.0273 130.941 32.002C132.512 29.8993 134.703 28.6707 137.515 28.316C138.098 28.24 138.592 28.4173 138.997 28.848C139.428 29.2787 139.643 29.798 139.643 30.406V30.71C139.643 31.2927 139.428 31.7993 138.997 32.23C138.592 32.6607 138.085 32.9013 137.477 32.952C135.425 33.18 133.829 33.8893 132.689 35.08C131.574 36.2453 131.017 37.7653 131.017 39.64V45.834C131.017 46.4167 130.802 46.9233 130.371 47.354C129.966 47.7847 129.472 48 128.889 48H126.837Z" fill="white"/>
<path d="M152.054 38.956C148.964 38.956 147.418 39.906 147.418 41.806C147.418 42.49 147.621 43.0347 148.026 43.44C148.432 43.82 148.976 44.01 149.66 44.01C150.876 44.01 151.864 43.63 152.624 42.87C153.384 42.0847 153.764 41.046 153.764 39.754V39.298C153.764 39.07 153.65 38.956 153.422 38.956H152.054ZM147.798 48.38C146.05 48.38 144.606 47.8227 143.466 46.708C142.352 45.568 141.794 44.0987 141.794 42.3C141.794 37.6893 145.214 35.384 152.054 35.384H153.422C153.65 35.384 153.764 35.2827 153.764 35.08V34.89C153.764 33.9273 153.511 33.2307 153.004 32.8C152.523 32.3693 151.7 32.154 150.534 32.154C148.989 32.154 147.14 32.3947 144.986 32.876C144.454 32.9773 143.973 32.8633 143.542 32.534C143.137 32.2047 142.934 31.774 142.934 31.242V31.166C142.934 30.5327 143.124 29.9627 143.504 29.456C143.91 28.924 144.416 28.6073 145.024 28.506C147.254 28.0753 149.179 27.86 150.8 27.86C154.119 27.86 156.462 28.4553 157.83 29.646C159.224 30.8367 159.92 32.8127 159.92 35.574V45.834C159.92 46.4167 159.705 46.9233 159.274 47.354C158.844 47.7847 158.337 48 157.754 48H156.348C155.74 48 155.221 47.7973 154.79 47.392C154.36 46.9613 154.132 46.442 154.106 45.834V45.416C154.106 45.3907 154.094 45.378 154.068 45.378C154.018 45.378 153.992 45.3907 153.992 45.416C152.396 47.392 150.332 48.38 147.798 48.38Z" fill="white"/>
<path d="M166.916 48C166.334 48 165.827 47.7847 165.396 47.354C164.965 46.9233 164.75 46.4167 164.75 45.834V30.406C164.75 29.8233 164.965 29.3167 165.396 28.886C165.827 28.4553 166.334 28.24 166.916 28.24H168.322C168.93 28.24 169.437 28.4553 169.842 28.886C170.273 29.2913 170.513 29.798 170.564 30.406L170.602 30.748C170.602 30.7733 170.615 30.786 170.64 30.786C170.691 30.786 170.716 30.7733 170.716 30.748C172.211 28.8227 173.921 27.86 175.846 27.86C177.012 27.86 177.936 28.0753 178.62 28.506C179.304 28.9113 179.938 29.646 180.52 30.71C180.52 30.7607 180.546 30.786 180.596 30.786L180.672 30.71C182.42 28.81 184.244 27.86 186.144 27.86C188.298 27.86 189.855 28.4427 190.818 29.608C191.781 30.748 192.262 32.6987 192.262 35.46V45.834C192.262 46.4167 192.047 46.9233 191.616 47.354C191.186 47.7847 190.679 48 190.096 48H188.424C187.841 48 187.335 47.7847 186.904 47.354C186.474 46.9233 186.258 46.4167 186.258 45.834V35.84C186.258 34.472 186.106 33.5727 185.802 33.142C185.498 32.686 184.928 32.458 184.092 32.458C183.509 32.458 182.939 32.6987 182.382 33.18C181.85 33.6613 181.584 34.13 181.584 34.586V45.834C181.584 46.4167 181.369 46.9233 180.938 47.354C180.507 47.7847 180.001 48 179.418 48H177.746C177.163 48 176.657 47.7847 176.226 47.354C175.796 46.9233 175.58 46.4167 175.58 45.834V35.84C175.58 34.472 175.428 33.5727 175.124 33.142C174.846 32.686 174.288 32.458 173.452 32.458C172.869 32.458 172.299 32.6987 171.742 33.18C171.185 33.6613 170.906 34.13 170.906 34.586V45.834C170.906 46.4167 170.691 46.9233 170.26 47.354C169.829 47.7847 169.323 48 168.74 48H166.916Z" fill="white"/>
<path d="M205.546 32.002C204.406 32.002 203.545 32.306 202.962 32.914C202.38 33.4967 202.012 34.51 201.86 35.954C201.86 36.1567 201.949 36.258 202.126 36.258H208.548C208.776 36.258 208.89 36.144 208.89 35.916C208.789 33.3067 207.674 32.002 205.546 32.002ZM206.496 48.38C203.051 48.38 200.391 47.506 198.516 45.758C196.667 44.01 195.742 41.464 195.742 38.12C195.742 34.8013 196.566 32.268 198.212 30.52C199.884 28.7467 202.291 27.86 205.432 27.86C211.462 27.86 214.527 31.1533 214.628 37.74C214.628 38.348 214.388 38.8673 213.906 39.298C213.45 39.7033 212.918 39.906 212.31 39.906H202.164C201.911 39.906 201.81 40.02 201.86 40.248C202.063 41.6413 202.595 42.642 203.456 43.25C204.343 43.8327 205.66 44.124 207.408 44.124C208.548 44.124 209.777 43.9593 211.094 43.63C211.626 43.5033 212.095 43.6047 212.5 43.934C212.931 44.2633 213.146 44.694 213.146 45.226V45.302C213.146 45.9353 212.944 46.518 212.538 47.05C212.158 47.5567 211.664 47.8607 211.056 47.962C209.587 48.2407 208.067 48.38 206.496 48.38Z" fill="white"/>
<path d="M221.638 48C221.055 48 220.548 47.7847 220.118 47.354C219.687 46.9233 219.472 46.4167 219.472 45.834V21.666C219.472 21.0833 219.687 20.5767 220.118 20.146C220.548 19.7153 221.055 19.5 221.638 19.5H223.766C224.348 19.5 224.855 19.7153 225.286 20.146C225.716 20.5767 225.932 21.0833 225.932 21.666V45.834C225.932 46.4167 225.716 46.9233 225.286 47.354C224.855 47.7847 224.348 48 223.766 48H221.638Z" fill="white"/>
<path d="M243.319 33.56C242.711 32.6227 241.774 32.154 240.507 32.154C239.24 32.154 238.29 32.6227 237.657 33.56C237.049 34.4973 236.745 36.0173 236.745 38.12C236.745 40.2227 237.049 41.7427 237.657 42.68C238.29 43.6173 239.24 44.086 240.507 44.086C241.774 44.086 242.711 43.6173 243.319 42.68C243.952 41.7427 244.269 40.2227 244.269 38.12C244.269 36.0173 243.952 34.4973 243.319 33.56ZM247.841 45.682C246.093 47.4807 243.648 48.38 240.507 48.38C237.366 48.38 234.921 47.4807 233.173 45.682C231.425 43.8833 230.551 41.3627 230.551 38.12C230.551 34.8773 231.425 32.3567 233.173 30.558C234.921 28.7593 237.366 27.86 240.507 27.86C243.648 27.86 246.093 28.7593 247.841 30.558C249.589 32.3567 250.463 34.8773 250.463 38.12C250.463 41.3627 249.589 43.8833 247.841 45.682Z" fill="white"/>
<path d="M49.6871 44.9685C49.6871 34.2111 41.2449 17.7995 30.8303 17.7995C20.4156 17.7995 11.9735 34.2111 11.9735 44.9685C11.9735 45.1345 11.9747 45.2969 11.9795 45.4569C12.1407 52.0528 19.1828 55.8499 24.6589 52.4533C26.4619 51.3347 28.5727 50.6912 30.8303 50.6912C33.0867 50.6912 35.1975 51.3347 37.0016 52.4533C42.4777 55.8499 49.5199 52.0528 49.681 45.4569C49.6846 45.2969 49.6871 45.1345 49.6871 44.9685Z" fill="#F8961E"/>
<path d="M14.2659 25.8748C14.2659 30.5957 11.0726 34.424 7.13354 34.424C3.19332 34.424 0 30.5957 0 25.8748C0 21.1528 3.19332 17.3257 7.13354 17.3257C11.0726 17.3257 14.2659 21.1528 14.2659 25.8748Z" fill="#F8961E"/>
<path d="M29.1198 8.54797C29.1198 13.27 25.9264 17.0971 21.9874 17.0971C18.0484 17.0971 14.8539 13.27 14.8539 8.54797C14.8539 3.82716 18.0484 0 21.9874 0C25.9264 0 29.1198 3.82716 29.1198 8.54797Z" fill="#F8961E"/>
<path d="M47.6519 25.8748C47.6519 30.5957 50.8452 34.424 54.7842 34.424C58.7244 34.424 61.9177 30.5957 61.9177 25.8748C61.9177 21.1528 58.7244 17.3257 54.7842 17.3257C50.8452 17.3257 47.6519 21.1528 47.6519 25.8748Z" fill="#F8961E"/>
<path d="M33.0048 8.54797C33.0048 13.27 36.1981 17.0971 40.1371 17.0971C44.0761 17.0971 47.2706 13.27 47.2706 8.54797C47.2706 3.82716 44.0761 0 40.1371 0C36.1981 0 33.0048 3.82716 33.0048 8.54797Z" fill="#F8961E"/>
</svg>
