<svg width="72" height="76" viewBox="0 0 72 76" fill="none" xmlns="http://www.w3.org/2000/svg">
<rect width="72" height="60" rx="20" fill="#77A7C2"/>
<path d="M36.7321 73C35.9623 74.3333 34.0377 74.3333 33.2679 73L26.3397 61C25.5699 59.6667 26.5322 58 28.0718 58H41.9282C43.4678 58 44.4301 59.6667 43.6603 61L36.7321 73Z" fill="#77A7C2"/>
<path d="M64.0135 27.8319C64.8622 26.5998 65.3494 25.1031 65.3258 23.4953C65.265 19.3662 61.8586 16.0653 57.7177 16.1226C57.633 16.1235 57.5486 16.1267 57.4635 16.1304C55.6558 16.216 53.8346 16.9689 52.5644 18.2662C51.3912 19.4649 50.7698 21.1665 49.5318 22.2659C48.3501 23.3161 46.6233 23.4123 45.0405 23.4544C42.6039 23.5188 40.1673 23.5839 37.7307 23.649C32.5258 23.787 27.2782 23.9225 22.1503 23.0173C21.8137 22.9579 21.4649 22.8881 21.19 22.6857C20.96 22.5161 20.8027 22.2681 20.651 22.0258C18.8863 19.2131 16.8957 16.814 13.2589 16.7441C13.1739 16.7421 13.0893 16.7417 13.0045 16.7434C8.86362 16.8006 5.55683 20.1948 5.61773 24.3232C5.64123 25.9317 6.17294 27.4143 7.05741 28.6218C7.78725 29.6182 7.8073 30.9502 7.10656 31.9664C6.25796 33.1978 5.77081 34.6945 5.79431 36.303C5.85581 40.4322 9.26162 43.7323 13.4025 43.675C15.1887 43.6501 16.9303 42.9789 18.2668 41.7968C18.9308 41.2101 19.4888 40.5056 19.9076 39.7251C20.3109 38.9731 20.3666 37.9034 21.02 37.351C21.7803 36.7071 23.2508 36.444 24.199 36.234C26.5166 35.7196 28.9133 35.6989 31.2776 35.6887C36.1945 35.6662 41.1114 35.6443 46.0282 35.6225C46.9309 35.6185 47.8469 35.6164 48.7162 35.8608C50.6592 36.4092 50.6296 37.7786 51.4962 39.2868C51.9382 40.0553 52.517 40.7437 53.198 41.312C54.5689 42.4564 56.3294 43.0792 58.1156 43.0549C62.2566 42.997 65.5639 39.6036 65.5024 35.4744C65.4789 33.8659 64.9472 32.3833 64.0628 31.1758C63.3329 30.1794 63.3135 28.8482 64.0135 27.8319Z" fill="#F8961E"/>
</svg>
