<svg width="74" height="78" viewBox="0 0 74 78" fill="none" xmlns="http://www.w3.org/2000/svg">
<rect width="74" height="61.5789" rx="15" fill="#F8961E"/>
<path d="M37.7038 75.0053C36.9337 76.3372 35.011 76.3372 34.2409 75.0053L27.0265 62.5274C26.2556 61.1941 27.2178 59.5263 28.7579 59.5263H43.1867C44.7269 59.5263 45.6891 61.1941 44.9182 62.5274L37.7038 75.0053Z" fill="#F8961E"/>
<path d="M65.7917 28.5643C66.664 27.2998 67.1647 25.7637 67.1404 24.1136C67.0779 19.8758 63.5769 16.4881 59.321 16.5468C59.2339 16.5478 59.1472 16.551 59.0597 16.5549C57.2018 16.6427 55.33 17.4155 54.0245 18.7469C52.8188 19.9771 52.1801 21.7235 50.9077 22.8518C49.6932 23.9296 47.9185 24.0284 46.2916 24.0716C43.7874 24.1377 41.2831 24.2045 38.7788 24.2713C33.4293 24.4129 28.0359 24.552 22.7656 23.623C22.4197 23.562 22.0612 23.4904 21.7787 23.2827C21.5423 23.1086 21.3806 22.8541 21.2247 22.6054C19.411 19.7187 17.365 17.2565 13.6273 17.1847C13.5398 17.1827 13.4529 17.1822 13.3657 17.1839C9.10986 17.2427 5.71122 20.7262 5.7738 24.9633C5.79796 26.6141 6.34444 28.1357 7.25347 29.375C8.00359 30.3976 8.02419 31.7646 7.30399 32.8076C6.43182 34.0714 5.93113 35.6075 5.95529 37.2583C6.0185 41.4962 9.51892 44.8831 13.7748 44.8243C15.6107 44.7987 17.4006 44.1099 18.7742 42.8967C19.4567 42.2946 20.0302 41.5715 20.4606 40.7704C20.8751 39.9986 20.9323 38.9008 21.604 38.3339C22.3854 37.673 23.8967 37.403 24.8712 37.1875C27.2532 36.6596 29.7164 36.6384 32.1465 36.6279C37.2 36.6047 42.2534 36.5823 47.3068 36.5599C48.2345 36.5558 49.176 36.5537 50.0694 36.8045C52.0665 37.3673 52.036 38.7727 52.9266 40.3206C53.3809 41.1094 53.9758 41.8159 54.6757 42.3992C56.0848 43.5736 57.8942 44.2128 59.73 44.1879C63.9859 44.1284 67.3852 40.6458 67.322 36.4079C67.2978 34.7571 66.7514 33.2355 65.8423 31.9961C65.0922 30.9736 65.0722 29.6073 65.7917 28.5643Z" fill="white"/>
</svg>
