<svg width="162" height="104" viewBox="0 0 162 104" fill="none" xmlns="http://www.w3.org/2000/svg">
<path d="M151.421 46.7363C153.527 43.6786 154.736 39.9641 154.678 35.974C154.527 25.7264 146.073 17.5344 135.796 17.6765C135.586 17.6789 135.377 17.6868 135.165 17.6961C130.679 17.9085 126.159 19.777 123.007 22.9965C120.095 25.9713 118.553 30.1943 115.481 32.9228C112.548 35.5291 108.263 35.7679 104.334 35.8724C98.2873 36.0322 92.2402 36.1938 86.1931 36.3554C73.2757 36.6978 60.2524 37.0341 47.5262 34.7877C46.6909 34.6402 45.8253 34.4671 45.1431 33.9648C44.5722 33.5439 44.1818 32.9283 43.8053 32.3271C39.4258 25.3465 34.4855 19.3926 25.4599 19.219C25.2488 19.2142 25.039 19.2131 24.8284 19.2172C14.5518 19.3593 6.34511 27.7828 6.49625 38.0286C6.55457 42.0205 7.87415 45.6999 10.0692 48.6968C11.8805 51.1694 11.9302 54.4752 10.1912 56.9972C8.08516 60.0532 6.87615 63.7676 6.93447 67.7595C7.08711 78.0073 15.5395 86.1974 25.8161 86.0552C30.2493 85.9933 34.5714 84.3276 37.8883 81.3939C39.5362 79.938 40.921 78.1895 41.9603 76.2524C42.9612 74.3861 43.0994 71.7314 44.7212 70.3605C46.608 68.7625 50.2575 68.1095 52.6105 67.5885C58.3623 66.3118 64.3103 66.2605 70.1781 66.2352C82.3807 66.1792 94.5831 66.125 106.785 66.0708C109.026 66.0609 111.299 66.0557 113.456 66.6623C118.279 68.0232 118.205 71.4216 120.356 75.1646C121.453 77.072 122.889 78.7804 124.579 80.1908C127.982 83.0308 132.351 84.5765 136.784 84.5163C147.061 84.3725 155.269 75.951 155.116 65.7032C155.058 61.7113 153.738 58.0318 151.543 55.035C149.732 52.5623 149.684 49.2586 151.421 46.7363Z" fill="#F8961E"/>
</svg>
